<?xml version="1.0" encoding="UTF-8" standalone="no"?>
<!DOCTYPE svg PUBLIC "-//W3C//DTD SVG 1.1//EN" "http://www.w3.org/Graphics/SVG/1.1/DTD/svg11.dtd">
<svg width="100%" height="100%" viewBox="0 0 1488 426" version="1.1" xmlns="http://www.w3.org/2000/svg" xmlns:xlink="http://www.w3.org/1999/xlink" xml:space="preserve" xmlns:serif="http://www.serif.com/" style="fill-rule:evenodd;clip-rule:evenodd;stroke-miterlimit:10;">
    <g>
        <path d="M167.5,45.5L199.38,45.5" style="fill:none;fill-rule:nonzero;stroke:white;stroke-width:1px;"/>
        <path d="M206.38,45.5L199.38,49L199.38,42L206.38,45.5Z" style="fill:none;fill-rule:nonzero;stroke:white;stroke-width:1px;"/>
        <path d="M167.5,31.5C167.5,28.189 164.811,25.5 161.5,25.5L33.5,25.5C30.189,25.5 27.5,28.189 27.5,31.5L27.5,59.5C27.5,62.811 30.189,65.5 33.5,65.5L161.5,65.5C164.811,65.5 167.5,62.811 167.5,59.5L167.5,31.5Z" style="fill:rgb(59,160,132);"/>
        <g transform="matrix(1,0,0,1,76.656,49)">
            <g>
                <text x="0px" y="0px" style="font-family:'ArialMT', 'Arial', sans-serif;font-size:12px;">Healthy</text>
            </g>
        </g>
        <path d="M317.5,45.5L349.38,45.5" style="fill:none;fill-rule:nonzero;stroke:white;stroke-width:1px;"/>
        <path d="M356.38,45.5L349.38,49L349.38,42L356.38,45.5Z" style="fill:none;fill-rule:nonzero;stroke:white;stroke-width:1px;"/>
        <g transform="matrix(1,0,0,1,327,39)">
            <g>
                <g>
                    <g transform="matrix(1,0,0,1,-10.604,0)">
                        <text x="0px" y="0px" style="font-family:'ArialMT', 'Arial', sans-serif;font-size:13px;fill:white;">Y</text>
                    </g>
                    <g transform="matrix(1,0,0,1,-3.126,0)">
                        <text x="0px" y="0px" style="font-family:'ArialMT', 'Arial', sans-serif;font-size:13px;fill:white;">es</text>
                    </g>
                </g>
            </g>
        </g>
        <path d="M262.5,90.5L262.5,125.47L7.53,125.47L7.53,45.47L19.38,45.49" style="fill:none;fill-rule:nonzero;stroke:white;stroke-width:1px;"/>
        <path d="M26.38,45.5L19.38,48.99L19.39,41.99L26.38,45.5Z" style="fill:none;fill-rule:nonzero;stroke:white;stroke-width:1px;"/>
        <g transform="matrix(1,0,0,1,238.691,99)">
            <g>
                <text x="0px" y="0px" style="font-family:'ArialMT', 'Arial', sans-serif;font-size:13px;fill:white;">No</text>
            </g>
        </g>
        <path d="M215.24,39.17L254.76,6.83C259.92,2.61 265.08,2.61 270.24,6.83L309.76,39.17C314.92,43.39 314.92,47.61 309.76,51.83L270.24,84.17C265.08,88.39 259.92,88.39 254.76,84.17L215.24,51.83C210.08,47.61 210.08,43.39 215.24,39.17Z" style="fill:rgb(196,227,218);fill-rule:nonzero;"/>
        <g transform="matrix(1,0,0,1,223.311,47)">
            <g>
                <text x="0px" y="0px" style="font-family:'ArialMT', 'Arial', sans-serif;font-size:12px;">Gets infected?</text>
            </g>
        </g>
        <path d="M497.5,45.5L529.38,45.5" style="fill:none;fill-rule:nonzero;stroke:white;stroke-width:1px;"/>
        <path d="M536.38,45.5L529.38,49L529.38,42L536.38,45.5Z" style="fill:none;fill-rule:nonzero;stroke:white;stroke-width:1px;"/>
        <path d="M497.5,31.5C497.5,28.189 494.811,25.5 491.5,25.5L363.5,25.5C360.189,25.5 357.5,28.189 357.5,31.5L357.5,59.5C357.5,62.811 360.189,65.5 363.5,65.5L491.5,65.5C494.811,65.5 497.5,62.811 497.5,59.5L497.5,31.5Z" style="fill:rgb(189,222,124);"/>
        <g transform="matrix(1,0,0,1,367.967,49)">
            <g>
                <text x="0px" y="0px" style="font-family:'ArialMT', 'Arial', sans-serif;font-size:12px;">Imperceptible Infected</text>
            </g>
        </g>
        <path d="M647.5,45.5L679.38,45.5" style="fill:none;fill-rule:nonzero;stroke:white;stroke-width:1px;"/>
        <path d="M686.38,45.5L679.38,49L679.38,42L686.38,45.5Z" style="fill:none;fill-rule:nonzero;stroke:white;stroke-width:1px;"/>
        <path d="M592.5,90.5L592.5,110.5L592.5,105.47L592.5,117.38" style="fill:none;fill-rule:nonzero;stroke:white;stroke-width:1px;"/>
        <path d="M592.5,124.38L589,117.38L596,117.38L592.5,124.38Z" style="fill:none;fill-rule:nonzero;stroke:white;stroke-width:1px;"/>
        <g transform="matrix(1,0,0,1,568.691,99)">
            <g>
                <text x="0px" y="0px" style="font-family:'ArialMT', 'Arial', sans-serif;font-size:13px;fill:white;">No</text>
            </g>
        </g>
        <path d="M545.24,39.17L584.76,6.83C589.92,2.61 595.08,2.61 600.24,6.83L639.76,39.17C644.92,43.39 644.92,47.61 639.76,51.83L600.24,84.17C595.08,88.39 589.92,88.39 584.76,84.17L545.24,51.83C540.08,47.61 540.08,43.39 545.24,39.17Z" style="fill:rgb(235,245,216);fill-rule:nonzero;"/>
        <path d="M827.5,45.5L859.38,45.5" style="fill:none;fill-rule:nonzero;stroke:white;stroke-width:1px;"/>
        <path d="M866.38,45.5L859.38,49L859.38,42L866.38,45.5Z" style="fill:none;fill-rule:nonzero;stroke:white;stroke-width:1px;"/>
        <path d="M827.5,31.5C827.5,28.189 824.811,25.5 821.5,25.5L693.5,25.5C690.189,25.5 687.5,28.189 687.5,31.5L687.5,59.5C687.5,62.811 690.189,65.5 693.5,65.5L821.5,65.5C824.811,65.5 827.5,62.811 827.5,59.5L827.5,31.5Z" style="fill:rgb(229,226,127);"/>
        <g transform="matrix(1,0,0,1,735.651,49)">
            <g>
                <text x="0px" y="0px" style="font-family:'ArialMT', 'Arial', sans-serif;font-size:12px;">Infected</text>
            </g>
        </g>
        <path d="M977.5,45.5L1009.38,45.5" style="fill:none;fill-rule:nonzero;stroke:white;stroke-width:1px;"/>
        <path d="M1016.38,45.5L1009.38,49L1009.38,42L1016.38,45.5Z" style="fill:none;fill-rule:nonzero;stroke:white;stroke-width:1px;"/>
        <g transform="matrix(1,0,0,1,987,39)">
            <g>
                <g>
                    <g transform="matrix(1,0,0,1,-10.604,0)">
                        <text x="0px" y="0px" style="font-family:'ArialMT', 'Arial', sans-serif;font-size:13px;fill:white;">Y</text>
                    </g>
                    <g transform="matrix(1,0,0,1,-3.126,0)">
                        <text x="0px" y="0px" style="font-family:'ArialMT', 'Arial', sans-serif;font-size:13px;fill:white;">es</text>
                    </g>
                </g>
            </g>
        </g>
        <path d="M922.5,90.5L922.5,110.5L922.5,105.47L922.5,117.38" style="fill:none;fill-rule:nonzero;stroke:white;stroke-width:1px;"/>
        <path d="M922.5,124.38L919,117.38L926,117.38L922.5,124.38Z" style="fill:none;fill-rule:nonzero;stroke:white;stroke-width:1px;"/>
        <g transform="matrix(1,0,0,1,898.691,100)">
            <g>
                <text x="0px" y="0px" style="font-family:'ArialMT', 'Arial', sans-serif;font-size:13px;fill:white;">No</text>
            </g>
        </g>
        <path d="M875.24,39.17L914.76,6.83C919.92,2.61 925.08,2.61 930.24,6.83L969.76,39.17C974.92,43.39 974.92,47.61 969.76,51.83L930.24,84.17C925.08,88.39 919.92,88.39 914.76,84.17L875.24,51.83C870.08,47.61 870.08,43.39 875.24,39.17Z" style="fill:rgb(247,246,217);fill-rule:nonzero;"/>
        <g transform="matrix(1,0,0,1,71.9976,-49.2821)">
            <g transform="matrix(12,0,0,12,884.95,98.2489)">
            </g>
            <text x="817.59px" y="98.249px" style="font-family:'ArialMT', 'Arial', sans-serif;font-size:12px;">Gets worse?</text>
        </g>
        <g transform="matrix(1,0,0,1,-257.811,-48.389)">
            <g transform="matrix(12,0,0,12,884.95,98.2489)">
            </g>
            <text x="817.59px" y="98.249px" style="font-family:'ArialMT', 'Arial', sans-serif;font-size:12px;">Gets worse?</text>
        </g>
        <path d="M1157.5,45.5L1189.38,45.5" style="fill:none;fill-rule:nonzero;stroke:white;stroke-width:1px;"/>
        <path d="M1196.38,45.5L1189.38,49L1189.38,42L1196.38,45.5Z" style="fill:none;fill-rule:nonzero;stroke:white;stroke-width:1px;"/>
        <path d="M1157.5,31.5C1157.5,28.189 1154.81,25.5 1151.5,25.5L1023.5,25.5C1020.19,25.5 1017.5,28.189 1017.5,31.5L1017.5,59.5C1017.5,62.811 1020.19,65.5 1023.5,65.5L1151.5,65.5C1154.81,65.5 1157.5,62.811 1157.5,59.5L1157.5,31.5Z" style="fill:rgb(194,141,87);"/>
        <g transform="matrix(1,0,0,1,1044.65,49)">
            <g>
                <text x="0px" y="0px" style="font-family:'ArialMT', 'Arial', sans-serif;font-size:12px;">Heavily infected</text>
            </g>
        </g>
        <path d="M1307.5,45.5L1339.38,45.5" style="fill:none;fill-rule:nonzero;stroke:white;stroke-width:1px;"/>
        <path d="M1346.38,45.5L1339.38,49L1339.38,42L1346.38,45.5Z" style="fill:none;fill-rule:nonzero;stroke:white;stroke-width:1px;"/>
        <g transform="matrix(1,0,0,1,1317,39)">
            <g>
                <g>
                    <g transform="matrix(1,0,0,1,-10.604,0)">
                        <text x="0px" y="0px" style="font-family:'ArialMT', 'Arial', sans-serif;font-size:13px;fill:white;">Y</text>
                    </g>
                    <g transform="matrix(1,0,0,1,-3.126,0)">
                        <text x="0px" y="0px" style="font-family:'ArialMT', 'Arial', sans-serif;font-size:13px;fill:white;">es</text>
                    </g>
                </g>
            </g>
        </g>
        <path d="M1252.5,90.5L1252.5,110.5L1252.5,105.47L1252.5,117.38" style="fill:none;fill-rule:nonzero;stroke:white;stroke-width:1px;"/>
        <path d="M1252.5,124.38L1249,117.38L1256,117.38L1252.5,124.38Z" style="fill:none;fill-rule:nonzero;stroke:white;stroke-width:1px;"/>
        <g transform="matrix(1,0,0,1,1228.69,98)">
            <g>
                <text x="0px" y="0px" style="font-family:'ArialMT', 'Arial', sans-serif;font-size:13px;fill:white;">No</text>
            </g>
        </g>
        <path d="M1205.24,39.17L1244.76,6.83C1249.92,2.61 1255.08,2.61 1260.24,6.83L1299.76,39.17C1304.92,43.39 1304.92,47.61 1299.76,51.83L1260.24,84.17C1255.08,88.39 1249.92,88.39 1244.76,84.17L1205.24,51.83C1200.08,47.61 1200.08,43.39 1205.24,39.17Z" style="fill:rgb(237,221,205);fill-rule:nonzero;"/>
        <g transform="matrix(1,0,0,1,1236.66,47)">
            <g>
                <text x="0px" y="0px" style="font-family:'ArialMT', 'Arial', sans-serif;font-size:12px;">Dies?</text>
            </g>
        </g>
        <path d="M1487.5,31.5C1487.5,28.189 1484.81,25.5 1481.5,25.5L1353.5,25.5C1350.19,25.5 1347.5,28.189 1347.5,31.5L1347.5,59.5C1347.5,62.811 1350.19,65.5 1353.5,65.5L1481.5,65.5C1484.81,65.5 1487.5,62.811 1487.5,59.5L1487.5,31.5Z" style="fill:rgb(158,92,40);"/>
        <g transform="matrix(1,0,0,1,1402.66,49)">
            <g>
                <text x="0px" y="0px" style="font-family:'ArialMT', 'Arial', sans-serif;font-size:12px;">Dead</text>
            </g>
        </g>
        <path d="M592.5,215.5L592.5,235.47L757.53,235.47L757.51,247.38" style="fill:none;fill-rule:nonzero;stroke:white;stroke-width:1px;"/>
        <path d="M757.5,254.38L754.01,247.38L761.01,247.39L757.5,254.38Z" style="fill:none;fill-rule:nonzero;stroke:white;stroke-width:1px;"/>
        <g transform="matrix(1,0,0,1,577,225)">
            <g>
                <g>
                    <g transform="matrix(1,0,0,1,-10.604,0)">
                        <text x="0px" y="0px" style="font-family:'ArialMT', 'Arial', sans-serif;font-size:13px;fill:white;">Y</text>
                    </g>
                    <g transform="matrix(1,0,0,1,-3.126,0)">
                        <text x="0px" y="0px" style="font-family:'ArialMT', 'Arial', sans-serif;font-size:13px;fill:white;">es</text>
                    </g>
                </g>
            </g>
        </g>
        <path d="M537.5,170.5L337.53,170.5L337.53,45.47L349.38,45.49" style="fill:none;fill-rule:nonzero;stroke:white;stroke-width:1px;"/>
        <path d="M356.38,45.5L349.38,48.99L349.39,41.99L356.38,45.5Z" style="fill:none;fill-rule:nonzero;stroke:white;stroke-width:1px;"/>
        <g transform="matrix(1,0,0,1,519.691,159)">
            <g>
                <text x="0px" y="0px" style="font-family:'ArialMT', 'Arial', sans-serif;font-size:13px;fill:white;">No</text>
            </g>
        </g>
        <path d="M545.24,164.17L584.76,131.83C589.92,127.61 595.08,127.61 600.24,131.83L639.76,164.17C644.92,168.39 644.92,172.61 639.76,176.83L600.24,209.17C595.08,213.39 589.92,213.39 584.76,209.17L545.24,176.83C540.08,172.61 540.08,168.39 545.24,164.17Z" style="fill:rgb(235,245,216);fill-rule:nonzero;"/>
        <g transform="matrix(1,0,0,1,592,167.534)">
            <g>
                <g>
                    <g transform="matrix(1,0,0,1,-25.014,0)">
                        <text x="0px" y="0px" style="font-family:'ArialMT', 'Arial', sans-serif;font-size:12px;">Develops</text>
                    </g>
                    <g transform="matrix(1,0,0,1,-27.34,12)">
                        <text x="0px" y="0px" style="font-family:'ArialMT', 'Arial', sans-serif;font-size:12px;">immunity?</text>
                    </g>
                </g>
            </g>
        </g>
        <path d="M922.5,215.5L922.5,235.47L757.53,235.47L757.51,247.38" style="fill:none;fill-rule:nonzero;stroke:white;stroke-width:1px;"/>
        <path d="M757.5,254.38L754.01,247.38L761.01,247.39L757.5,254.38Z" style="fill:none;fill-rule:nonzero;stroke:white;stroke-width:1px;"/>
        <g transform="matrix(1,0,0,1,907,223)">
            <g>
                <g>
                    <g transform="matrix(1,0,0,1,-10.604,0)">
                        <text x="0px" y="0px" style="font-family:'ArialMT', 'Arial', sans-serif;font-size:13px;fill:white;">Y</text>
                    </g>
                    <g transform="matrix(1,0,0,1,-3.126,0)">
                        <text x="0px" y="0px" style="font-family:'ArialMT', 'Arial', sans-serif;font-size:13px;fill:white;">es</text>
                    </g>
                </g>
            </g>
        </g>
        <path d="M867.5,170.5L667.53,170.5L667.53,45.47L679.38,45.49" style="fill:none;fill-rule:nonzero;stroke:white;stroke-width:1px;"/>
        <path d="M686.38,45.5L679.38,48.99L679.39,41.99L686.38,45.5Z" style="fill:none;fill-rule:nonzero;stroke:white;stroke-width:1px;"/>
        <g transform="matrix(1,0,0,1,657,39)">
            <g>
                <g>
                    <g transform="matrix(1,0,0,1,-10.604,0)">
                        <text x="0px" y="0px" style="font-family:'ArialMT', 'Arial', sans-serif;font-size:13px;fill:white;">Y</text>
                    </g>
                    <g transform="matrix(1,0,0,1,-3.126,0)">
                        <text x="0px" y="0px" style="font-family:'ArialMT', 'Arial', sans-serif;font-size:13px;fill:white;">es</text>
                    </g>
                </g>
            </g>
        </g>
        <g transform="matrix(1,0,0,1,848.691,159)">
            <g>
                <text x="0px" y="0px" style="font-family:'ArialMT', 'Arial', sans-serif;font-size:13px;fill:white;">No</text>
            </g>
        </g>
        <path d="M875.24,164.17L914.76,131.83C919.92,127.61 925.08,127.61 930.24,131.83L969.76,164.17C974.92,168.39 974.92,172.61 969.76,176.83L930.24,209.17C925.08,213.39 919.92,213.39 914.76,209.17L875.24,176.83C870.08,172.61 870.08,168.39 875.24,164.17Z" style="fill:rgb(247,246,217);fill-rule:nonzero;"/>
        <g transform="matrix(1,0,0,1,921.721,167.813)">
            <g>
                <g>
                    <g transform="matrix(1,0,0,1,-25.014,0)">
                        <text x="0px" y="0px" style="font-family:'ArialMT', 'Arial', sans-serif;font-size:12px;">Develops</text>
                    </g>
                    <g transform="matrix(1,0,0,1,-27.34,12)">
                        <text x="0px" y="0px" style="font-family:'ArialMT', 'Arial', sans-serif;font-size:12px;">immunity?</text>
                    </g>
                </g>
            </g>
        </g>
        <path d="M1252.5,215.5L1252.5,235.47L757.53,235.47L757.51,247.38" style="fill:none;fill-rule:nonzero;stroke:white;stroke-width:1px;"/>
        <path d="M757.5,254.38L754.01,247.38L761.01,247.39L757.5,254.38Z" style="fill:none;fill-rule:nonzero;stroke:white;stroke-width:1px;"/>
        <g transform="matrix(1,0,0,1,1237,224)">
            <g>
                <g>
                    <g transform="matrix(1,0,0,1,-10.604,0)">
                        <text x="0px" y="0px" style="font-family:'ArialMT', 'Arial', sans-serif;font-size:13px;fill:white;">Y</text>
                    </g>
                    <g transform="matrix(1,0,0,1,-3.126,0)">
                        <text x="0px" y="0px" style="font-family:'ArialMT', 'Arial', sans-serif;font-size:13px;fill:white;">es</text>
                    </g>
                </g>
            </g>
        </g>
        <path d="M1197.5,170.5L997.53,170.5L997.53,45.47L1009.38,45.49" style="fill:none;fill-rule:nonzero;stroke:white;stroke-width:1px;"/>
        <path d="M1016.38,45.5L1009.38,48.99L1009.39,41.99L1016.38,45.5Z" style="fill:none;fill-rule:nonzero;stroke:white;stroke-width:1px;"/>
        <g transform="matrix(1,0,0,1,1178.69,159)">
            <g>
                <text x="0px" y="0px" style="font-family:'ArialMT', 'Arial', sans-serif;font-size:13px;fill:white;">No</text>
            </g>
        </g>
        <path d="M1205.24,164.17L1244.76,131.83C1249.92,127.61 1255.08,127.61 1260.24,131.83L1299.76,164.17C1304.92,168.39 1304.92,172.61 1299.76,176.83L1260.24,209.17C1255.08,213.39 1249.92,213.39 1244.76,209.17L1205.24,176.83C1200.08,172.61 1200.08,168.39 1205.24,164.17Z" style="fill:rgb(237,221,205);fill-rule:nonzero;"/>
        <g transform="matrix(1,0,0,1,1253.31,167.203)">
            <g>
                <g>
                    <g transform="matrix(1,0,0,1,-25.014,0)">
                        <text x="0px" y="0px" style="font-family:'ArialMT', 'Arial', sans-serif;font-size:12px;">Develops</text>
                    </g>
                    <g transform="matrix(1,0,0,1,-27.34,12)">
                        <text x="0px" y="0px" style="font-family:'ArialMT', 'Arial', sans-serif;font-size:12px;">immunity?</text>
                    </g>
                </g>
            </g>
        </g>
        <path d="M757.5,295.5L757.5,327.38" style="fill:none;fill-rule:nonzero;stroke:white;stroke-width:1px;"/>
        <path d="M757.5,334.38L754,327.38L761,327.38L757.5,334.38Z" style="fill:none;fill-rule:nonzero;stroke:white;stroke-width:1px;"/>
        <path d="M827.5,261.5C827.5,258.189 824.811,255.5 821.5,255.5L693.5,255.5C690.189,255.5 687.5,258.189 687.5,261.5L687.5,289.5C687.5,292.811 690.189,295.5 693.5,295.5L821.5,295.5C824.811,295.5 827.5,292.811 827.5,289.5L827.5,261.5Z" style="fill:rgb(119,195,229);"/>
        <g transform="matrix(1,0,0,1,735.326,279)">
            <g>
                <text x="0px" y="0px" style="font-family:'ArialMT', 'Arial', sans-serif;font-size:12px;">Immune</text>
            </g>
        </g>
        <path d="M702.5,380.5L7.53,380.5L7.53,45.47L19.38,45.49" style="fill:none;fill-rule:nonzero;stroke:white;stroke-width:1px;"/>
        <path d="M26.38,45.5L19.38,48.99L19.39,41.99L26.38,45.5Z" style="fill:none;fill-rule:nonzero;stroke:white;stroke-width:1px;"/>
        <g transform="matrix(1,0,0,1,692,369)">
            <g>
                <g>
                    <g transform="matrix(1,0,0,1,-10.604,0)">
                        <text x="0px" y="0px" style="font-family:'ArialMT', 'Arial', sans-serif;font-size:13px;fill:white;">Y</text>
                    </g>
                    <g transform="matrix(1,0,0,1,-3.126,0)">
                        <text x="0px" y="0px" style="font-family:'ArialMT', 'Arial', sans-serif;font-size:13px;fill:white;">es</text>
                    </g>
                </g>
            </g>
        </g>
        <path d="M812.5,380.5L857.53,380.5L857.53,235.47L757.53,235.47L757.51,247.38" style="fill:none;fill-rule:nonzero;stroke:white;stroke-width:1px;"/>
        <path d="M757.5,254.38L754.01,247.38L761.01,247.39L757.5,254.38Z" style="fill:none;fill-rule:nonzero;stroke:white;stroke-width:1px;"/>
        <g transform="matrix(1,0,0,1,808.691,369)">
            <g>
                <text x="0px" y="0px" style="font-family:'ArialMT', 'Arial', sans-serif;font-size:13px;fill:white;">No</text>
            </g>
        </g>
        <path d="M710.24,374.17L749.76,341.83C754.92,337.61 760.08,337.61 765.24,341.83L804.76,374.17C809.92,378.39 809.92,382.61 804.76,386.83L765.24,419.17C760.08,423.39 754.92,423.39 749.76,419.17L710.24,386.83C705.08,382.61 705.08,378.39 710.24,374.17Z" style="fill:rgb(214,237,247);fill-rule:nonzero;"/>
        <g transform="matrix(1,0,0,1,757,379.209)">
            <g>
                <g>
                    <g transform="matrix(1,0,0,1,-24.337,0)">
                        <text x="0px" y="0px" style="font-family:'ArialMT', 'Arial', sans-serif;font-size:12px;">Immunity</text>
                    </g>
                    <g transform="matrix(1,0,0,1,-12.674,12)">
                        <text x="0px" y="0px" style="font-family:'ArialMT', 'Arial', sans-serif;font-size:12px;">lost?</text>
                    </g>
                </g>
            </g>
        </g>
    </g>
</svg>
