<?xml version="1.0" encoding="UTF-8" standalone="no"?><!DOCTYPE svg PUBLIC "-//W3C//DTD SVG 1.1//EN" "http://www.w3.org/Graphics/SVG/1.1/DTD/svg11.dtd">
<svg width="100%" height="100%" viewBox="0 0 1000 1000" version="1.1" xmlns="http://www.w3.org/2000/svg"
     xml:space="preserve"
     style="fill-rule:evenodd;clip-rule:evenodd;stroke-linejoin:round;stroke-miterlimit:2;"><path id="path298" d="M956.519,440.551c-17.809,-1.355 -31.687,15.098 -37.007,39.751c-20.876,-0.101 -41.65,-3.863 -62.474,-6.845c-10.879,-1.745 -22.554,-3.897 -34.279,-6.337c-0.39,-3.88 -0.847,-7.744 -1.373,-11.573c11.048,-3.169 22.113,-6.27 32.89,-9.946c3.626,7.133 8.997,11.251 14.114,9.963c7.388,-1.847 11.59,-13.352 9.303,-25.755c-2.288,-12.404 -10.319,-21.706 -17.877,-20.842c-4.998,0.559 -8.455,5.778 -9.522,13.115c-8.151,2.016 -20.605,3.643 -34.144,4.643c-2.033,-8.828 -4.422,-17.521 -7.15,-26.06c21.757,-17.114 45.953,-31.313 71.828,-41.124c8.641,12.539 19.994,18.842 28.975,14.572c11.691,-5.575 15.385,-25.84 7.523,-45.139c-7.862,-19.283 -24.705,-31.246 -37.007,-27.111c-9.167,3.067 -12.962,14.894 -10.776,29.313c-11.269,3.203 -23.18,9.794 -34.974,13.013c-15.097,3.898 -31.788,7.185 -45.055,8.676c-1.661,-3.287 -3.355,-6.541 -5.134,-9.76c13.115,-10.438 26.789,-20.181 41.225,-28.907c9.1,7.201 18.487,9.269 24.706,4.338c9.539,-7.591 9.014,-27.196 -1.695,-43.767c-10.726,-16.588 -28.382,-25.128 -39.209,-19.537c-7.202,3.711 -9.1,13.437 -6.016,25.027c-13.742,10.116 -28.568,17.673 -43.649,24.908c-1.305,-1.711 -2.609,-3.423 -3.948,-5.1c18.859,-26.687 39.108,-52.426 58.442,-78.689c21.028,13.962 42.463,16.08 54.273,2.677c15.098,-17.165 10.675,-51.646 -12.641,-75.283c-23.315,-23.621 -57.746,-28.5 -75.098,-13.606c-13.487,11.555 -11.742,32.837 1.712,53.933c-15.166,14.741 -32.89,26.399 -48.783,39.666c-8.947,6.473 -18.724,13.2 -28.755,19.774c-2.881,-2.338 -5.812,-4.642 -8.794,-6.896c5.642,-10.065 11.979,-19.757 19.011,-28.907c7.032,1.966 13.098,0.932 15.64,-3.338c3.88,-6.54 -1.288,-17.69 -11.658,-24.857c-10.37,-7.184 -22.587,-8.082 -27.297,-2.118c-3.135,3.965 -1.847,10.15 2.643,16.148c-4.304,7.218 -11.912,17.181 -20.706,27.483c-7.286,-4.642 -14.776,-9.014 -22.418,-13.098c4.152,-27.822 8.761,-55.39 20.808,-80.519c15.064,2.898 27.637,-0.677 30.958,-10.132c4.27,-12.234 -7.456,-29.229 -26.637,-37.345c-19.181,-8.116 -39.498,-4.694 -45.225,6.93c-4.507,9.116 2.033,20.892 15.03,29.754c-4.609,11.387 -10.963,22.028 -17.182,32.702c-7.76,13.319 -17.063,27.348 -25.264,37.769c-3.677,-1.288 -7.388,-2.508 -11.133,-3.66c1.576,-16.741 3.101,-33.533 4.033,-50.324c12.658,-0.949 21.689,-6.253 22.655,-14.606c1.389,-12.115 -12.844,-25.603 -32.144,-29.754c-19.317,-4.152 -37.837,2.304 -41.548,13.911c-2.44,7.659 2.982,15.809 13.166,21.79c-2.66,16.301 -7.659,32.245 -12.979,48.173c-3.033,-0.475 -6.1,-0.898 -9.167,-1.271c-6.439,-31.533 -10.303,-63.66 -10.184,-95.887c23.976,-5.219 39.989,-18.69 38.888,-36.176c-1.441,-22.824 -28.958,-44.089 -62.153,-44.31c-33.211,-0.203 -61,20.689 -62.745,43.479c-1.356,17.809 15.097,31.686 39.752,37.007c-0.102,20.875 -3.864,41.648 -6.846,62.473c-1.661,10.336 -3.677,21.383 -5.964,32.499c-4.169,0.423 -8.32,0.898 -12.438,1.474c-2.982,-10.488 -5.964,-20.977 -9.438,-31.211c7.117,-3.626 11.234,-8.998 9.947,-14.115c-1.83,-7.371 -13.353,-11.573 -25.756,-9.302c-12.403,2.287 -21.689,10.336 -20.842,17.893c0.576,4.982 5.778,8.438 13.115,9.506c1.949,7.828 3.508,19.638 4.524,32.583c-9.099,2.135 -18.045,4.626 -26.84,7.524c-16.707,-21.435 -30.584,-45.241 -40.209,-70.641c12.522,-8.641 18.825,-19.994 14.555,-28.974c-5.574,-11.692 -25.84,-15.386 -45.14,-7.524c-19.283,7.879 -31.245,24.705 -27.111,37.007c3.084,9.183 14.894,12.962 29.314,10.776c3.203,11.268 9.794,23.18 13.03,34.973c3.796,14.741 7.032,31.042 8.557,44.157c-3.406,1.762 -6.777,3.558 -10.116,5.439c-10.285,-12.946 -19.842,-26.416 -28.449,-40.633c7.201,-9.099 9.268,-18.486 4.337,-24.704c-7.574,-9.54 -27.179,-9.015 -43.767,1.694c-16.589,10.726 -25.112,28.382 -19.537,39.209c3.711,7.201 13.454,9.099 25.027,6.015c10.014,13.59 17.503,28.246 24.671,43.157c-1.779,1.356 -3.558,2.728 -5.321,4.118c-26.518,-18.758 -52.104,-38.887 -78.215,-58.102c13.945,-21.028 16.063,-42.479 2.66,-54.272c-17.148,-15.115 -51.647,-10.692 -75.285,12.623c-23.62,23.315 -28.483,57.746 -13.606,75.097c11.556,13.487 32.838,11.742 53.934,-1.712c14.742,15.182 26.4,32.889 39.667,48.783c6.355,8.777 12.963,18.367 19.419,28.195c-2.44,2.965 -4.812,5.964 -7.134,9.014c-9.861,-5.557 -19.333,-11.776 -28.297,-18.672c1.949,-7.015 0.932,-13.098 -3.355,-15.64c-6.541,-3.88 -17.673,1.288 -24.858,11.658c-7.184,10.37 -8.082,22.587 -2.118,27.297c3.965,3.135 10.167,1.847 16.148,-2.643c7.1,4.219 16.826,11.64 26.925,20.231c-4.744,7.405 -9.201,14.996 -13.352,22.773c-27.552,-4.134 -54.816,-8.76 -79.707,-20.672c2.897,-15.08 -0.661,-27.653 -10.116,-30.957c-12.251,-4.287 -29.229,7.439 -37.363,26.62c-8.116,19.197 -4.693,39.497 6.931,45.224c9.116,4.507 20.892,-2.034 29.754,-15.03c11.387,4.609 22.028,10.963 32.703,17.182c13.081,7.624 26.857,16.724 37.21,24.823c-1.321,3.812 -2.575,7.642 -3.761,11.505c-16.521,-1.542 -33.076,-3.05 -49.648,-3.965c-0.949,-12.657 -6.269,-21.689 -14.623,-22.654c-12.115,-1.39 -25.603,12.843 -29.754,32.16c-4.152,19.299 2.304,37.819 13.911,41.53c7.659,2.44 15.809,-2.982 21.791,-13.166c16.182,2.644 32.008,7.591 47.817,12.861c-0.457,3.101 -0.864,6.219 -1.237,9.353c-31.415,6.388 -63.44,10.235 -95.55,10.116c-5.236,-23.976 -18.707,-39.988 -36.193,-38.887c-22.808,1.457 -44.09,28.958 -44.293,62.151c-0.221,33.211 20.672,61 43.462,62.745c17.809,1.355 31.687,-15.098 37.024,-39.751c20.859,0.101 41.65,3.863 62.458,6.845c10.336,1.661 21.383,3.677 32.499,5.964c0.424,4.169 0.898,8.32 1.474,12.438c-10.488,2.999 -20.977,5.964 -31.195,9.437c-3.643,-7.116 -9.014,-11.234 -14.131,-9.946c-7.371,1.847 -11.573,13.352 -9.286,25.755c2.288,12.404 10.319,21.689 17.877,20.842c4.998,-0.559 8.438,-5.778 9.505,-13.115c7.829,-1.949 19.639,-3.507 32.585,-4.524c2.135,9.099 4.642,18.045 7.54,26.84c-21.452,16.707 -45.242,30.584 -70.659,40.225c-8.624,-12.539 -19.994,-18.842 -28.975,-14.572c-11.691,5.575 -15.385,25.84 -7.506,45.139c7.862,19.283 24.688,31.246 36.99,27.111c9.184,-3.084 12.962,-14.894 10.776,-29.313c11.286,-3.203 23.181,-9.794 34.974,-13.03c14.759,-3.796 31.042,-7.015 44.157,-8.557c1.763,3.406 3.559,6.777 5.439,10.132c-12.928,10.269 -26.416,19.825 -40.615,28.433c-9.117,-7.201 -18.504,-9.269 -24.723,-4.338c-9.539,7.591 -9.014,27.196 1.712,43.767c10.709,16.588 28.365,25.128 39.193,19.537c7.218,-3.711 9.099,-13.437 6.032,-25.027c13.572,-10.014 28.229,-17.503 43.157,-24.671c1.356,1.779 2.728,3.559 4.118,5.321c-18.775,26.518 -38.905,52.12 -58.12,78.214c-21.028,-13.945 -42.48,-16.063 -54.273,-2.66c-15.114,17.165 -10.692,51.646 12.624,75.283c23.315,23.621 57.747,28.5 75.098,13.606c13.488,-11.555 11.742,-32.837 -1.712,-53.933c15.183,-14.741 32.89,-26.399 48.8,-39.666c8.761,-6.354 18.351,-12.963 28.179,-19.402c2.965,2.423 5.965,4.796 9.015,7.117c-5.558,9.862 -11.777,19.333 -18.656,28.297c-7.032,-1.949 -13.115,-0.915 -15.657,3.355c-3.88,6.54 1.288,17.69 11.658,24.857c10.37,7.184 22.587,8.082 27.297,2.118c3.135,-3.965 1.847,-10.166 -2.643,-16.148c4.236,-7.082 11.641,-16.825 20.232,-26.924c7.405,4.744 14.996,9.201 22.773,13.352c-4.134,27.551 -8.76,54.831 -20.672,79.706c-15.064,-2.898 -27.653,0.66 -30.958,10.115c-4.287,12.251 7.439,29.246 26.62,37.362c19.198,8.116 39.498,4.694 45.225,-6.93c4.507,-9.116 -2.033,-20.892 -15.03,-29.754c4.609,-11.387 10.963,-22.028 17.182,-32.702c7.625,-13.081 16.724,-26.84 24.824,-37.21c3.812,1.322 7.642,2.593 11.505,3.762c-1.542,16.52 -3.05,33.092 -3.965,49.663c-12.641,0.932 -21.689,6.253 -22.655,14.606c-1.389,12.115 12.844,25.603 32.161,29.754c19.3,4.152 37.82,-2.304 41.531,-13.911c2.44,-7.659 -2.982,-15.809 -13.166,-21.79c2.643,-16.182 7.591,-32.008 12.861,-47.817c3.101,0.458 6.218,0.864 9.353,1.237c6.405,31.415 10.235,63.439 10.116,95.549c-23.959,5.235 -39.989,18.706 -38.888,36.192c1.458,22.824 28.959,44.089 62.17,44.31c33.194,0.203 60.983,-20.689 62.728,-43.479c1.373,-17.809 -15.097,-31.686 -39.751,-37.023c0.101,-20.859 3.863,-41.649 6.862,-62.457c1.644,-10.37 3.677,-21.451 5.981,-32.601c4.135,-0.44 8.269,-0.931 12.353,-1.525c3.016,10.54 5.998,21.096 9.506,31.364c-7.134,3.626 -11.251,8.998 -9.964,14.115c1.847,7.371 13.353,11.573 25.756,9.285c12.403,-2.287 21.706,-10.319 20.842,-17.876c-0.559,-4.998 -5.778,-8.438 -13.115,-9.506c-1.966,-7.896 -3.525,-19.824 -4.541,-32.871c8.997,-2.152 17.876,-4.694 26.586,-7.608c16.825,21.536 30.805,45.461 40.497,71.013c-12.539,8.624 -18.842,19.994 -14.572,28.974c5.591,11.692 25.84,15.386 45.14,7.524c19.283,-7.879 31.245,-24.705 27.111,-37.007c-3.067,-9.183 -14.894,-12.962 -29.314,-10.776c-3.186,-11.268 -9.794,-23.18 -13.013,-34.973c-3.864,-14.996 -7.134,-31.55 -8.642,-44.783c3.304,-1.712 6.574,-3.457 9.828,-5.287c10.404,13.081 20.113,26.721 28.805,41.107c-7.201,9.099 -9.268,18.486 -4.32,24.704c7.574,9.54 27.179,9.015 43.767,-1.694c16.572,-10.726 25.112,-28.382 19.52,-39.209c-3.711,-7.218 -13.437,-9.099 -25.01,-6.015c-10.15,-13.759 -17.69,-28.602 -24.942,-43.699c1.711,-1.288 3.406,-2.593 5.083,-3.931c26.705,18.875 52.443,39.141 78.724,58.457c-13.962,21.028 -16.08,42.479 -2.677,54.272c17.165,15.115 51.647,10.692 75.285,-12.623c23.62,-23.315 28.5,-57.746 13.606,-75.097c-11.556,-13.487 -32.838,-11.742 -53.917,1.712c-14.759,-15.182 -26.417,-32.889 -39.667,-48.8c-6.422,-8.845 -13.082,-18.52 -19.588,-28.432c2.406,-2.915 4.761,-5.88 7.066,-8.879c9.929,5.575 19.486,11.844 28.534,18.791c-1.965,7.015 -0.932,13.098 3.338,15.64c6.541,3.88 17.69,-1.288 24.858,-11.658c7.184,-10.37 8.082,-22.587 2.118,-27.297c-3.965,-3.135 -10.15,-1.847 -16.148,2.643c-7.117,-4.236 -16.877,-11.674 -27.027,-20.316c4.779,-7.371 9.252,-14.945 13.403,-22.688c27.569,4.117 54.867,8.76 79.758,20.672c-2.88,15.063 0.678,27.653 10.133,30.957c12.234,4.287 29.229,-7.439 37.346,-26.62c8.116,-19.197 4.693,-39.497 -6.931,-45.224c-9.116,-4.507 -20.892,2.034 -29.754,15.03c-11.387,-4.609 -22.028,-10.963 -32.703,-17.182c-13.098,-7.641 -26.908,-16.757 -37.278,-24.874c1.305,-3.795 2.508,-7.625 3.66,-11.471c16.589,1.542 33.194,3.067 49.834,3.982c0.949,12.657 6.252,21.689 14.606,22.654c12.115,1.39 25.603,-12.843 29.754,-32.16c4.152,-19.299 -2.304,-37.819 -13.911,-41.53c-7.659,-2.44 -15.792,2.982 -21.791,13.166c-16.419,-2.678 -32.482,-7.727 -48.529,-13.098c0.39,-2.965 0.729,-5.931 1.017,-8.913c31.72,-6.523 64.067,-10.438 96.499,-10.319c5.219,23.959 18.69,39.988 36.193,38.887c22.808,-1.457 44.073,-28.958 44.293,-62.151c0.221,-33.211 -20.689,-61 -43.479,-62.745" style="fill-rule:nonzero;"/><path id="path300" d="M263.235,511.226c-2.034,-5.626 -2.44,-11.353 -2.034,-17.131c0.17,-2.931 0.712,-5.761 1.339,-8.659c0.661,-2.88 1.643,-5.676 2.694,-8.506c2.287,-5.506 5.287,-10.912 9.048,-15.775c3.745,-4.88 8.168,-9.268 12.997,-13.114c9.641,-7.778 20.858,-12.98 32.127,-16.284c1.406,-0.474 2.812,-0.779 4.219,-1.118c1.423,-0.339 2.846,-0.678 4.253,-1c1.406,-0.271 2.813,-0.491 4.236,-0.728c1.406,-0.221 2.847,-0.509 4.236,-0.661l4.202,-0.424c1.407,-0.135 2.813,-0.288 4.203,-0.339l4.168,-0.135c1.389,-0.034 2.745,-0.119 4.185,-0.068c11.319,0.102 23.163,1.847 34.804,5.981c11.607,4.033 23.028,10.844 31.991,20.147c9.066,9.167 15.149,20.875 17.623,32.516c1.203,5.863 1.643,11.708 1.067,17.435c-0.525,5.711 -1.779,11.218 -4.473,16.47l-3.321,0.204c-0.255,-2.135 -0.729,-4.423 -1.288,-6.609c-0.559,-2.186 -1.186,-4.371 -1.966,-6.506c-1.491,-4.27 -3.422,-8.371 -5.727,-12.251c-4.524,-7.743 -10.556,-14.606 -17.876,-19.723c-7.27,-5.117 -15.505,-8.913 -24.231,-11.115c-8.709,-2.271 -17.792,-3.237 -26.891,-3.254c-9.116,-0.101 -18.266,0.492 -27.162,2.254c-8.879,1.762 -17.521,4.626 -25.468,8.794c-3.965,2.101 -7.76,4.507 -11.285,7.303c-3.507,2.796 -6.743,5.93 -9.641,9.37c-2.948,3.406 -5.49,7.15 -7.676,11.098c-1.067,1.983 -2.067,4.016 -2.931,6.1c-0.864,2.068 -1.644,4.27 -2.152,6.304l-3.27,-0.576" style="fill:#fff;fill-rule:nonzero;"/><path id="path302" d="M349.448,609.553c2.406,3.27 4.863,6.506 7.523,9.539c2.576,3.101 5.253,6.083 7.998,8.947c5.575,5.71 11.285,11.115 17.301,16.046c12.013,9.896 24.993,18.063 38.616,24.366l5.151,2.254c1.712,0.762 3.491,1.355 5.219,2.05l2.61,1.016l2.643,0.898c1.779,0.577 3.507,1.271 5.304,1.763c7.133,2.152 14.385,3.863 21.705,5.185c7.371,1.135 14.742,2.236 22.249,2.49c1.864,0.085 3.727,0.305 5.608,0.322l5.643,0.102l2.813,0.051l2.829,-0.085l5.643,-0.186l1.423,-0.017l1.407,-0.102l2.812,-0.186c1.864,-0.136 3.745,-0.221 5.626,-0.39l5.592,-0.644l2.812,-0.322l2.779,-0.406l5.592,-0.831c1.847,-0.288 3.694,-0.711 5.541,-1.05c3.711,-0.644 7.337,-1.644 11.031,-2.44c14.64,-3.694 29.026,-8.794 42.954,-15.335c3.491,-1.609 6.947,-3.338 10.404,-5.083l5.117,-2.762l5.1,-2.847c6.744,-3.897 13.42,-8.048 19.944,-12.521c6.558,-4.423 12.929,-9.201 19.266,-14.149c3.186,-2.474 6.286,-5.049 9.336,-7.709c3.135,-2.593 6.134,-5.355 9.117,-8.117l1.423,0.966c-19.266,26.45 -44.53,48.24 -73.031,64.253c-3.524,2.05 -7.201,3.846 -10.844,5.727l-5.558,2.575c-1.847,0.898 -3.728,1.678 -5.626,2.457c-7.506,3.237 -15.284,5.863 -23.129,8.201c-15.741,4.457 -31.991,7.286 -48.36,7.93c-16.351,0.61 -32.804,-0.559 -48.868,-3.914c-3.965,-0.983 -7.997,-1.779 -11.911,-3.016c-1.966,-0.593 -3.949,-1.101 -5.88,-1.779l-5.812,-2.033c-7.659,-2.898 -15.166,-6.253 -22.333,-10.218c-28.619,-15.978 -52.443,-40.598 -66.355,-70.335l1.576,-0.661" style="fill:#fff;fill-rule:nonzero;"/><path id="path312" d="M364.173,452.395c-0,7.862 -6.371,14.233 -14.217,14.233c-7.862,0 -14.233,-6.371 -14.233,-14.233c0,-7.845 6.371,-14.216 14.233,-14.216c7.846,0 14.217,6.371 14.217,14.216" style="fill-rule:nonzero;"/><path id="path314" d="M572.506,511.226c-2.034,-5.626 -2.424,-11.353 -2.017,-17.131c0.153,-2.931 0.712,-5.761 1.339,-8.659c0.661,-2.88 1.626,-5.676 2.694,-8.506c2.27,-5.506 5.287,-10.912 9.048,-15.775c3.745,-4.88 8.168,-9.268 12.98,-13.114c9.658,-7.778 20.875,-12.98 32.127,-16.284c1.423,-0.474 2.812,-0.779 4.236,-1.118c1.406,-0.339 2.829,-0.678 4.253,-1c1.406,-0.271 2.813,-0.491 4.236,-0.728c1.406,-0.221 2.83,-0.509 4.219,-0.661l4.219,-0.424c1.407,-0.135 2.813,-0.288 4.185,-0.339l4.169,-0.135c1.389,-0.034 2.762,-0.119 4.202,-0.068c11.302,0.102 23.163,1.847 34.804,5.981c11.607,4.033 23.028,10.844 31.974,20.147c9.066,9.167 15.166,20.875 17.64,32.516c1.186,5.863 1.626,11.708 1.067,17.435c-0.525,5.711 -1.796,11.218 -4.473,16.47l-3.321,0.204c-0.272,-2.135 -0.746,-4.423 -1.305,-6.609c-0.559,-2.186 -1.169,-4.371 -1.949,-6.506c-1.491,-4.27 -3.439,-8.371 -5.727,-12.251c-4.541,-7.743 -10.573,-14.606 -17.876,-19.723c-7.287,-5.117 -15.505,-8.913 -24.231,-11.115c-8.71,-2.271 -17.792,-3.237 -26.891,-3.254c-9.116,-0.101 -18.266,0.492 -27.162,2.254c-8.879,1.762 -17.521,4.626 -25.468,8.794c-3.982,2.101 -7.777,4.507 -11.302,7.303c-3.507,2.796 -6.727,5.93 -9.641,9.37c-2.931,3.406 -5.473,7.15 -7.659,11.098c-1.084,1.983 -2.067,4.016 -2.931,6.1c-0.864,2.068 -1.644,4.27 -2.152,6.304l-3.287,-0.576" style="fill:#ffe000;fill-rule:nonzero;"/><path id="path316" d="M572.506,511.226c-2.034,-5.626 -2.424,-11.353 -2.017,-17.131c0.153,-2.931 0.712,-5.761 1.339,-8.659c0.661,-2.88 1.626,-5.676 2.694,-8.506c2.27,-5.506 5.287,-10.912 9.048,-15.775c3.745,-4.88 8.168,-9.268 12.98,-13.114c9.658,-7.778 20.875,-12.98 32.127,-16.284c1.423,-0.474 2.812,-0.779 4.236,-1.118c1.406,-0.339 2.829,-0.678 4.253,-1c1.406,-0.271 2.813,-0.491 4.236,-0.728c1.406,-0.221 2.83,-0.509 4.219,-0.661l4.219,-0.424c1.407,-0.135 2.813,-0.288 4.185,-0.339l4.169,-0.135c1.389,-0.034 2.762,-0.119 4.202,-0.068c11.302,0.102 23.163,1.847 34.804,5.981c11.607,4.033 23.028,10.844 31.974,20.147c9.066,9.167 15.166,20.875 17.64,32.516c1.186,5.863 1.626,11.708 1.067,17.435c-0.525,5.711 -1.796,11.218 -4.473,16.47l-3.321,0.204c-0.272,-2.135 -0.746,-4.423 -1.305,-6.609c-0.559,-2.186 -1.169,-4.371 -1.949,-6.506c-1.491,-4.27 -3.439,-8.371 -5.727,-12.251c-4.541,-7.743 -10.573,-14.606 -17.876,-19.723c-7.287,-5.117 -15.505,-8.913 -24.231,-11.115c-8.71,-2.271 -17.792,-3.237 -26.891,-3.254c-9.116,-0.101 -18.266,0.492 -27.162,2.254c-8.879,1.762 -17.521,4.626 -25.468,8.794c-3.982,2.101 -7.777,4.507 -11.302,7.303c-3.507,2.796 -6.727,5.93 -9.641,9.37c-2.931,3.406 -5.473,7.15 -7.659,11.098c-1.084,1.983 -2.067,4.016 -2.931,6.1c-0.864,2.068 -1.644,4.27 -2.152,6.304l-3.287,-0.576" style="fill:#fff;fill-rule:nonzero;"/><path id="path326" d="M675.63,451.497c-0,7.456 -6.049,13.522 -13.522,13.522c-7.473,-0 -13.522,-6.066 -13.522,-13.522c0,-7.472 6.049,-13.521 13.522,-13.521c7.473,-0 13.522,6.049 13.522,13.521" style="fill-rule:nonzero;"/></svg>