<?xml version="1.0" encoding="UTF-8" standalone="no"?><!DOCTYPE svg PUBLIC "-//W3C//DTD SVG 1.1//EN" "http://www.w3.org/Graphics/SVG/1.1/DTD/svg11.dtd"><svg width="100%" height="100%" viewBox="0 0 1000 1000" version="1.1" xmlns="http://www.w3.org/2000/svg" xmlns:xlink="http://www.w3.org/1999/xlink" xml:space="preserve" xmlns:serif="http://www.serif.com/" style="fill-rule:evenodd;clip-rule:evenodd;stroke-linejoin:round;stroke-miterlimit:2;"><path id="path30" d="M957.14,445.125c-17.79,-1.541 -31.832,14.793 -37.415,39.379c-20.867,-0.305 -41.61,-4.27 -62.393,-7.472c-10.876,-1.847 -22.529,-4.118 -34.229,-6.676c-2.055,-22.96 -6.493,-45.242 -13.088,-66.592c21.925,-16.894 46.275,-30.856 72.248,-40.413c8.506,12.624 19.806,19.046 28.824,14.861c11.756,-5.456 15.646,-25.688 7.974,-45.056c-7.672,-19.384 -24.385,-31.499 -36.727,-27.5c-9.211,2.999 -13.122,14.775 -11.075,29.212c-11.305,3.084 -23.275,9.556 -35.11,12.674c-15.13,3.745 -31.856,6.863 -45.14,8.218c-9.261,-18.825 -20.418,-36.617 -33.189,-53.154c19.125,-26.485 39.634,-52.02 59.222,-78.081c20.889,14.149 42.307,16.487 54.248,3.203c15.28,-16.995 11.208,-51.545 -11.875,-75.403c-23.083,-23.875 -57.469,-29.077 -74.971,-14.369c-13.594,11.421 -12.062,32.72 1.18,53.951c-15.33,14.589 -33.164,26.078 -49.195,39.176c-9.001,6.388 -18.856,13.03 -28.946,19.503c-16.494,-13.674 -34.336,-25.79 -53.226,-36.126c4.436,-27.789 9.319,-55.306 21.609,-80.316c15.035,3.033 27.653,-0.39 31.058,-9.811c4.409,-12.2 -7.153,-29.314 -26.258,-37.634c-19.106,-8.303 -39.451,-5.083 -45.295,6.49c-4.589,9.065 1.826,20.892 14.731,29.907c-4.715,11.336 -11.185,21.909 -17.507,32.516c-7.899,13.251 -17.334,27.179 -25.64,37.532c-21.54,-7.76 -43.979,-13.318 -66.961,-16.419c-6.122,-31.601 -9.665,-63.762 -9.226,-95.99c24.022,-4.982 40.183,-18.3 39.248,-35.804c-1.218,-22.824 -28.519,-44.378 -61.715,-44.92c-33.197,-0.559 -61.2,20.079 -63.174,42.853c-1.543,17.791 14.782,31.821 39.382,37.413c-0.31,20.859 -4.283,41.599 -7.479,62.39c-1.754,10.319 -3.89,21.35 -6.291,32.448c-23.382,2.101 -46.106,6.744 -67.878,13.674c-16.484,-21.604 -30.129,-45.546 -39.504,-71.048c12.623,-8.506 19.039,-19.808 14.852,-28.822c-5.46,-11.76 -25.687,-15.657 -45.057,-7.981c-19.371,7.676 -31.493,24.383 -27.491,36.719c2.987,9.217 14.764,13.132 29.212,11.081c3.081,11.302 9.553,23.282 12.67,35.109c3.654,14.793 6.72,31.11 8.123,44.242c-18.926,9.54 -36.831,20.876 -53.496,33.771c-26.335,-19.029 -51.729,-39.43 -77.649,-58.899c14.16,-20.893 16.494,-42.311 3.209,-54.257c-17.004,-15.267 -51.541,-11.2 -75.406,11.878c-23.863,23.079 -29.078,57.476 -14.37,74.98c11.423,13.589 32.726,12.064 53.951,-1.186c14.592,15.334 26.08,33.16 39.18,49.189c6.27,8.845 12.781,18.487 19.134,28.382c-13.866,16.606 -26.15,34.584 -36.58,53.664c-27.507,-4.406 -54.735,-9.303 -79.496,-21.469c3.041,-15.047 -0.393,-27.653 -9.816,-31.059c-12.202,-4.423 -29.307,7.15 -37.617,26.247c-8.313,19.113 -5.095,39.463 6.473,45.309c9.075,4.575 20.909,-1.83 29.909,-14.741c11.341,4.71 21.917,11.183 32.523,17.503c13.01,7.761 26.686,16.995 36.966,25.197c-7.71,21.604 -13.21,44.174 -16.182,67.473c-31.486,6.083 -63.547,9.607 -95.662,9.166c-4.99,-24.027 -18.301,-40.192 -35.803,-39.26c-22.828,1.22 -44.371,28.535 -44.923,61.729c-0.549,33.194 20.075,61.186 42.85,63.169c17.79,1.542 31.831,-14.776 37.414,-39.379c20.869,0.305 41.61,4.287 62.393,7.472c10.324,1.763 21.351,3.898 32.45,6.287c2.104,23.383 6.745,46.106 13.677,67.879c-21.614,16.487 -45.55,30.145 -71.056,39.515c-8.508,-12.624 -19.808,-19.046 -28.824,-14.86c-11.756,5.456 -15.648,25.687 -7.974,45.055c7.672,19.384 24.383,31.5 36.725,27.501c9.213,-2.999 13.122,-14.776 11.075,-29.212c11.307,-3.084 23.275,-9.557 35.11,-12.675c14.784,-3.66 31.109,-6.727 44.241,-8.116c9.533,18.927 20.867,36.82 33.77,53.493c-19.034,26.332 -39.425,51.732 -58.902,77.64c-20.891,-14.149 -42.309,-16.487 -54.25,-3.203c-15.278,16.996 -11.207,51.546 11.875,75.403c23.085,23.858 57.47,29.077 74.971,14.369c13.594,-11.42 12.062,-32.72 -1.18,-53.951c15.33,-14.589 33.164,-26.077 49.195,-39.176c8.835,-6.269 18.488,-12.776 28.38,-19.13c16.609,13.861 34.575,26.145 53.66,36.583c-4.401,27.501 -9.309,54.731 -21.476,79.487c-15.034,-3.033 -27.653,0.389 -31.057,9.811c-4.409,12.217 7.151,29.314 26.257,37.633c19.105,8.303 39.45,5.084 45.296,-6.472c4.589,-9.083 -1.828,-20.927 -14.733,-29.924c4.717,-11.336 11.185,-21.91 17.507,-32.517c7.757,-13.013 16.993,-26.687 25.189,-36.973c21.599,7.71 44.183,13.217 67.475,16.182c6.086,31.5 9.602,63.559 9.165,95.669c-24.022,4.981 -40.184,18.3 -39.25,35.803c1.218,22.825 28.521,44.361 61.717,44.92c33.197,0.559 61.198,-20.079 63.173,-42.852c1.542,-17.792 -14.784,-31.822 -39.382,-37.414c0.309,-20.858 4.282,-41.598 7.48,-62.389c1.758,-10.353 3.902,-21.418 6.311,-32.551c23.218,-2.185 45.85,-6.93 67.581,-13.945c16.609,21.723 30.353,45.784 39.779,71.421c-12.622,8.506 -19.037,19.808 -14.85,28.823c5.458,11.759 25.684,15.656 45.057,7.98c19.371,-7.675 31.493,-24.383 27.491,-36.718c-2.988,-9.218 -14.764,-13.132 -29.214,-11.082c-3.079,-11.302 -9.554,-23.282 -12.67,-35.109c-3.714,-15.03 -6.811,-31.618 -8.182,-44.869c18.747,-9.489 36.519,-20.74 53.073,-33.499c26.508,19.147 52.057,39.667 78.133,59.255c-14.161,20.892 -16.496,42.31 -3.21,54.256c17.002,15.267 51.542,11.2 75.405,-11.878c23.864,-23.095 29.08,-57.476 14.372,-74.979c-11.424,-13.59 -32.726,-12.065 -53.953,1.186c-14.592,-15.335 -26.081,-33.161 -39.179,-49.19c-6.325,-8.913 -12.894,-18.656 -19.299,-28.636c13.955,-16.572 26.269,-34.465 36.679,-53.426c27.528,4.405 54.78,9.319 79.563,21.485c-3.042,15.047 0.393,27.654 9.816,31.06c12.201,4.422 29.305,-7.151 37.616,-26.247c8.312,-19.114 5.094,-39.447 -6.472,-45.293c-9.078,-4.592 -20.91,1.813 -29.911,14.725c-11.339,-4.711 -21.916,-11.184 -32.523,-17.504c-13.037,-7.777 -26.743,-17.029 -37.03,-25.247c7.599,-21.587 12.805,-44.107 15.314,-67.236c31.788,-6.201 64.162,-9.794 96.595,-9.353c4.99,24.027 18.3,40.192 35.804,39.26c22.827,-1.22 44.371,-28.517 44.921,-61.729c0.551,-33.194 -20.076,-61.186 -42.849,-63.169" style="fill:#188d21;fill-rule:nonzero;"/><path id="path32" d="M544.45,446.871c0,-0 107.248,-15.894 167.826,-47.665c0,-0 33.764,113.697 -42.701,125.118c-76.465,11.421 -125.125,-77.453 -125.125,-77.453" style="fill:#fff;fill-rule:nonzero;"/><path id="path34" d="M636.508,463.188c-0,9.879 -8.002,17.877 -17.873,17.877c-9.874,-0 -17.877,-7.998 -17.877,-17.877c0,-9.878 8.003,-17.876 17.877,-17.876c9.871,-0 17.873,7.998 17.873,17.876" style="fill-rule:nonzero;"/><path id="path36" d="M455.55,446.871c-0,-0 -107.248,-15.894 -167.825,-47.665c0,-0 -33.763,113.697 42.702,125.118c76.463,11.421 125.123,-77.453 125.123,-77.453" style="fill:#fff;fill-rule:nonzero;"/><path id="path38" d="M363.492,463.188c0,9.879 8.003,17.877 17.875,17.877c9.872,-0 17.875,-7.998 17.875,-17.877c-0,-9.878 -8.003,-17.876 -17.875,-17.876c-9.872,-0 -17.875,7.998 -17.875,17.876" style="fill-rule:nonzero;"/><path id="path40" d="M524.081,427.995l124.628,-74.471l91.361,18.876l-92.354,-64.559l-123.635,120.154" style="fill:#063001;fill-rule:nonzero;"/><path id="path42" d="M481.024,427.995l-124.628,-74.471l-91.361,18.876l92.354,-64.559l123.635,120.154" style="fill:#063001;fill-rule:nonzero;"/><path id="path44" d="M483.322,221.526c1.14,-2.508 4.278,-7.54 3.651,-7.54c-48.322,-1.881 -92.25,21.977 -133.227,47.275c-4.08,3.27 -7.986,9.929 -3.692,12.912c-1.771,4.456 -6.792,5.71 -11.184,6.964c41.418,-11.912 85.348,-19.452 122.132,-41.768c9.56,-5.694 17.287,-11.641 22.32,-17.843" style="fill:#448743;fill-rule:nonzero;"/><path id="path46" d="M506.576,616.926c-96.398,-0 -78.075,-60.018 -78.075,-60.018c25.054,-59.289 61.27,-71.878 61.27,-71.878l27.058,-3.965c35.436,4.897 73.131,75.843 73.131,75.843c-0,0 13.016,60.018 -83.384,60.018" style="fill:#072b0a;fill-rule:nonzero;"/><path id="path48" d="M534.651,487.334c0,0 120.65,110.58 -26.818,117.781c-147.467,7.219 -32.77,-118.526 -32.77,-118.526c-0,-0 27.84,-34.262 59.588,0.745" style="fill:#188d21;fill-rule:nonzero;"/><path id="path50" d="M527.197,543.251c0,32.076 -9.231,40.158 -20.619,40.158c-11.389,0 -20.622,-8.082 -20.622,-40.158c0,-32.076 9.233,-75.979 20.622,-75.979c11.388,-0 20.619,43.903 20.619,75.979" style="fill:#30a035;fill-rule:nonzero;"/><path id="path52" d="M554.226,710.967c-2.547,-3.812 -10.187,-2.541 -16.553,-2.541c-2.549,-1.271 -3.821,-3.83 -6.368,-5.101c-21.648,-3.812 -43.297,-3.812 -64.945,0c-28.517,5.711 -46.821,28.772 -71.378,43.599c6.342,2.236 13.894,1.541 20.223,0.508c31.105,-5.05 61.142,-19.114 91.661,-18.961c30.296,0.169 60.73,14.335 91.637,19.74c5.458,0.949 11.981,1.542 17.826,0.085c-14.866,-11.641 -30.826,-22.062 -48.096,-30.958c-3.819,-1.27 -10.187,-2.541 -14.007,-6.371" style="fill:#124c0a;fill-rule:nonzero;"/><path id="path54" d="M632.077,721.625c-1.879,-81.231 -89.153,-83.231 -125.245,-83.028c-35.244,0.204 -124.452,2.135 -125.211,83.028c-0.147,15.691 5.729,22.604 13.361,25.299c24.557,-14.827 42.861,-37.888 71.378,-43.599c21.648,-3.812 43.297,-3.812 64.945,0c2.547,1.271 3.819,3.83 6.368,5.101c6.366,-0 14.006,-1.271 16.553,2.541c3.82,3.83 10.188,5.101 14.007,6.371c17.27,8.896 33.23,19.317 48.096,30.958c8.861,-2.203 16.153,-9.116 15.748,-26.671" style="fill:#010700;fill-rule:nonzero;"/></svg>