<?xml version="1.0" encoding="UTF-8" standalone="no"?><!DOCTYPE svg PUBLIC "-//W3C//DTD SVG 1.1//EN" "http://www.w3.org/Graphics/SVG/1.1/DTD/svg11.dtd"><svg width="100%" height="100%" viewBox="0 0 1000 1000" version="1.1" xmlns="http://www.w3.org/2000/svg" xmlns:xlink="http://www.w3.org/1999/xlink" xml:space="preserve" xmlns:serif="http://www.serif.com/" style="fill-rule:evenodd;clip-rule:evenodd;stroke-linejoin:round;stroke-miterlimit:2;"><path id="path150" d="M56.24,523.164c13.95,0.983 27.899,5.558 40.578,11.099c7.153,2.711 15.051,6.049 23.204,9.827c3.509,26.451 9.865,52.477 18.814,77.589c-14.492,12.674 -33.899,22.045 -44.917,32.364c-8.17,-14.132 -17.153,-22.367 -23.001,-19.215c-7.559,4.066 -7.83,23.654 0.543,43.462c8.373,19.791 22.967,33.804 31.679,32.042c6.797,-1.373 7.356,-13.064 2.712,-28.704c7.526,1.186 16.238,0.22 24.187,-3.931c11.085,-0.83 23.933,-0.542 34.425,1c11.204,20.401 24.222,39.853 38.9,58c-11.238,19.656 -23.594,38.583 -31.459,59.052c-20.763,-15.979 -39.137,-21.96 -47.035,-11.827c-10.052,12.911 -2.509,44.58 20.848,68.082c23.34,23.502 55.663,31.347 69.664,21.706c10.763,-7.422 5.813,-24.603 -9.543,-44.394c11.119,-8.422 24.56,-14.42 36.052,-21.791c7.102,-3.169 15.221,-6.388 23.798,-9.455c11.593,9.048 23.746,17.436 36.425,25.112c8.627,5.252 17.424,10.132 26.323,14.657c0.322,19.401 -0.187,38.091 -8.543,54.018c-15.441,-4.151 -27.374,-3.456 -29.306,3.084c-2.509,8.472 10.831,22.757 30.442,30.873c19.627,8.099 39.56,7.472 44.357,-0.186c3.763,-5.982 -4,-14.844 -18.085,-22.689c3.407,-7.235 8.661,-13.691 13.882,-20.113c6.424,-7.913 14.593,-16.131 22.272,-22.248c25.407,8.235 51.459,13.708 77.782,16.351c7.509,19.859 12.289,40.616 12.34,61.932c-24.628,3.474 -40.748,12.42 -39.222,25.485c1.983,17.08 29.51,35.363 62.494,35.651c32.984,0.288 61.053,-17.826 63.816,-35.194c2.152,-13.522 -13.865,-22.705 -38.866,-26.111c0.864,-14.183 5.102,-27.755 9.797,-40.989c2.407,-6.659 5.39,-13.911 8.746,-21.35c25.56,-2.948 50.985,-8.607 75.918,-17.012c13.052,13.606 21.848,32.398 32.442,43.53c-13.763,7.846 -21.594,16.758 -18.238,22.926c4.339,7.964 23.899,8.998 43.425,1.068c19.527,-7.947 32.968,-22.469 30.798,-31.381c-1.712,-6.982 -13.543,-7.93 -29.018,-3.745c0.678,-7.524 -0.712,-16.216 -4.83,-23.943c-1.153,-10.285 -1.289,-21.993 -0.187,-31.669c1.932,-0.999 3.865,-2.033 5.78,-3.067c18.39,-10.031 35.781,-21.35 52.036,-33.787c20.34,10.167 40.188,21.604 60.867,30.348c-15.815,20.113 -21.154,38.311 -10.238,46.885c13.933,10.946 46.815,4.931 70.392,-18.063c23.595,-22.994 30.442,-55.645 19.849,-69.811c-8.238,-10.98 -26.374,-6.252 -46.714,8.743c-8.848,-10.319 -15.068,-23.044 -22.899,-34.922c-3.288,-6.507 -6.577,-13.894 -9.696,-21.672c15.967,-18.876 29.985,-39.125 41.866,-60.475c19.815,-1.118 38.917,-1.236 55.206,6.27c-4.373,14.996 -3.661,26.467 3.17,28.297c8.864,2.372 23.746,-10.743 32.221,-30.059c8.458,-19.317 7.95,-38.871 0.119,-43.361c-6.153,-3.508 -15.441,4.355 -23.747,18.266c-7.441,-3.067 -14.017,-7.879 -20.526,-12.59c-7.95,-5.744 -16.119,-13.047 -22.153,-19.994c8.932,-24.603 15.204,-50.206 18.577,-76.453c20.356,-9.252 41.493,-15.928 63.816,-16.436c2.864,24.434 11.525,40.124 24.814,38.294c17.357,-2.372 36.035,-30.042 36.595,-63.016c0.542,-32.991 -16.848,-60.966 -33.747,-63.372c-13.137,-1.864 -22.544,14.657 -26.544,39.938c-13.56,-0.576 -26.848,-5.338 -40.357,-7.642c-7.102,-2.152 -14.882,-4.914 -22.832,-8.117c-0.881,-11.725 -2.22,-23.332 -4.085,-34.77c-1.932,-14.351 -4.796,-28.398 -8.491,-42.14c12.881,-15.962 27.526,-27.925 43.917,-34.974c7.356,13.692 15.729,21.249 21.627,17.707c7.73,-4.625 8.814,-24.569 1.204,-44.428c-7.611,-19.842 -21.526,-33.584 -30.001,-31.296c-6.323,1.711 -7.441,12.861 -4.136,27.636c-7.458,1.678 -14.848,6.541 -22.594,8.049c-9.848,1.576 -21.035,2.236 -30.374,1.559c-9.967,-21.333 -22.052,-41.548 -35.917,-60.475c10.001,-21.35 20.882,-42.344 28.628,-64.016c19.747,16.402 37.137,22.129 44.833,11.438c9.864,-13.675 2.644,-46.123 -20.289,-70.083c-22.933,-23.959 -54.341,-32.448 -67.426,-22.807c-10.086,7.422 -4.831,25.451 10.102,46.208c-10.374,9.065 -22.425,16.046 -32.985,23.654c-6.763,3.677 -14.526,7.439 -22.746,11.031c-18.645,-16.029 -38.815,-30.348 -60.121,-42.751c-1.695,-21.265 -2.763,-41.463 3.847,-58.153c10.255,1.966 20.527,1.152 28.764,-3.745c1.966,-8.624 -11.746,-23.536 -31.391,-32.397c-12.204,-4.813 -44.697,-13.963 -41.679,1.423c1.966,8.201 8.288,16.148 16.712,22.451c-2.881,6.609 -7.187,12.607 -11.441,18.656c-6.136,8.743 -14.221,17.944 -21.781,24.332c-25.068,-9.692 -51.103,-16.843 -77.63,-21.163c-9.339,-20.673 -16.254,-42.158 -17.814,-64.881c25.086,-2.558 40.985,-10.454 38.815,-22.688c-2.83,-15.996 -31.238,-32.991 -64.68,-33.686c-33.425,-0.694 -62.02,14.861 -64.715,30.466c-2.118,12.217 15.001,20.995 41.324,24.756c-0.508,13.708 -5.593,26.976 -8.678,39.921c-2.136,6.846 -4.848,14.403 -7.967,22.181c-25.068,1.762 -50.154,6.201 -74.85,13.606c-2.136,0.644 -4.254,1.305 -6.373,1.965c-16.119,-13.318 -27.95,-28.229 -34.612,-44.614c14.187,-7.676 22.188,-16.114 18.764,-21.757c-4.475,-7.388 -24.662,-7.845 -44.951,0.153c-20.289,7.98 -34.628,22.01 -32.696,30.364c1.458,6.219 12.61,7.015 27.645,3.321c1.441,7.49 6.119,14.928 7.39,22.892c1.356,10.709 1.661,23.146 0.559,33.381c-21.577,10.929 -42.035,23.806 -61.138,38.379c-21.102,-10.54 -41.866,-21.723 -63.527,-29.907c16.916,-20.74 23.407,-38.701 13.254,-45.937c-12.915,-9.217 -44.628,-0.677 -68.629,22.774c-24.001,23.451 -33.29,55.001 -24.408,68.201c6.865,10.201 24.374,4.558 44.951,-11.2c8.746,10.488 14.966,22.926 22.136,35.024c3.492,7.235 7.085,15.572 10.543,24.434c-16.272,19.825 -30.611,41.242 -42.68,63.965c-20.78,0.745 -40.391,0.762 -56.527,-7.371c4.509,-15.792 4.17,-27.772 -2.238,-29.466c-8.271,-2.186 -22.594,11.776 -31.035,31.855c-8.424,20.079 -8.407,40.294 -1.135,44.988c5.712,3.676 14.577,-4.525 22.696,-19.114c7.169,3.287 13.593,8.523 20.119,13.759c8.204,6.575 16.916,15.131 23.34,23.163c-4.136,12.471 -7.645,25.213 -10.441,38.176c-3.221,14.148 -5.492,28.365 -6.916,42.615c-20.204,7.642 -41.273,12.624 -62.816,12.624c-3.356,-25.231 -11.661,-41.667 -23.645,-39.955c-15.712,2.253 -32.035,30.381 -32.12,63.762c-0.101,33.397 16.323,62.169 32.341,65.388c12.509,2.525 20.916,-13.81 23.899,-39.65" style="fill:#8fe008;fill-rule:nonzero;"/><path id="path152" d="M815.692,457.623c6.814,69.845 -56.069,127.456 -119.004,143.231c-75.664,18.961 -145.124,-43.632 -152.26,-116.764c-7.136,-73.115 48.9,-147.958 126.801,-143.976c64.782,3.304 137.65,47.681 144.463,117.509" style="fill:#fff;fill-rule:nonzero;"/><path id="path154" d="M815.879,478.329c-0.187,1.983 -0.322,3.965 -0.526,5.965c-0.305,1.965 -0.525,3.965 -0.864,5.93c-0.424,1.966 -0.746,3.948 -1.237,5.88c-0.526,1.931 -0.933,3.914 -1.56,5.812c-2.271,7.709 -5.356,15.182 -9.102,22.316c-7.627,14.216 -17.848,26.975 -29.577,38.057c-1.475,1.389 -2.983,2.728 -4.475,4.083l-4.627,3.914l-4.797,3.711l-4.915,3.542c-6.628,4.609 -13.577,8.777 -20.781,12.471c-7.187,3.711 -14.627,6.93 -22.272,9.607c-7.644,2.677 -15.475,4.88 -23.56,6.236c-16.17,2.558 -32.866,1.593 -48.595,-2.813c-15.696,-4.423 -30.476,-11.997 -43.103,-22.18c-12.679,-10.116 -23.476,-22.452 -31.883,-36.177c-4.153,-6.896 -7.695,-14.148 -10.594,-21.621c-0.695,-1.88 -1.457,-3.727 -2.051,-5.642c-0.61,-1.915 -1.271,-3.796 -1.813,-5.727c-0.492,-1.932 -1.017,-3.864 -1.492,-5.795l-1.237,-5.863l0.339,-0.085c7.051,31.042 25.17,59.39 50.358,78.792c12.576,9.692 26.967,17.097 42.306,21.282c15.323,4.185 31.544,5.015 47.206,2.423c7.83,-1.254 15.526,-3.355 23.034,-5.931c7.526,-2.592 14.848,-5.71 21.95,-9.302c14.17,-7.168 27.442,-16.199 39.188,-26.908c11.746,-10.692 22.018,-23.095 29.798,-36.973c7.78,-13.826 12.984,-29.212 14.543,-45.038l0.339,0.034" style="fill-rule:nonzero;"/><path id="path156" d="M546.428,500.12c-1.593,-4.524 -2.814,-9.201 -3.831,-13.929c-0.898,-4.761 -1.61,-9.573 -2.034,-14.436c-0.83,-9.726 -0.373,-19.605 0.967,-29.399c1.474,-9.76 4.067,-19.401 7.559,-28.738c1.746,-4.676 3.814,-9.234 6.119,-13.691c1.186,-2.202 2.288,-4.456 3.61,-6.591c1.289,-2.169 2.543,-4.338 3.967,-6.422l2.084,-3.152c0.712,-1.033 1.475,-2.033 2.221,-3.067l2.254,-3.05l2.39,-2.948c0.797,-0.983 1.593,-1.965 2.458,-2.897l2.593,-2.796c1.695,-1.898 3.543,-3.626 5.373,-5.405c7.373,-7.015 15.594,-13.251 24.51,-18.419c8.932,-5.151 18.627,-9.014 28.645,-11.692c10.051,-2.592 20.441,-3.846 30.781,-3.812c5.22,0.068 10.237,0.373 15.254,0.966c1.255,0.152 2.509,0.271 3.746,0.44l3.746,0.559c2.492,0.339 4.967,0.848 7.424,1.322c9.848,2.033 19.526,4.795 28.832,8.472c9.322,3.677 18.34,8.066 26.95,13.149c4.305,2.559 8.509,5.287 12.56,8.218c2,1.508 3.983,3.033 5.949,4.592c1.916,1.627 3.865,3.169 5.712,4.863c3.729,3.355 7.356,6.812 10.729,10.523l2.526,2.779l2.424,2.88c1.644,1.881 3.085,3.948 4.576,5.965c5.882,8.116 10.831,16.893 14.475,26.179c7.187,18.588 9.323,38.955 5.289,57.78l-1.153,-0.102c1.78,-18.825 -1.729,-38.023 -9.746,-55.069l-0.746,-1.61l-0.813,-1.559l-1.628,-3.134c-1.118,-2.084 -2.373,-4.067 -3.559,-6.1c-1.322,-1.949 -2.576,-3.948 -3.949,-5.863l-2.119,-2.83l-1.051,-1.423l-1.119,-1.373c-5.915,-7.336 -12.644,-14.013 -19.933,-20.011c-14.576,-11.997 -31.391,-21.163 -49.103,-27.67c-8.865,-3.253 -17.984,-5.795 -27.255,-7.557c-9.255,-1.746 -18.696,-2.864 -28.086,-2.915c-18.814,-0.186 -37.629,4.507 -54.138,13.573c-16.526,9.048 -30.713,22.129 -41.646,37.481c-10.932,15.368 -18.678,32.99 -22.627,51.443c-3.967,18.435 -4.153,37.752 -0.068,56.221l-1.119,0.255" style="fill-rule:nonzero;"/><path id="path158" d="M747.215,472.128c0,44.072 -30.086,79.808 -67.206,79.808c-37.12,-0 -67.206,-35.736 -67.206,-79.808c0,-44.09 30.086,-79.826 67.206,-79.826c37.12,0 67.206,35.736 67.206,79.826" style="fill-rule:nonzero;"/><path id="path160" d="M701.247,472.128c0,11.708 -9.508,21.214 -21.238,21.214c-11.729,-0 -21.221,-9.506 -21.221,-21.214c0,-11.726 9.492,-21.232 21.221,-21.232c11.73,0 21.238,9.506 21.238,21.232" style="fill:#fff;fill-rule:nonzero;"/><path id="path162" d="M543.513,302.107c7.949,-7.167 16.865,-12.962 25.967,-18.469c9.187,-5.371 18.763,-10.065 28.628,-14.166c4.915,-2.067 9.933,-3.931 15.001,-5.625c5.068,-1.779 10.237,-3.203 15.407,-4.66c2.593,-0.678 5.203,-1.288 7.814,-1.915c2.627,-0.593 5.271,-1.101 7.915,-1.66c2.628,-0.559 5.306,-0.915 7.967,-1.339l4,-0.627c1.339,-0.186 2.678,-0.339 4.017,-0.491c2.695,-0.254 5.373,-0.61 8.068,-0.78c2.712,-0.186 5.407,-0.389 8.102,-0.525c2.712,-0.085 5.424,-0.068 8.136,-0.118c1.356,-0 2.695,-0.051 4.051,-0c1.356,0.033 2.712,0.118 4.068,0.169c5.424,0.169 10.831,0.729 16.221,1.339c5.373,0.83 10.746,1.559 16.017,2.88c21.154,4.677 41.341,13.759 58.037,26.891l-0.543,1.017l-7.017,-3.338l-3.509,-1.661l-3.61,-1.44l-7.221,-2.864l-7.373,-2.44c-1.237,-0.39 -2.441,-0.864 -3.695,-1.203l-7.492,-2.033c-1.237,-0.339 -2.491,-0.712 -3.762,-0.949l-7.594,-1.627c-1.254,-0.288 -2.526,-0.491 -3.814,-0.678l-7.661,-1.22c-1.271,-0.203 -2.576,-0.288 -3.865,-0.423c-2.559,-0.271 -5.135,-0.576 -7.712,-0.797c-5.169,-0.271 -10.339,-0.643 -15.509,-0.593c-2.593,-0.033 -5.169,-0.067 -7.763,0.068c-2.593,0.102 -5.169,0.153 -7.763,0.305l-7.729,0.593c-2.593,0.17 -5.153,0.559 -7.729,0.831c-10.272,1.203 -20.509,2.914 -30.611,5.235c-10.085,2.322 -20.086,5.134 -29.917,8.405c-9.848,3.27 -19.526,6.998 -29.035,11.132c-9.509,4.118 -18.916,8.608 -27.882,13.742l-0.61,-0.966" style="fill-rule:nonzero;"/><path id="path164" d="M184.296,457.623c-6.814,69.845 56.07,127.456 119.021,143.231c75.647,18.961 145.107,-43.632 152.243,-116.764c7.136,-73.115 -48.883,-147.958 -126.784,-143.976c-64.799,3.304 -137.667,47.681 -144.48,117.509" style="fill:#fff;fill-rule:nonzero;"/><path id="path166" d="M184.109,478.329c0.187,1.983 0.339,3.965 0.543,5.965c0.288,1.965 0.508,3.965 0.847,5.93c0.424,1.966 0.746,3.948 1.237,5.88c0.526,1.931 0.933,3.914 1.56,5.812c2.271,7.709 5.356,15.182 9.102,22.316c7.627,14.216 17.848,26.975 29.577,38.057c1.475,1.389 2.983,2.728 4.475,4.083l4.627,3.914l4.797,3.711l4.915,3.542c6.645,4.609 13.577,8.777 20.781,12.471c7.187,3.711 14.628,6.93 22.272,9.607c7.644,2.677 15.475,4.88 23.577,6.236c16.153,2.558 32.849,1.593 48.578,-2.813c15.696,-4.423 30.493,-11.997 43.104,-22.18c12.678,-10.116 23.475,-22.452 31.882,-36.177c4.153,-6.896 7.695,-14.148 10.594,-21.621c0.695,-1.88 1.457,-3.727 2.068,-5.642c0.593,-1.915 1.254,-3.796 1.796,-5.727c0.492,-1.932 1.017,-3.864 1.492,-5.795l1.237,-5.863l-0.339,-0.085c-7.051,31.042 -25.17,59.39 -50.358,78.792c-12.576,9.692 -26.967,17.097 -42.306,21.282c-15.323,4.185 -31.544,5.015 -47.205,2.423c-7.831,-1.254 -15.526,-3.355 -23.035,-5.931c-7.526,-2.592 -14.848,-5.71 -21.933,-9.302c-14.187,-7.168 -27.459,-16.199 -39.205,-26.908c-11.746,-10.692 -22.018,-23.095 -29.798,-36.973c-7.78,-13.826 -12.983,-29.212 -14.543,-45.038l-0.339,0.034" style="fill-rule:nonzero;"/><path id="path168" d="M453.56,500.12c1.593,-4.524 2.814,-9.201 3.848,-13.929c0.881,-4.761 1.593,-9.573 2.017,-14.436c0.83,-9.726 0.39,-19.605 -0.966,-29.399c-1.475,-9.76 -4.068,-19.401 -7.56,-28.738c-1.746,-4.676 -3.814,-9.234 -6.119,-13.691c-1.169,-2.202 -2.288,-4.456 -3.61,-6.591c-1.271,-2.169 -2.543,-4.338 -3.966,-6.422l-2.085,-3.152c-0.712,-1.033 -1.475,-2.033 -2.221,-3.067l-2.254,-3.05l-2.39,-2.948c-0.797,-0.983 -1.593,-1.965 -2.458,-2.897l-2.576,-2.796c-1.695,-1.898 -3.56,-3.626 -5.39,-5.405c-7.373,-7.015 -15.594,-13.251 -24.509,-18.419c-8.916,-5.151 -18.628,-9.014 -28.646,-11.692c-10.051,-2.592 -20.441,-3.846 -30.78,-3.812c-5.221,0.068 -10.238,0.373 -15.255,0.966c-1.238,0.152 -2.509,0.271 -3.746,0.44l-3.746,0.559c-2.492,0.339 -4.949,0.848 -7.424,1.322c-9.848,2.033 -19.526,4.795 -28.832,8.472c-9.322,3.677 -18.339,8.066 -26.95,13.149c-4.305,2.559 -8.509,5.287 -12.56,8.218c-2,1.508 -3.983,3.033 -5.949,4.592c-1.898,1.627 -3.865,3.169 -5.712,4.863c-3.729,3.355 -7.356,6.812 -10.729,10.523l-2.526,2.779l-2.424,2.88c-1.644,1.881 -3.085,3.948 -4.576,5.965c-5.865,8.116 -10.831,16.893 -14.475,26.179c-7.187,18.588 -9.323,38.955 -5.272,57.78l1.136,-0.102c-1.78,-18.825 1.729,-38.023 9.763,-55.069l0.729,-1.61l0.813,-1.559l1.628,-3.134c1.118,-2.084 2.39,-4.067 3.559,-6.1c1.322,-1.949 2.576,-3.948 3.966,-5.863l2.102,-2.83l1.051,-1.423l1.119,-1.373c5.932,-7.336 12.644,-14.013 19.933,-20.011c14.576,-11.997 31.391,-21.163 49.103,-27.67c8.865,-3.253 17.984,-5.795 27.256,-7.557c9.271,-1.746 18.695,-2.864 28.085,-2.915c18.815,-0.186 37.629,4.507 54.138,13.573c16.526,9.048 30.713,22.129 41.646,37.481c10.932,15.368 18.678,32.99 22.628,51.443c3.966,18.435 4.169,37.752 0.067,56.221l1.119,0.255" style="fill-rule:nonzero;"/><path id="path170" d="M252.773,472.128c-0,44.072 30.086,79.808 67.206,79.808c37.12,-0 67.206,-35.736 67.206,-79.808c-0,-44.09 -30.086,-79.826 -67.206,-79.826c-37.12,0 -67.206,35.736 -67.206,79.826" style="fill-rule:nonzero;"/><path id="path172" d="M298.758,472.128c-0,11.708 9.491,21.214 21.221,21.214c11.729,-0 21.221,-9.506 21.221,-21.214c-0,-11.726 -9.492,-21.232 -21.221,-21.232c-11.73,0 -21.221,9.506 -21.221,21.232" style="fill:#fff;fill-rule:nonzero;"/><path id="path174" d="M456.475,302.107c-7.949,-7.167 -16.865,-12.962 -25.967,-18.469c-9.186,-5.371 -18.763,-10.065 -28.628,-14.166c-4.915,-2.067 -9.932,-3.931 -15,-5.625c-5.051,-1.779 -10.221,-3.203 -15.391,-4.66c-2.61,-0.678 -5.22,-1.288 -7.831,-1.915c-2.627,-0.593 -5.271,-1.101 -7.915,-1.66c-2.627,-0.559 -5.305,-0.915 -7.967,-1.339l-4,-0.627c-1.339,-0.186 -2.678,-0.339 -4.017,-0.491c-2.695,-0.254 -5.373,-0.61 -8.068,-0.78c-2.695,-0.186 -5.407,-0.389 -8.102,-0.525c-2.712,-0.085 -5.424,-0.068 -8.119,-0.118c-1.356,-0 -2.712,-0.051 -4.068,-0c-1.356,0.033 -2.712,0.118 -4.068,0.169c-5.424,0.169 -10.831,0.729 -16.221,1.339c-5.373,0.83 -10.729,1.559 -16.017,2.88c-21.154,4.677 -41.341,13.759 -58.019,26.891l0.525,1.017l7.034,-3.338l3.509,-1.661l3.593,-1.44l7.221,-2.864l7.373,-2.44c1.237,-0.39 2.441,-0.864 3.695,-1.203l7.492,-2.033c1.237,-0.339 2.491,-0.712 3.763,-0.949l7.593,-1.627c1.254,-0.288 2.526,-0.491 3.814,-0.678l7.661,-1.22c1.288,-0.203 2.576,-0.288 3.865,-0.423c2.576,-0.271 5.135,-0.576 7.712,-0.797c5.17,-0.271 10.339,-0.643 15.509,-0.593c2.593,-0.033 5.187,-0.067 7.763,0.068c2.593,0.102 5.17,0.153 7.763,0.305l7.746,0.593c2.576,0.17 5.136,0.559 7.712,0.831c10.272,1.203 20.509,2.914 30.611,5.235c10.103,2.322 20.086,5.134 29.917,8.405c9.848,3.27 19.526,6.998 29.052,11.132c9.509,4.118 18.899,8.608 27.865,13.742l0.61,-0.966" style="fill-rule:nonzero;"/><path id="path176" d="M499.155,779.668c-27.645,0 -60.629,-6.388 -95.054,-26.975c-3.272,-1.966 -4.34,-6.185 -2.373,-9.455c1.949,-3.253 6.186,-4.321 9.441,-2.372c38.933,23.281 80.376,30.449 123.225,21.282c32.187,-6.879 53.154,-20.926 53.375,-21.062c3.135,-2.135 7.424,-1.322 9.559,1.813c2.136,3.152 1.339,7.422 -1.813,9.574c-0.916,0.627 -23.001,15.487 -57.664,23.027c-11.034,2.389 -24.136,4.168 -38.696,4.168" style="fill:#070707;fill-rule:nonzero;"/><path id="path178" d="M290.334,631.54c-4.797,0 -9.594,-0.271 -14.357,-0.864c-7.492,-0.966 -14.916,-2.592 -22.069,-4.981c-7.152,-2.39 -14.085,-5.372 -20.644,-9.015c-6.56,-3.609 -12.882,-7.642 -18.713,-12.268c-11.882,-9.014 -22.17,-19.808 -31.476,-31.194c-1.186,-1.407 -2.271,-2.898 -3.373,-4.372l-3.322,-4.405c-2.153,-2.983 -4.203,-6.016 -6.305,-9.015l-5.967,-9.234l-5.525,-9.489l0.39,-0.238c7.83,12.302 16.373,24.163 25.933,35.177c2.424,2.711 4.78,5.507 7.339,8.082l3.797,3.949l3.932,3.778l1.983,1.898c0.661,0.61 1.356,1.203 2.034,1.813l4.102,3.609c1.407,1.152 2.848,2.271 4.255,3.423l2.135,1.694l2.204,1.61c5.813,4.406 12.051,8.201 18.458,11.641c6.407,3.44 13.153,6.235 20.086,8.438c6.932,2.22 14.051,3.796 21.272,4.66c4.373,0.525 8.779,0.762 13.169,0.762c2.865,0 5.746,-0.101 8.611,-0.305c14.509,-0.999 28.781,-4.625 42.29,-10.048c12.644,-5.049 24.645,-11.624 36.001,-19.164c7.95,-3.456 15.526,-7.743 22.526,-12.81c-5.813,4.999 -11.864,9.743 -18.119,14.234c-6.017,4.303 -12.255,8.319 -18.746,11.945c-6.475,3.643 -13.153,6.948 -20.052,9.811c-13.797,5.677 -28.527,9.506 -43.595,10.607c-2.746,0.187 -5.509,0.271 -8.254,0.271m140.683,-79.299c1.746,-2.474 3.39,-4.982 4.966,-7.558c0.085,-0.135 0.17,-0.288 0.271,-0.44c2.187,-2.542 4.323,-5.151 6.39,-7.795l0.373,0.272c-3.813,5.303 -7.814,10.488 -12,15.521" style="fill:#466f04;fill-rule:nonzero;"/><path id="path180" d="M394.609,584.35c6.322,-5.032 12.441,-10.336 18.339,-15.86c4.458,-4.168 8.814,-8.489 13.018,-12.911c-6.865,8.624 -14.747,16.436 -23.493,23.163c-2.542,1.965 -5.169,3.846 -7.864,5.608" style="fill:#7e7e7e;fill-rule:nonzero;"/><path id="path182" d="M376.574,597.482c0.797,-0.508 1.576,-1.05 2.356,-1.576c5.373,-3.643 10.594,-7.506 15.679,-11.556c2.695,-1.762 5.322,-3.643 7.864,-5.608c8.746,-6.727 16.628,-14.539 23.493,-23.163c0.813,-0.848 1.627,-1.712 2.424,-2.559c2.678,-2.88 5.305,-5.795 7.864,-8.777c-0.101,0.152 -0.186,0.305 -0.271,0.44c-1.576,2.576 -3.22,5.084 -4.966,7.558c-9.678,11.64 -20.357,22.519 -31.917,32.431c-7,5.067 -14.576,9.354 -22.526,12.81" style="fill-rule:nonzero;"/><path id="path184" d="M275.638,662.938c-3.542,0 -7.085,-0.169 -10.627,-0.542c-13.526,-1.372 -26.764,-5.507 -38.68,-12.047c-11.95,-6.49 -22.611,-15.182 -31.832,-25.129c-4.627,-4.981 -8.881,-10.285 -12.797,-15.826c-3.898,-5.558 -7.508,-11.319 -10.509,-17.419l0.306,-0.152c6.678,11.776 14.881,22.621 24.339,32.143c9.323,9.642 19.984,17.944 31.781,24.028c1.458,0.779 2.967,1.457 4.458,2.185c1.509,0.661 3.017,1.339 4.56,1.949c3.067,1.237 6.152,2.406 9.322,3.338c6.305,1.915 12.814,3.202 19.374,3.812c3.152,0.305 6.322,0.458 9.491,0.458c10.018,-0 20.035,-1.457 29.781,-3.965c6.424,-1.627 12.747,-3.728 18.95,-6.134c6.187,-2.474 12.255,-5.287 18.17,-8.37c11.882,-6.185 23.052,-13.692 34.019,-21.486c10.915,-7.879 21.322,-16.47 31.391,-25.484l3.813,-3.338l3.746,-3.423c2.509,-2.288 5,-4.558 7.424,-6.93c4.916,-4.643 9.712,-9.421 14.577,-14.166l0.254,0.237c-18.373,19.927 -37.95,38.871 -59.595,55.239c-10.848,8.15 -22.171,15.708 -34.154,22.113c-5.983,3.185 -12.136,6.083 -18.424,8.658c-6.306,2.508 -12.747,4.694 -19.323,6.405c-9.729,2.457 -19.764,3.846 -29.815,3.846" style="fill:#466f04;fill-rule:nonzero;"/><path id="path186" d="M365.557,805.407l-0.339,-0.085c3.661,-13.606 7.915,-27.043 13.085,-40.158c2.644,-6.524 5.458,-12.996 8.983,-19.13c1.831,-3.05 4.085,-5.812 6.424,-8.438c2.356,-2.627 4.814,-5.169 7.357,-7.609c10.22,-9.709 21.204,-18.571 32.34,-27.195c11.153,-8.591 22.526,-16.894 34.103,-24.926l0.186,0.289c-10.831,9.048 -21.797,17.859 -32.628,26.789c-5.373,4.507 -10.831,8.912 -16.086,13.538c-5.305,4.541 -10.559,9.15 -15.526,13.996c-2.508,2.373 -4.932,4.829 -7.254,7.354c-2.288,2.508 -4.424,5.168 -6.119,7.845c-3.509,5.762 -6.407,12.167 -9.254,18.504c-5.56,12.793 -10.425,25.976 -15.272,39.226" style="fill:#466f04;fill-rule:nonzero;"/><path id="path188" d="M710.095,627.897c-2.78,0 -5.576,-0.101 -8.356,-0.288c-14.628,-1.033 -28.967,-4.744 -42.527,-10.217c-13.577,-5.473 -26.391,-12.675 -38.459,-20.909c-0.271,-0.187 -0.543,-0.39 -0.814,-0.577c5.984,2.83 12.204,5.168 18.56,6.998c7.238,3.982 14.662,7.541 22.323,10.472c13.255,5.219 27.154,8.743 41.239,9.658c2.882,0.204 5.797,0.322 8.695,0.322c4.136,0 8.272,-0.22 12.391,-0.711c7,-0.797 13.881,-2.356 20.628,-4.406c13.542,-4.05 26.187,-10.895 37.882,-19.079l2.204,-1.542l2.118,-1.644c1.424,-1.084 2.865,-2.152 4.255,-3.287l4.119,-3.457c0.678,-0.593 1.373,-1.152 2.051,-1.745l6,-5.439l3.847,-3.813c2.628,-2.474 5.018,-5.185 7.526,-7.794c1.271,-1.305 2.458,-2.66 3.661,-4.016l3.594,-4.083c2.356,-2.762 4.627,-5.592 6.949,-8.405l6.644,-8.658l6.475,-8.812l0.39,0.238c-7.797,12.335 -16.34,24.247 -25.882,35.312c-2.424,2.728 -4.78,5.524 -7.34,8.133l-3.779,3.965l-3.95,3.796l-1.983,1.897c-0.661,0.627 -1.356,1.22 -2.034,1.83l-4.119,3.627c-1.389,1.186 -2.83,2.304 -4.254,3.456l-2.136,1.712l-2.22,1.626c-5.814,4.423 -12.068,8.269 -18.509,11.743c-6.441,3.473 -13.221,6.303 -20.187,8.557c-6.967,2.236 -14.153,3.829 -21.425,4.727c-4.492,0.559 -9.034,0.813 -13.577,0.813m-144.954,-81.384c-2.78,-3.185 -5.475,-6.438 -8.085,-9.793l0.372,-0.272c1.628,1.83 3.272,3.66 4.95,5.457c0.525,0.932 1.068,1.863 1.627,2.778c0.373,0.61 0.746,1.22 1.136,1.83" style="fill:#466f04;fill-rule:nonzero;"/><path id="path190" d="M624.889,594.822c-9.119,-3.88 -17.747,-8.879 -25.696,-14.809c-4.255,-3.576 -8.407,-7.287 -12.458,-11.099c-2.933,-2.762 -5.814,-5.575 -8.645,-8.455c-3.237,-3.711 -6.288,-7.591 -9.119,-11.624c6.238,6.371 12.696,12.505 19.425,18.317c5.458,4.778 11.034,9.404 16.78,13.792c5.746,4.372 11.577,8.625 17.628,12.539c0.695,0.458 1.39,0.898 2.085,1.339" style="fill:#7e7e7e;fill-rule:nonzero;"/><path id="path192" d="M638.499,602.904c-6.356,-1.83 -12.576,-4.168 -18.56,-6.998c-7.169,-4.947 -14.085,-10.268 -20.746,-15.893c7.949,5.93 16.577,10.929 25.696,14.809c4.474,2.83 9,5.541 13.61,8.082m-60.409,-42.445c-2.288,-2.322 -4.559,-4.694 -6.78,-7.1c-2.085,-2.254 -4.152,-4.524 -6.169,-6.846c-0.39,-0.61 -0.763,-1.22 -1.136,-1.83c-0.559,-0.915 -1.102,-1.846 -1.627,-2.778c2.169,2.338 4.356,4.659 6.593,6.93c2.831,4.033 5.882,7.913 9.119,11.624" style="fill-rule:nonzero;"/><path id="path194" d="M723.825,665.531c-10.069,-0 -20.137,-1.356 -29.883,-3.762c-6.695,-1.796 -13.238,-4.049 -19.628,-6.625c-6.373,-2.643 -12.577,-5.626 -18.628,-8.896c-1.542,-0.779 -3,-1.677 -4.491,-2.508c-1.492,-0.864 -3,-1.677 -4.458,-2.592c-2.898,-1.83 -5.865,-3.558 -8.678,-5.49l-4.272,-2.847c-1.407,-0.966 -2.813,-1.965 -4.186,-2.982c-1.373,-1.017 -2.763,-1.999 -4.119,-3.033l-4.051,-3.152c-10.746,-8.438 -20.95,-17.503 -30.679,-27.009l-3.611,-3.609l-3.542,-3.677c-2.356,-2.44 -4.712,-4.88 -6.983,-7.405c-2.289,-2.525 -4.628,-4.965 -6.848,-7.54l-6.644,-7.727l0.254,-0.237c18.407,19.876 38.001,38.769 59.663,55.069c10.831,8.117 22.153,15.623 34.12,21.977c5.983,3.169 12.102,6.066 18.374,8.608c6.288,2.474 12.712,4.643 19.272,6.337c9.746,2.474 19.797,3.881 29.865,3.881c3.441,-0 6.899,-0.153 10.339,-0.509c13.442,-1.338 26.612,-5.422 38.493,-11.895c11.899,-6.456 22.561,-15.08 31.764,-24.993c4.628,-4.931 8.882,-10.217 12.797,-15.741c3.899,-5.524 7.509,-11.285 10.509,-17.351l0.305,0.152c-1.356,3.135 -2.915,6.151 -4.542,9.133c-1.678,2.983 -3.458,5.88 -5.339,8.727c-3.763,5.693 -7.882,11.166 -12.391,16.334c-9.102,10.235 -19.763,19.232 -31.831,26.094c-1.492,0.865 -3.051,1.644 -4.577,2.474c-1.559,0.746 -3.119,1.525 -4.695,2.237c-3.203,1.373 -6.441,2.609 -9.78,3.66c-6.627,2.101 -13.475,3.541 -20.407,4.287c-3.814,0.424 -7.645,0.61 -11.492,0.61" style="fill:#466f04;fill-rule:nonzero;"/><path id="path196" d="M644.855,805.407c-3.695,-13.572 -8,-26.992 -13.237,-40.04c-2.644,-6.506 -5.492,-12.962 -9.018,-19.028c-1.813,-2.982 -4.034,-5.71 -6.373,-8.32c-2.356,-2.592 -4.813,-5.1 -7.356,-7.523c-10.153,-9.743 -21.085,-18.639 -32.171,-27.281c-11.119,-8.641 -22.458,-16.995 -33.984,-25.06l0.186,-0.289c12.255,7.049 24.018,14.895 35.459,23.197c5.746,4.101 11.306,8.473 16.849,12.895c5.491,4.49 10.864,9.133 16.051,14.047c2.559,2.491 5.051,5.083 7.458,7.777c2.39,2.745 4.729,5.558 6.678,8.913c0.932,1.644 1.661,3.22 2.509,4.846l2.271,4.88l2.068,4.931l1.898,4.999c2.458,6.676 4.526,13.454 6.39,20.282c1.797,6.846 3.475,13.708 4.661,20.689l-0.339,0.085" style="fill:#466f04;fill-rule:nonzero;"/><path id="path198" d="M505.647,579.487l-0,133.234l-32.307,-26.01c0,0 -14.746,13.573 32.307,-107.224" style="fill:#9be213;fill-rule:nonzero;"/><path id="path200" d="M505.647,579.487l-0,133.234l32.306,-26.01c0,0 14.746,13.573 -32.306,-107.224" style="fill:#7fc100;fill-rule:nonzero;"/></svg>