<?xml version="1.0" encoding="UTF-8" standalone="no"?><!DOCTYPE svg PUBLIC "-//W3C//DTD SVG 1.1//EN" "http://www.w3.org/Graphics/SVG/1.1/DTD/svg11.dtd"><svg width="100%" height="100%" viewBox="0 0 1000 1000" version="1.1" xmlns="http://www.w3.org/2000/svg" xmlns:xlink="http://www.w3.org/1999/xlink" xml:space="preserve" xmlns:serif="http://www.serif.com/" style="fill-rule:evenodd;clip-rule:evenodd;stroke-linejoin:round;stroke-miterlimit:2;"><path id="path58" d="M56.235,523.173c13.95,0.983 27.916,5.558 40.595,11.099c7.153,2.711 15.034,6.049 23.204,9.828c3.509,26.45 9.848,52.477 18.798,77.589c-14.475,12.675 -33.883,22.045 -44.9,32.348c-8.187,-14.132 -17.154,-22.35 -23.001,-19.199c-7.56,4.067 -7.831,23.655 0.542,43.464c8.373,19.791 22.967,33.787 31.662,32.042c6.814,-1.373 7.373,-13.064 2.729,-28.704c7.509,1.186 16.238,0.22 24.171,-3.931c11.085,-0.831 23.933,-0.543 34.442,0.999c11.204,20.402 24.221,39.854 38.9,58.002c-11.238,19.656 -23.594,38.583 -31.459,59.052c-20.764,-15.979 -39.154,-21.96 -47.036,-11.827c-10.068,12.912 -2.509,44.581 20.831,68.084c23.357,23.502 55.681,31.347 69.664,21.706c10.78,-7.422 5.831,-24.621 -9.525,-44.395c11.119,-8.422 24.543,-14.42 36.052,-21.791c7.102,-3.169 15.221,-6.388 23.798,-9.472c11.593,9.048 23.746,17.453 36.425,25.129c8.627,5.253 17.407,10.133 26.323,14.657c0.322,19.402 -0.203,38.092 -8.56,54.02c-15.441,-4.152 -27.357,-3.457 -29.289,3.083c-2.509,8.473 10.831,22.757 30.442,30.857c19.611,8.116 39.561,7.472 44.358,-0.17c3.763,-5.998 -4.017,-14.843 -18.103,-22.689c3.424,-7.252 8.679,-13.691 13.899,-20.113c6.407,-7.913 14.594,-16.148 22.272,-22.248c25.391,8.235 51.46,13.708 77.783,16.351c7.492,19.859 12.289,40.617 12.323,61.916c-24.611,3.491 -40.748,12.438 -39.222,25.502c2,17.08 29.526,35.347 62.511,35.635c32.967,0.288 61.053,-17.809 63.816,-35.195c2.136,-13.504 -13.865,-22.688 -38.883,-26.111c0.881,-14.183 5.102,-27.756 9.797,-40.973c2.424,-6.659 5.39,-13.911 8.763,-21.35c25.544,-2.948 50.968,-8.608 75.902,-17.012c13.068,13.606 21.848,32.398 32.459,43.531c-13.781,7.845 -21.594,16.758 -18.238,22.926c4.322,7.964 23.882,8.997 43.408,1.05c19.527,-7.93 32.985,-22.451 30.815,-31.364c-1.712,-6.982 -13.543,-7.93 -29.018,-3.745c0.661,-7.54 -0.729,-16.233 -4.831,-23.943c-1.152,-10.302 -1.288,-21.994 -0.186,-31.67c1.932,-0.999 3.847,-2.033 5.763,-3.067c18.407,-10.031 35.781,-21.35 52.053,-33.787c20.323,10.15 40.171,21.604 60.867,30.348c-15.814,20.113 -21.171,38.312 -10.238,46.886c13.933,10.946 46.799,4.931 70.393,-18.063c23.594,-22.994 30.442,-55.664 19.831,-69.813c-8.22,-10.98 -26.357,-6.252 -46.714,8.727c-8.847,-10.302 -15.051,-23.028 -22.899,-34.906c-3.271,-6.524 -6.559,-13.895 -9.678,-21.672c15.967,-18.877 29.984,-39.126 41.866,-60.493c19.797,-1.101 38.917,-1.22 55.206,6.287c-4.39,14.996 -3.662,26.467 3.169,28.297c8.865,2.355 23.747,-10.76 32.205,-30.06c8.475,-19.317 7.966,-38.871 0.119,-43.361c-6.136,-3.525 -15.425,4.355 -23.73,18.266c-7.458,-3.067 -14.018,-7.896 -20.526,-12.59c-7.95,-5.744 -16.12,-13.047 -22.171,-19.994c8.95,-24.604 15.221,-50.208 18.594,-76.455c20.34,-9.252 41.493,-15.928 63.816,-16.453c2.865,24.451 11.509,40.142 24.798,38.312c17.357,-2.389 36.052,-30.043 36.595,-63.035c0.559,-32.974 -16.831,-60.95 -33.73,-63.356c-13.137,-1.864 -22.544,14.657 -26.561,39.939c-13.543,-0.593 -26.831,-5.338 -40.341,-7.642c-7.118,-2.152 -14.898,-4.914 -22.831,-8.117c-0.881,-11.725 -2.22,-23.332 -4.102,-34.787c-1.915,-14.335 -4.78,-28.382 -8.475,-42.125c12.865,-15.962 27.527,-27.924 43.917,-34.99c7.357,13.708 15.713,21.265 21.628,17.724c7.729,-4.626 8.814,-24.57 1.204,-44.429c-7.628,-19.842 -21.527,-33.585 -30.018,-31.297c-6.323,1.694 -7.441,12.861 -4.136,27.62c-7.441,1.694 -14.831,6.557 -22.577,8.048c-9.848,1.593 -21.052,2.237 -30.392,1.576c-9.949,-21.333 -22.034,-41.565 -35.899,-60.492c10,-21.334 20.865,-42.328 28.611,-64c19.747,16.402 37.154,22.129 44.849,11.437c9.848,-13.674 2.645,-46.123 -20.289,-70.083c-22.95,-23.96 -54.341,-32.449 -67.426,-22.807c-10.085,7.421 -4.848,25.45 10.102,46.208c-10.39,9.065 -22.425,16.046 -32.985,23.655c-6.763,3.677 -14.526,7.438 -22.746,11.031c-18.645,-16.03 -38.815,-30.348 -60.121,-42.752c-1.695,-21.282 -2.763,-41.464 3.847,-58.154c10.238,1.965 20.526,1.152 28.764,-3.745c1.949,-8.625 -11.746,-23.536 -31.391,-32.398c-12.204,-4.812 -44.697,-13.98 -41.68,1.423c1.966,8.201 8.272,16.148 16.713,22.435c-2.882,6.625 -7.187,12.624 -11.441,18.673c-6.136,8.743 -14.238,17.944 -21.798,24.333c-25.052,-9.693 -51.087,-16.843 -77.63,-21.164c-9.323,-20.673 -16.238,-42.159 -17.798,-64.899c25.069,-2.541 40.985,-10.437 38.816,-22.672c-2.831,-15.995 -31.239,-32.991 -64.681,-33.686c-33.442,-0.694 -62.02,14.861 -64.732,30.467c-2.102,12.217 15.018,20.994 41.341,24.756c-0.509,13.708 -5.593,26.976 -8.678,39.922c-2.136,6.846 -4.848,14.403 -7.967,22.18c-25.069,1.763 -50.154,6.202 -74.85,13.607c-2.136,0.644 -4.255,1.288 -6.374,1.966c-16.119,-13.319 -27.95,-28.23 -34.628,-44.616c14.204,-7.676 22.204,-16.114 18.78,-21.774c-4.474,-7.388 -24.679,-7.828 -44.968,0.17c-20.289,7.981 -34.628,22.011 -32.679,30.365c1.441,6.218 12.611,7.015 27.645,3.321c1.441,7.489 6.102,14.928 7.373,22.875c1.373,10.726 1.678,23.164 0.577,33.398c-21.578,10.93 -42.036,23.807 -61.139,38.38c-21.102,-10.54 -41.866,-21.74 -63.528,-29.924c16.916,-20.724 23.408,-38.685 13.255,-45.921c-12.933,-9.217 -44.629,-0.694 -68.63,22.774c-24.018,23.452 -33.289,55.003 -24.408,68.203c6.848,10.183 24.374,4.558 44.951,-11.201c8.747,10.489 14.95,22.926 22.137,35.025c3.492,7.235 7.085,15.572 10.543,24.434c-16.289,19.825 -30.612,41.243 -42.68,63.966c-20.798,0.746 -40.409,0.763 -56.528,-7.371c4.509,-15.792 4.153,-27.772 -2.237,-29.467c-8.289,-2.185 -22.611,11.777 -31.035,31.856c-8.425,20.08 -8.425,40.295 -1.136,44.989c5.695,3.66 14.577,-4.525 22.679,-19.114c7.17,3.287 13.594,8.523 20.119,13.759c8.221,6.575 16.933,15.132 23.357,23.164c-4.152,12.471 -7.644,25.213 -10.458,38.176c-3.203,14.132 -5.475,28.365 -6.898,42.616c-20.222,7.625 -41.273,12.607 -62.817,12.624c-3.373,-25.231 -11.661,-41.667 -23.662,-39.956c-15.704,2.254 -32.02,30.382 -32.115,63.763c-0.095,33.398 16.333,62.17 32.353,65.39c12.509,2.524 20.916,-13.81 23.882,-39.651" style="fill:#63ad1a;fill-rule:nonzero;"/><path id="path60" d="M561.629,517.581l221.705,-99.143l-46.867,108.598l-145.362,0l-29.476,-9.455" style="fill:#fff;fill-rule:nonzero;"/><path id="path70" d="M715.924,499.993c-0,25.298 -14.848,45.818 -33.171,45.818c-18.323,0 -33.188,-20.52 -33.188,-45.818c0,-25.282 14.865,-45.802 33.188,-45.802c18.323,0 33.171,20.52 33.171,45.802" style="fill-rule:nonzero;"/><path id="path72" d="M520.543,488.08c-0,0 164.108,-195.795 303.352,-58.933c-0,-0 -102.784,-288.551 -303.352,58.933" style="fill:#325407;fill-rule:nonzero;"/><path id="path74" d="M411.708,505.652l-168.821,-75.505c-9.306,-4.152 -18.865,5.286 -14.831,14.64l32.577,75.488c1.763,4.101 5.797,6.761 10.272,6.761l136.243,0c1.153,0 2.305,-0.186 3.407,-0.525c9.78,-3.135 10.526,-16.674 1.153,-20.859" style="fill:#fff;fill-rule:nonzero;"/><path id="path84" d="M284.075,499.993c0,25.298 14.865,45.818 33.188,45.818c18.323,0 33.171,-20.52 33.171,-45.818c-0,-25.282 -14.848,-45.802 -33.171,-45.802c-18.323,0 -33.188,20.52 -33.188,45.802" style="fill-rule:nonzero;"/><path id="path86" d="M479.456,488.08c0,0 -164.091,-195.795 -303.335,-58.933c0,-0 102.767,-288.551 303.335,58.933" style="fill:#325407;fill-rule:nonzero;"/><path id="path88" d="M288.584,674.269c-8.492,-23.503 -21.069,-68.44 63.647,-36.262c79.478,30.162 277.045,22.757 332.387,-0.254c71.63,-29.823 42.205,87.638 -12.137,115.851c-76.698,39.786 -126.022,42.226 -163.21,39.65c-52.816,-3.643 -181.482,-10.522 -220.687,-118.985" style="fill:#060a01;fill-rule:nonzero;"/><path id="path90" d="M397.605,774.395c42.494,14.555 86.021,17.097 111.666,18.859c28.34,1.966 63.732,1 112.903,-17.165c-6.441,-5.93 -13.509,-11.149 -21.543,-15.301c-63.342,-34.008 -145.277,-29.755 -203.026,13.607" style="fill:#416b0b;fill-rule:nonzero;"/><path id="path92" d="M509.271,511.566c0,-0 -45.137,87.621 -69.155,92.806c-18.866,4.067 50.29,125.746 69.155,121.68l0,-214.486" style="fill:#63ad1a;fill-rule:nonzero;"/><path id="path94" d="M509.271,511.566c0,-0 69.173,77.115 69.173,92.806c-0,21.723 -69.173,121.68 -69.173,121.68l0,-214.486" style="fill:#72ad31;fill-rule:nonzero;"/><path id="path96" d="M363.604,642.209c-0,0 -5.119,16.149 5.221,47.734l27.255,-40.837l-32.476,-6.897" style="fill:#fff;fill-rule:nonzero;"/><path id="path98" d="M670.075,642.209c-0,0 -2.306,20.876 -21.273,52.19l-21.746,-43.514l43.019,-8.676" style="fill:#fff;fill-rule:nonzero;"/></svg>