<?xml version="1.0" encoding="UTF-8" standalone="no"?><!DOCTYPE svg PUBLIC "-//W3C//DTD SVG 1.1//EN" "http://www.w3.org/Graphics/SVG/1.1/DTD/svg11.dtd">
<svg width="100%" height="100%" viewBox="0 0 1000 1000" version="1.1" xmlns="http://www.w3.org/2000/svg"
     xml:space="preserve"
     style="fill-rule:evenodd;clip-rule:evenodd;stroke-linejoin:round;stroke-miterlimit:2;"><path id="path268" d="M956.535,440.542c-17.808,-1.356 -31.686,15.097 -37.023,39.752c-20.859,-0.102 -41.65,-3.864 -62.458,-6.846c-10.895,-1.745 -22.57,-3.897 -34.296,-6.337c-0.39,-3.881 -0.847,-7.744 -1.372,-11.573c11.064,-3.169 22.129,-6.27 32.889,-9.93c3.643,7.117 9.015,11.234 14.132,9.947c7.371,-1.83 11.573,-13.353 9.285,-25.756c-2.287,-12.403 -10.319,-21.689 -17.876,-20.842c-4.999,0.576 -8.438,5.778 -9.506,13.115c-8.15,2.034 -20.605,3.643 -34.16,4.643c-2.017,-8.828 -4.406,-17.521 -7.134,-26.061c21.74,-17.097 45.954,-31.313 71.828,-41.107c8.625,12.522 19.995,18.825 28.958,14.555c11.709,-5.574 15.403,-25.84 7.524,-45.14c-7.862,-19.283 -24.688,-31.245 -36.99,-27.111c-9.184,3.084 -12.98,14.894 -10.777,29.314c-11.285,3.203 -23.18,9.794 -34.99,13.03c-15.081,3.881 -31.771,7.168 -45.039,8.659c-1.661,-3.287 -3.372,-6.541 -5.134,-9.743c13.115,-10.455 26.789,-20.198 41.209,-28.924c9.116,7.201 18.503,9.268 24.722,4.337c9.54,-7.574 9.015,-27.179 -1.711,-43.767c-10.709,-16.589 -28.366,-25.112 -39.193,-19.537c-7.219,3.711 -9.116,13.454 -6.032,25.027c-13.726,10.133 -28.552,17.673 -43.65,24.908c-1.287,-1.711 -2.609,-3.423 -3.931,-5.1c18.86,-26.688 39.108,-52.426 58.425,-78.673c21.028,13.945 42.463,16.063 54.274,2.66c15.114,-17.148 10.692,-51.647 -12.624,-75.268c-23.316,-23.637 -57.764,-28.5 -75.098,-13.623c-13.488,11.556 -11.743,32.838 1.711,53.934c-15.182,14.742 -32.889,26.4 -48.8,39.667c-8.93,6.473 -18.724,13.217 -28.738,19.775c-2.898,-2.339 -5.829,-4.643 -8.795,-6.897c5.643,-10.065 11.98,-19.74 18.995,-28.89c7.032,1.949 13.115,0.932 15.657,-3.355c3.88,-6.541 -1.288,-17.673 -11.658,-24.858c-10.37,-7.184 -22.587,-8.082 -27.297,-2.118c-3.135,3.965 -1.847,10.167 2.643,16.148c-4.304,7.219 -11.912,17.182 -20.706,27.484c-7.303,-4.642 -14.776,-9.014 -22.418,-13.098c4.151,-27.823 8.76,-55.391 20.791,-80.52c15.064,2.897 27.653,-0.661 30.958,-10.116c4.287,-12.251 -7.439,-29.229 -26.637,-37.363c-19.181,-8.116 -39.481,-4.693 -45.225,6.931c-4.491,9.116 2.05,20.892 15.03,29.754c-4.592,11.387 -10.964,22.028 -17.165,32.703c-7.778,13.319 -17.063,27.349 -25.265,37.77c-3.693,-1.288 -7.404,-2.508 -11.132,-3.661c1.559,-16.741 3.101,-33.516 4.033,-50.325c12.64,-0.932 21.689,-6.252 22.655,-14.606c1.372,-12.098 -12.844,-25.603 -32.161,-29.754c-19.3,-4.152 -37.82,2.304 -41.531,13.911c-2.44,7.659 2.965,15.809 13.166,21.791c-2.661,16.3 -7.659,32.245 -12.98,48.173c-3.05,-0.475 -6.1,-0.898 -9.167,-1.271c-6.439,-31.534 -10.302,-63.66 -10.184,-95.872c23.96,-5.236 39.99,-18.707 38.888,-36.193c-1.457,-22.808 -28.975,-44.09 -62.169,-44.293c-33.195,-0.221 -60.984,20.672 -62.729,43.462c-1.373,17.809 15.097,31.687 39.752,37.024c-0.102,20.859 -3.864,41.65 -6.863,62.458c-1.643,10.336 -3.66,21.383 -5.964,32.516c-4.152,0.407 -8.303,0.881 -12.421,1.457c-2.999,-10.488 -5.981,-20.977 -9.455,-31.195c7.134,-3.643 11.235,-9.014 9.964,-14.131c-1.847,-7.371 -13.353,-11.573 -25.756,-9.286c-12.403,2.288 -21.706,10.319 -20.842,17.877c0.559,4.998 5.778,8.438 13.098,9.505c1.966,7.829 3.525,19.639 4.541,32.585c-9.099,2.135 -18.062,4.642 -26.857,7.54c-16.69,-21.452 -30.585,-45.242 -40.209,-70.659c12.539,-8.624 18.842,-19.994 14.555,-28.975c-5.575,-11.691 -25.823,-15.385 -45.123,-7.506c-19.3,7.862 -31.246,24.688 -27.111,36.99c3.067,9.184 14.877,12.962 29.314,10.776c3.185,11.269 9.777,23.181 13.013,34.974c3.813,14.759 7.032,31.042 8.574,44.157c-3.406,1.763 -6.795,3.559 -10.133,5.439c-10.268,-12.928 -19.842,-26.416 -28.433,-40.615c7.202,-9.117 9.269,-18.504 4.321,-24.723c-7.574,-9.539 -27.179,-9.014 -43.768,1.712c-16.588,10.709 -25.112,28.365 -19.52,39.193c3.711,7.218 13.437,9.099 25.01,6.032c10.032,13.589 17.521,28.229 24.689,43.157c-1.797,1.356 -3.559,2.712 -5.321,4.118c-26.518,-18.775 -52.121,-38.905 -78.233,-58.12c13.945,-21.028 16.08,-42.48 2.677,-54.273c-17.165,-15.114 -51.647,-10.692 -75.284,12.624c-23.621,23.315 -28.501,57.747 -13.624,75.098c11.573,13.488 32.856,11.742 53.935,-1.712c14.741,15.183 26.416,32.89 39.667,48.8c6.354,8.761 12.962,18.351 19.418,28.179c-2.423,2.965 -4.812,5.965 -7.133,9.015c-9.845,-5.558 -19.334,-11.777 -28.298,-18.656c1.966,-7.032 0.932,-13.115 -3.338,-15.657c-6.54,-3.88 -17.69,1.288 -24.874,11.658c-7.168,10.37 -8.066,22.587 -2.102,27.297c3.965,3.135 10.15,1.847 16.149,-2.643c7.082,4.236 16.826,11.641 26.924,20.232c-4.744,7.405 -9.217,14.996 -13.369,22.773c-27.535,-4.134 -54.815,-8.76 -79.69,-20.672c2.881,-15.064 -0.678,-27.653 -10.133,-30.958c-12.234,-4.287 -29.229,7.439 -37.346,26.62c-8.116,19.198 -4.693,39.498 6.931,45.225c9.116,4.507 20.875,-2.033 29.754,-15.03c11.387,4.609 22.028,10.963 32.686,17.182c13.098,7.625 26.857,16.724 37.228,24.824c-1.322,3.812 -2.593,7.642 -3.762,11.505c-16.538,-1.542 -33.093,-3.05 -49.665,-3.965c-0.949,-12.641 -6.252,-21.689 -14.623,-22.655c-12.098,-1.389 -25.586,12.844 -29.738,32.161c-4.151,19.3 2.305,37.82 13.912,41.531c7.659,2.44 15.792,-2.982 21.791,-13.166c16.182,2.643 32.008,7.591 47.817,12.861c-0.457,3.101 -0.881,6.218 -1.237,9.353c-31.432,6.405 -63.44,10.235 -95.567,10.116c-5.219,-23.959 -18.69,-39.989 -36.194,-38.888c-22.805,1.458 -44.072,28.959 -44.289,62.17c-0.219,33.194 20.684,60.983 43.476,62.728c17.809,1.373 31.669,-15.097 37.007,-39.751c20.876,0.101 41.65,3.863 62.458,6.862c10.353,1.644 21.401,3.66 32.516,5.948c0.424,4.168 0.898,8.319 1.474,12.437c-10.505,2.999 -20.994,5.964 -31.212,9.455c-3.626,-7.134 -8.997,-11.251 -14.131,-9.964c-7.371,1.847 -11.573,13.353 -9.286,25.756c2.288,12.403 10.319,21.706 17.877,20.842c4.998,-0.559 8.455,-5.778 9.522,-13.115c7.829,-1.949 19.639,-3.508 32.568,-4.524c2.135,9.099 4.643,18.062 7.54,26.857c-21.452,16.69 -45.242,30.584 -70.642,40.209c-8.641,-12.539 -19.994,-18.842 -28.975,-14.555c-11.692,5.574 -15.385,25.823 -7.523,45.123c7.862,19.283 24.705,31.245 36.99,27.111c9.184,-3.067 12.979,-14.894 10.793,-29.314c11.269,-3.186 23.181,-9.777 34.974,-13.013c14.742,-3.813 31.042,-7.032 44.158,-8.574c1.762,3.406 3.558,6.794 5.439,10.133c-12.946,10.268 -26.417,19.842 -40.633,28.432c-9.116,-7.201 -18.487,-9.268 -24.705,-4.337c-9.54,7.591 -9.015,27.196 1.694,43.784c10.726,16.572 28.382,25.112 39.21,19.52c7.201,-3.711 9.099,-13.437 6.015,-25.027c13.59,-10.014 28.247,-17.503 43.158,-24.671c1.355,1.796 2.728,3.558 4.117,5.321c-18.757,26.518 -38.904,52.121 -58.12,78.232c-21.028,-13.962 -42.463,-16.08 -54.273,-2.677c-15.098,17.165 -10.692,51.647 12.641,75.285c23.315,23.62 57.747,28.5 75.098,13.623c13.471,-11.573 11.726,-32.855 -1.728,-53.934c15.182,-14.759 32.906,-26.417 48.8,-39.667c8.777,-6.372 18.368,-12.98 28.179,-19.419c2.965,2.423 5.981,4.795 9.031,7.134c-5.558,9.845 -11.776,19.317 -18.673,28.297c-7.032,-1.965 -13.098,-0.932 -15.64,3.338c-3.88,6.541 1.288,17.69 11.658,24.858c10.37,7.184 22.587,8.082 27.298,2.118c3.135,-3.965 1.83,-10.15 -2.643,-16.148c4.219,-7.083 11.641,-16.826 20.231,-26.925c7.405,4.744 14.979,9.218 22.757,13.369c-4.118,27.535 -8.743,54.816 -20.672,79.69c-15.064,-2.88 -27.637,0.678 -30.958,10.133c-4.287,12.234 7.456,29.229 26.637,37.346c19.181,8.116 39.498,4.693 45.225,-6.931c4.49,-9.116 -2.034,-20.892 -15.03,-29.754c4.609,-11.387 10.963,-22.028 17.182,-32.703c7.625,-13.081 16.724,-26.84 24.807,-37.21c3.812,1.321 7.659,2.592 11.522,3.761c-1.542,16.521 -3.05,33.093 -3.982,49.665c-12.641,0.949 -21.672,6.252 -22.638,14.606c-1.389,12.115 12.844,25.603 32.144,29.754c19.317,4.152 37.837,-2.304 41.531,-13.911c2.457,-7.659 -2.965,-15.792 -13.149,-21.791c2.643,-16.182 7.574,-32.008 12.861,-47.817c3.101,0.457 6.219,0.881 9.336,1.237c6.405,31.432 10.252,63.44 10.133,95.567c-23.976,5.219 -40.006,18.69 -38.888,36.176c1.441,22.825 28.959,44.09 62.153,44.31c33.194,0.221 61,-20.689 62.746,-43.479c1.355,-17.809 -15.115,-31.687 -39.752,-37.007c0.101,-20.876 3.863,-41.65 6.845,-62.474c1.661,-10.37 3.694,-21.452 5.982,-32.602c4.151,-0.44 8.269,-0.932 12.369,-1.525c3.016,10.557 5.999,21.096 9.489,31.365c-7.116,3.626 -11.234,8.997 -9.946,14.114c1.83,7.388 13.352,11.59 25.756,9.303c12.403,-2.288 21.689,-10.336 20.841,-17.894c-0.576,-4.981 -5.778,-8.438 -13.115,-9.505c-1.965,-7.897 -3.541,-19.825 -4.558,-32.873c9.015,-2.152 17.877,-4.693 26.603,-7.608c16.826,21.554 30.805,45.462 40.481,71.015c-12.522,8.641 -18.826,19.994 -14.556,28.975c5.575,11.691 25.841,15.385 45.124,7.523c19.3,-7.879 31.245,-24.705 27.128,-37.007c-3.084,-9.167 -14.894,-12.962 -29.314,-10.776c-3.203,-11.269 -9.794,-23.18 -13.031,-34.974c-3.863,-14.979 -7.116,-31.551 -8.624,-44.767c3.304,-1.729 6.574,-3.474 9.811,-5.287c10.421,13.081 20.113,26.705 28.805,41.09c-7.184,9.1 -9.251,18.487 -4.321,24.706c7.575,9.539 27.18,9.014 43.768,-1.695c16.589,-10.726 25.112,-28.382 19.537,-39.209c-3.727,-7.202 -13.454,-9.1 -25.027,-6.016c-10.133,-13.759 -17.69,-28.585 -24.925,-43.7c1.711,-1.287 3.406,-2.592 5.083,-3.914c26.688,18.859 52.444,39.125 78.708,58.459c-13.946,21.028 -16.064,42.463 -2.661,54.273c17.148,15.098 51.647,10.675 75.268,-12.641c23.638,-23.315 28.501,-57.746 13.623,-75.098c-11.556,-13.487 -32.838,-11.742 -53.934,1.729c-14.742,-15.183 -26.4,-32.907 -39.667,-48.8c-6.405,-8.845 -13.081,-18.521 -19.588,-28.45c2.423,-2.915 4.761,-5.88 7.083,-8.879c9.929,5.591 19.486,11.844 28.517,18.791c-1.948,7.032 -0.932,13.098 3.355,15.64c6.541,3.88 17.674,-1.288 24.858,-11.658c7.185,-10.37 8.083,-22.587 2.118,-27.297c-3.965,-3.135 -10.167,-1.847 -16.148,2.643c-7.117,-4.236 -16.894,-11.675 -27.027,-20.316c4.762,-7.371 9.235,-14.946 13.387,-22.689c27.568,4.117 54.866,8.76 79.775,20.689c-2.898,15.064 0.66,27.637 10.115,30.958c12.251,4.27 29.23,-7.456 37.346,-26.637c8.134,-19.181 4.711,-39.498 -6.913,-45.225c-9.133,-4.49 -20.893,2.033 -29.755,15.03c-11.386,-4.609 -22.028,-10.963 -32.703,-17.182c-13.115,-7.642 -26.908,-16.758 -37.278,-24.857c1.288,-3.813 2.508,-7.642 3.643,-11.489c16.589,1.559 33.212,3.067 49.834,3.999c0.949,12.641 6.253,21.672 14.623,22.638c12.099,1.389 25.604,-12.844 29.755,-32.144c4.135,-19.317 -2.304,-37.837 -13.911,-41.548c-7.659,-2.44 -15.81,2.982 -21.808,13.166c-16.402,-2.677 -32.466,-7.727 -48.512,-13.098c0.389,-2.965 0.728,-5.931 1.016,-8.913c31.721,-6.523 64.051,-10.438 96.483,-10.319c5.235,23.976 18.706,39.989 36.193,38.888c22.808,-1.441 44.073,-28.958 44.293,-62.153c0.221,-33.211 -20.672,-61 -43.463,-62.745" style="fill:#ffa400;fill-rule:nonzero;"/><path id="path270" d="M770.23,429.155c9.794,57.442 -4.863,144.909 -72.184,159.804c-59.424,13.132 -126.728,-31.958 -154.382,-82.757c-34.177,-62.797 9.896,-141.046 70.219,-167.869c71.709,-31.873 143.842,17.452 156.347,90.822" style="fill:#fff;fill-rule:nonzero;"/><path id="path272" d="M709.23,492.189c-0,28.551 -23.147,51.697 -51.698,51.697c-28.535,0 -51.681,-23.146 -51.681,-51.697c-0,-28.535 23.146,-51.681 51.681,-51.681c28.551,-0 51.698,23.146 51.698,51.681" style="fill-rule:nonzero;"/><path id="path274" d="M531.142,451.488c0.187,-7.388 1.187,-14.674 2.678,-21.892c1.474,-7.236 3.507,-14.352 5.947,-21.384c4.982,-14.03 11.861,-27.654 20.978,-40.176c2.287,-3.118 4.727,-6.151 7.269,-9.133c2.541,-2.982 5.337,-5.778 8.167,-8.557c2.881,-2.745 5.863,-5.405 9.048,-7.879c3.186,-2.457 6.49,-4.778 9.913,-6.981c3.44,-2.169 6.998,-4.185 10.709,-5.948c3.694,-1.779 7.472,-3.422 11.353,-4.795c7.743,-2.813 15.843,-4.609 23.942,-5.727c8.117,-1.051 16.352,-1.068 24.129,-0.661c7.897,0.559 15.827,1.661 23.655,3.592c3.897,1 7.778,2.135 11.607,3.508c3.813,1.338 7.574,2.914 11.217,4.727c3.643,1.796 7.219,3.745 10.642,5.931c3.405,2.203 6.693,4.592 9.827,7.133c12.539,10.235 22.266,23.231 28.654,37.194c3.185,6.981 5.625,14.199 7.252,21.519c1.644,7.32 2.508,14.725 2.203,22.18l-1.864,0.322c-1.44,-6.794 -3.745,-13.521 -6.473,-19.96c-2.762,-6.456 -6.032,-12.692 -9.845,-18.571c-7.506,-11.811 -17.182,-22.265 -28.653,-30.212c-11.455,-7.981 -24.62,-13.336 -38.295,-16.165c-6.828,-1.407 -13.793,-2.237 -20.791,-2.508c-6.998,-0.288 -13.979,-0.153 -20.892,0.779c-13.827,1.644 -27.281,6.168 -39.363,13.149c-12.098,6.981 -22.773,16.318 -31.923,26.925c-9.184,10.607 -16.86,22.502 -23.367,34.973c-3.27,6.236 -6.252,12.624 -8.929,19.148c-2.644,6.523 -5.067,13.182 -6.948,19.926l-1.847,-0.457" style="fill-rule:nonzero;"/><path id="path276" d="M242.695,429.155c-9.794,57.442 4.863,144.909 72.184,159.804c59.425,13.132 126.728,-31.958 154.382,-82.757c34.177,-62.797 -9.896,-141.063 -70.218,-167.869c-71.693,-31.873 -143.843,17.452 -156.348,90.822" style="fill:#fff;fill-rule:nonzero;"/><path id="path278" d="M303.696,492.189c-0,28.551 23.146,51.697 51.697,51.697c28.535,0 51.681,-23.146 51.681,-51.697c0,-28.535 -23.146,-51.681 -51.681,-51.681c-28.551,-0 -51.697,23.146 -51.697,51.681" style="fill-rule:nonzero;"/><path id="path280" d="M481.783,451.488c-0.186,-7.388 -1.186,-14.674 -2.677,-21.892c-1.475,-7.236 -3.508,-14.352 -5.948,-21.384c-4.982,-14.03 -11.861,-27.654 -20.96,-40.176c-2.305,-3.118 -4.745,-6.151 -7.286,-9.133c-2.542,-2.982 -5.338,-5.778 -8.168,-8.557c-2.88,-2.745 -5.863,-5.405 -9.048,-7.879c-3.186,-2.457 -6.49,-4.778 -9.913,-6.981c-3.439,-2.169 -6.998,-4.185 -10.709,-5.948c-3.694,-1.779 -7.472,-3.422 -11.353,-4.795c-7.743,-2.813 -15.843,-4.609 -23.942,-5.727c-8.117,-1.051 -16.352,-1.068 -24.129,-0.661c-7.896,0.559 -15.826,1.661 -23.655,3.592c-3.897,1 -7.777,2.135 -11.607,3.508c-3.812,1.338 -7.574,2.914 -11.217,4.727c-3.643,1.796 -7.219,3.745 -10.641,5.931c-3.406,2.203 -6.693,4.592 -9.828,7.133c-12.539,10.235 -22.265,23.231 -28.653,37.194c-3.186,6.981 -5.626,14.199 -7.253,21.519c-1.643,7.32 -2.507,14.725 -2.202,22.18l1.863,0.322c1.441,-6.794 3.745,-13.521 6.473,-19.96c2.762,-6.456 6.033,-12.692 9.845,-18.571c7.506,-11.811 17.182,-22.265 28.653,-30.212c11.455,-7.981 24.621,-13.336 38.295,-16.165c6.829,-1.407 13.793,-2.237 20.791,-2.508c6.998,-0.288 13.979,-0.153 20.893,0.779c13.826,1.644 27.28,6.168 39.362,13.149c12.098,6.981 22.773,16.318 31.923,26.925c9.184,10.607 16.86,22.502 23.367,34.973c3.27,6.236 6.252,12.624 8.93,19.148c2.643,6.523 5.066,13.182 6.947,19.926l1.847,-0.457" style="fill-rule:nonzero;"/><path id="path282" d="M665.462,672.817c-12.302,64.406 -101.43,93.906 -157.822,94.33c-58.323,0.441 -146.011,-29.094 -157.838,-94.33c-5.253,-29.077 20.181,-40.667 45.665,-38.43c38.193,3.355 74.963,21.011 112.173,21.011c37.194,0 73.98,-17.673 112.173,-21.011c23.96,-2.101 51.207,9.421 45.649,38.43" style="fill:#190200;fill-rule:nonzero;"/><clipPath id="_clip1"><path d="M665.462,672.817c-12.302,64.406 -101.43,93.906 -157.822,94.33c-58.323,0.441 -146.011,-29.094 -157.838,-94.33c-5.253,-29.077 20.181,-40.667 45.665,-38.43c38.193,3.355 74.963,21.011 112.173,21.011c37.194,0 73.98,-17.673 112.173,-21.011c23.96,-2.101 51.207,9.421 45.649,38.43" clip-rule="nonzero"/></clipPath><g clip-path="url(#_clip1)"><path id="path284" d="M513.588,717.703c-4.592,1.152 -9.184,1.152 -13.776,-1.152c-39.938,-17.64 -82.13,-7.49 -122.323,4.931c33.449,31.415 89.078,45.987 130.151,45.665c37.668,-0.271 89.959,-13.556 124.187,-41.531c-33.957,-24.79 -78.708,-21.096 -118.239,-7.913" style="fill:#930e00;fill-rule:nonzero;"/><path id="path296" d="M345.972,706.943l10.658,-13.25c0,-0 24.129,58.323 148.028,58.323c123.916,-0 147.74,-48.377 147.74,-48.377l9.743,9.862c-0,-0 -61.526,69.947 -156.009,69.947c-94.483,-0 -160.16,-76.505 -160.16,-76.505" style="fill:#fff;fill-rule:nonzero;"/><path id="path294" d="M355.038,632.913c-0,-0 46.631,27.653 62.983,34.024l-0.305,-40.989l34.516,6.965l-1.508,44.005c-0,-0 12.437,11.81 56.933,11.81c44.497,-0 125.187,-12.624 163.414,-55.815c-0,-0 -88.773,-18.656 -171.073,-18.656c-82.282,-0 -118.629,-8.1 -144.96,18.656" style="fill:#fff;fill-rule:nonzero;"/></g></svg>