<?xml version="1.0" encoding="UTF-8" standalone="no"?><!DOCTYPE svg PUBLIC "-//W3C//DTD SVG 1.1//EN" "http://www.w3.org/Graphics/SVG/1.1/DTD/svg11.dtd">
<svg width="100%" height="100%" viewBox="0 0 1000 1000" version="1.1" xmlns="http://www.w3.org/2000/svg"
     xml:space="preserve"
     style="fill-rule:evenodd;clip-rule:evenodd;stroke-linejoin:round;stroke-miterlimit:2;"><path id="path14" d="M954.739,427.635c-17.839,-0.854 -31.245,15.998 -35.88,40.788c-20.867,0.495 -41.748,-2.68 -62.641,-5.071c-10.939,-1.434 -22.673,-3.261 -34.462,-5.361c-0.497,-3.875 -1.066,-7.717 -1.696,-11.541c10.961,-3.466 21.936,-6.898 32.599,-10.859c3.833,7.017 9.318,10.978 14.404,9.561c7.32,-2.066 11.194,-13.676 8.558,-26.019c-2.638,-12.344 -10.934,-21.41 -18.467,-20.335c-4.977,0.717 -8.281,6.027 -9.138,13.386c-8.089,2.253 -20.495,4.217 -34.013,5.617c-2.274,-8.776 -4.907,-17.398 -7.88,-25.866c21.262,-17.722 45.062,-32.61 70.652,-43.144c8.984,12.292 20.524,18.268 29.375,13.744c11.538,-5.908 14.652,-26.276 6.24,-45.33c-8.411,-19.071 -25.574,-30.544 -37.755,-26.071c-9.093,3.33 -12.547,15.264 -9.948,29.622c-11.182,3.5 -22.894,10.432 -34.603,14.001c-14.977,4.319 -31.572,8.075 -44.795,9.936c-1.749,-3.227 -3.546,-6.436 -5.406,-9.595c12.819,-10.824 26.215,-20.949 40.389,-30.066c9.312,6.932 18.75,8.724 24.826,3.62c9.326,-7.854 8.249,-27.437 -2.938,-43.708c-11.186,-16.288 -29.081,-24.312 -39.748,-18.422c-7.101,3.927 -8.72,13.693 -5.31,25.183c-13.447,10.517 -28.057,18.49 -42.935,26.139c-1.345,-1.673 -2.704,-3.329 -4.084,-4.985c18.098,-27.215 37.615,-53.508 56.191,-80.313c21.418,13.351 42.912,14.871 54.336,1.127c14.618,-17.568 9.224,-51.937 -14.759,-74.9c-23.984,-22.964 -58.546,-26.857 -75.471,-11.491c-13.15,11.952 -10.802,33.174 3.248,53.884c-14.762,15.161 -32.145,27.334 -47.663,41.027c-8.751,6.743 -18.345,13.744 -28.179,20.607c-2.956,-2.271 -5.952,-4.49 -8.984,-6.659c5.356,-10.209 11.41,-20.078 18.178,-29.417c7.082,1.742 13.124,0.547 15.545,-3.807c3.7,-6.642 -1.784,-17.637 -12.356,-24.517c-10.573,-6.881 -22.815,-7.444 -27.353,-1.349c-3.017,4.063 -1.554,10.21 3.104,16.083c-4.103,7.341 -11.424,17.517 -19.928,28.068c-7.422,-4.439 -15.023,-8.605 -22.781,-12.463c3.367,-27.949 7.191,-55.625 18.514,-81.098c15.143,2.458 27.62,-1.451 30.661,-10.995c3.938,-12.361 -8.269,-29.008 -27.683,-36.588c-19.413,-7.581 -39.619,-3.586 -45.019,8.212c-4.236,9.237 2.629,20.812 15.869,29.315c-4.277,11.507 -10.336,22.332 -16.247,33.173c-7.387,13.556 -16.281,27.829 -24.186,38.483c-3.722,-1.178 -7.468,-2.305 -11.234,-3.346c1.094,-16.783 2.151,-33.6 2.612,-50.418c12.614,-1.314 21.504,-6.863 22.226,-15.263c1.043,-12.139 -13.565,-25.217 -32.986,-28.82c-19.421,-3.602 -37.751,3.381 -41.129,15.076c-2.228,7.734 3.418,15.724 13.776,21.427c-2.201,16.356 -6.746,32.439 -11.613,48.522c-3.058,-0.393 -6.124,-0.717 -9.198,-1.024c-7.331,-31.33 -12.105,-63.342 -12.9,-95.559c23.814,-5.908 39.455,-19.839 37.85,-37.288c-2.093,-22.759 -30.201,-43.247 -63.399,-42.53c-33.196,0.734 -60.388,22.417 -61.49,45.244c-0.859,17.842 15.995,31.244 40.792,35.888c0.49,20.864 -2.686,41.744 -5.083,62.642c-1.355,10.381 -3.068,21.478 -5.041,32.661c-4.153,0.53 -8.286,1.127 -12.386,1.827c-3.291,-10.415 -6.564,-20.812 -10.331,-30.937c7.018,-3.824 10.98,-9.322 9.556,-14.409c-2.052,-7.308 -13.677,-11.183 -26.016,-8.554c-12.339,2.646 -21.4,10.944 -20.329,18.473c0.706,4.968 6.016,8.281 13.375,9.134c2.172,7.769 4.069,19.532 5.448,32.44c-9.03,2.39 -17.917,5.156 -26.626,8.297c-17.302,-20.966 -31.857,-44.356 -42.204,-69.488c12.288,-8.998 18.267,-20.522 13.736,-29.383c-5.906,-11.542 -26.268,-14.649 -45.332,-6.232c-19.066,8.4 -30.539,25.576 -26.066,37.749c3.338,9.083 15.257,12.549 29.618,9.954c3.512,11.183 10.44,22.895 14.008,34.59c4.219,14.632 7.909,30.835 9.814,43.913c-3.357,1.844 -6.684,3.739 -9.969,5.719c-10.635,-12.651 -20.585,-25.849 -29.58,-39.815c6.936,-9.305 8.74,-18.746 3.627,-24.824c-7.847,-9.322 -27.43,-8.247 -43.71,2.936c-16.279,11.183 -24.307,29.076 -18.417,39.747c3.92,7.102 13.7,8.724 25.187,5.31c10.401,13.3 18.306,27.744 25.892,42.461c-1.747,1.4 -3.478,2.817 -5.194,4.251c-27.05,-18.012 -53.211,-37.407 -79.861,-55.881c13.351,-21.409 14.862,-42.922 1.129,-54.344c-17.579,-14.614 -51.939,-9.219 -74.901,14.769c-22.964,23.988 -26.857,58.544 -11.489,75.463c11.939,13.147 33.168,10.808 53.873,-3.244c15.17,14.769 27.335,32.149 41.04,47.669c6.605,8.588 13.482,17.978 20.209,27.625c-2.34,3.039 -4.637,6.095 -6.873,9.219c-10.004,-5.276 -19.662,-11.234 -28.822,-17.859c1.759,-7.085 0.56,-13.129 -3.789,-15.553c-6.646,-3.705 -17.64,1.792 -24.525,12.361c-6.888,10.568 -7.439,22.81 -1.341,27.351c4.05,3.022 10.208,1.554 16.068,-3.107c7.21,4.029 17.15,11.166 27.497,19.463c-4.533,7.547 -8.785,15.247 -12.713,23.152c-27.659,-3.347 -55.057,-7.205 -80.269,-18.422c2.464,-15.144 -1.453,-27.608 -11,-30.664c-12.363,-3.927 -29.011,8.281 -36.585,27.693c-7.574,19.412 -3.581,39.61 8.205,45.022c9.245,4.234 20.825,-2.629 29.325,-15.878c11.513,4.285 22.332,10.346 33.172,16.254c13.301,7.256 27.321,15.963 37.907,23.749c-1.209,3.858 -2.365,7.717 -3.434,11.626c-16.563,-1.075 -33.163,-2.117 -49.757,-2.578c-1.304,-12.6 -6.865,-21.495 -15.255,-22.212c-12.141,-1.058 -25.227,13.556 -28.828,32.986c-3.603,19.412 3.373,37.749 15.082,41.129c7.726,2.22 15.713,-3.432 21.417,-13.778c16.246,2.185 32.214,6.676 48.169,11.507c-0.368,3.108 -0.698,6.232 -0.976,9.374c-31.234,7.29 -63.138,12.036 -95.249,12.822c-5.908,-23.818 -19.831,-39.457 -37.285,-37.852c-22.766,2.1 -43.249,30.203 -42.526,63.41c0.722,33.191 22.407,60.388 45.242,61.481c17.837,0.854 31.243,-15.998 35.878,-40.788c20.867,-0.495 41.75,2.68 62.643,5.088c10.384,1.349 21.485,3.056 32.67,5.036c0.534,4.149 1.126,8.281 1.82,12.379c-10.405,3.295 -20.811,6.573 -30.931,10.329c-3.833,-7.017 -9.318,-10.978 -14.404,-9.544c-7.32,2.049 -11.194,13.676 -8.558,26.002c2.637,12.344 10.933,21.41 18.465,20.335c4.977,-0.7 8.283,-6.01 9.138,-13.369c7.775,-2.168 19.54,-4.08 32.443,-5.446c2.394,9.032 5.151,17.91 8.296,26.617c-20.97,17.312 -44.367,31.859 -69.496,42.205c-8.985,-12.292 -20.524,-18.268 -29.375,-13.744c-11.539,5.908 -14.652,26.276 -6.242,45.347c8.413,19.054 25.575,30.527 37.757,26.054c9.091,-3.33 12.547,-15.247 9.948,-29.605c11.18,-3.517 22.892,-10.449 34.601,-14.018c14.635,-4.217 30.831,-7.904 43.901,-9.817c1.856,3.364 3.754,6.693 5.723,9.971c-12.643,10.637 -25.849,20.59 -39.812,29.588c-9.312,-6.932 -18.748,-8.741 -24.826,-3.637c-9.324,7.854 -8.247,27.437 2.938,43.725c11.187,16.271 29.081,24.295 39.749,18.405c7.101,-3.91 8.719,-13.693 5.311,-25.183c13.302,-10.398 27.739,-18.303 42.452,-25.883c1.403,1.741 2.825,3.466 4.264,5.19c-18.012,27.044 -37.416,53.2 -55.888,79.852c-21.42,-13.351 -42.914,-14.854 -54.337,-1.127c-14.617,17.585 -9.223,51.937 14.76,74.9c23.983,22.964 58.546,26.857 75.471,11.491c13.148,-11.935 10.802,-33.174 -3.248,-53.866c14.76,-15.179 32.143,-27.335 47.663,-41.045c8.587,-6.607 17.985,-13.487 27.626,-20.214c3.034,2.339 6.104,4.644 9.218,6.88c-5.277,10.005 -11.228,19.652 -17.859,28.82c-7.082,-1.759 -13.126,-0.564 -15.545,3.79c-3.7,6.642 1.782,17.637 12.356,24.517c10.573,6.898 22.815,7.444 27.353,1.349c3.017,-4.046 1.554,-10.21 -3.104,-16.066c4.026,-7.222 11.161,-17.158 19.467,-27.505c7.535,4.542 15.248,8.793 23.142,12.72c-3.345,27.658 -7.204,55.044 -18.414,80.261c-15.143,-2.458 -27.62,1.451 -30.661,10.995c-3.938,12.378 8.269,29.025 27.682,36.588c19.414,7.581 39.62,3.586 45.019,-8.195c4.236,-9.254 -2.628,-20.829 -15.87,-29.332c4.279,-11.507 10.338,-22.332 16.247,-33.173c7.254,-13.3 15.962,-27.317 23.758,-37.903c3.848,1.213 7.718,2.356 11.62,3.432c-1.079,16.561 -2.116,33.156 -2.568,49.752c-12.616,1.314 -21.504,6.863 -22.226,15.263c-1.045,12.139 13.565,25.217 32.986,28.82c19.421,3.602 37.749,-3.364 41.128,-15.076c2.229,-7.717 -3.418,-15.707 -13.775,-21.41c2.184,-16.254 6.679,-32.217 11.507,-48.181c3.115,0.376 6.241,0.7 9.377,0.974c7.29,31.244 12.033,63.154 12.827,95.251c-23.814,5.908 -39.456,19.839 -37.851,37.288c2.093,22.759 30.202,43.247 63.398,42.53c33.196,-0.717 60.39,-22.4 61.49,-45.244c0.861,-17.842 -15.994,-31.244 -40.792,-35.871c-0.49,-20.881 2.686,-41.761 5.085,-62.642c1.359,-10.415 3.078,-21.564 5.059,-32.781c4.126,-0.546 8.239,-1.161 12.32,-1.861c3.307,10.449 6.595,20.915 10.377,31.074c-7.017,3.841 -10.98,9.322 -9.554,14.409c2.05,7.308 13.677,11.183 26.016,8.554c12.339,-2.629 21.4,-10.927 20.329,-18.473c-0.706,-4.968 -6.018,-8.281 -13.377,-9.134c-2.187,-7.837 -4.097,-19.72 -5.478,-32.73c8.936,-2.407 17.735,-5.207 26.371,-8.366c17.429,21.069 32.088,44.596 42.489,69.864c-12.288,8.981 -18.267,20.522 -13.736,29.366c5.906,11.542 26.268,14.649 45.334,6.249c19.066,-8.417 30.537,-25.576 26.066,-37.766c-3.338,-9.083 -15.259,-12.549 -29.619,-9.937c-3.512,-11.183 -10.441,-22.895 -14.007,-34.607c-4.287,-14.871 -8.021,-31.347 -9.899,-44.51c3.25,-1.81 6.481,-3.654 9.665,-5.566c10.78,12.771 20.865,26.139 29.969,40.259c-6.936,9.322 -8.742,18.746 -3.627,24.824c7.847,9.339 27.43,8.247 43.71,-2.936c16.279,-11.183 24.306,-29.076 18.417,-39.747c-3.92,-7.102 -13.7,-8.724 -25.187,-5.31c-10.525,-13.453 -18.494,-28.085 -26.161,-42.973c1.671,-1.332 3.326,-2.698 4.97,-4.064c27.223,18.098 53.542,37.63 80.352,56.206c-13.349,21.427 -14.862,42.922 -1.127,54.344c17.578,14.614 51.938,9.219 74.901,-14.769c22.962,-23.97 26.857,-58.544 11.489,-75.463c-11.941,-13.147 -33.17,-10.808 -53.873,3.244c-15.17,-14.752 -27.336,-32.132 -41.041,-47.652c-6.662,-8.673 -13.601,-18.149 -20.384,-27.881c2.329,-2.987 4.594,-6.026 6.817,-9.1c10.085,5.31 19.822,11.303 29.052,17.996c-1.758,7.068 -0.558,13.112 3.789,15.536c6.648,3.705 17.642,-1.775 24.527,-12.361c6.886,-10.568 7.439,-22.81 1.341,-27.351c-4.052,-3.005 -10.208,-1.554 -16.07,3.107c-7.232,-4.046 -17.211,-11.2 -27.594,-19.549c4.561,-7.512 8.812,-15.212 12.746,-23.066c27.681,3.347 55.101,7.205 80.335,18.422c-2.464,15.144 1.453,27.625 10.999,30.664c12.364,3.927 29.012,-8.263 36.586,-27.693c7.574,-19.412 3.579,-39.61 -8.205,-45.005c-9.247,-4.234 -20.825,2.629 -29.325,15.861c-11.513,-4.268 -22.332,-10.329 -33.174,-16.237c-13.328,-7.273 -27.381,-15.997 -37.975,-23.817c1.187,-3.824 2.29,-7.7 3.326,-11.575c16.621,1.075 33.281,2.117 49.935,2.578c1.302,12.617 6.865,21.495 15.255,22.229c12.141,1.041 25.226,-13.573 28.828,-32.986c3.601,-19.429 -3.375,-37.748 -15.084,-41.129c-7.724,-2.237 -15.713,3.415 -21.415,13.778c-16.49,-2.219 -32.691,-6.829 -48.881,-11.729c0.298,-2.971 0.554,-5.959 0.763,-8.947c31.529,-7.409 63.745,-12.241 96.174,-13.044c5.908,23.818 19.829,39.457 37.283,37.852c22.768,-2.1 43.251,-30.203 42.528,-63.393c-0.722,-33.208 -22.407,-60.388 -45.242,-61.498" style="fill:#2b8875;fill-rule:nonzero;"/><path id="path16" d="M453.18,472.264c7.663,-22.639 -6.231,-46.917 -29.577,-51.988c-42.44,-9.219 -108.213,-8.331 -142.012,69.984c-48.784,113.025 117.409,142.032 171.589,-17.996" style="fill:#fff;fill-rule:nonzero;"/><path id="path18" d="M394.892,500.009c-0,16.304 -13.222,29.519 -29.53,29.519c-16.31,0 -29.53,-13.215 -29.53,-29.519c-0,-16.322 13.22,-29.537 29.53,-29.537c16.308,-0 29.53,13.215 29.53,29.537" style="fill-rule:nonzero;"/><path id="path20" d="M566.556,472.264c-7.662,-22.639 6.23,-46.917 29.578,-51.988c42.438,-9.219 108.211,-8.331 142.01,69.984c48.785,113.025 -117.407,142.032 -171.588,-17.996" style="fill:#fff;fill-rule:nonzero;"/><path id="path22" d="M627.536,500.009c-0,16.304 13.22,29.519 29.53,29.519c16.308,0 29.528,-13.215 29.528,-29.519c0,-16.322 -13.22,-29.537 -29.528,-29.537c-16.31,-0 -29.53,13.215 -29.53,29.537" style="fill-rule:nonzero;"/><path id="path24" d="M536.873,595.243c-8.814,-5.6 -17.767,-6.59 -25.66,-4.524c-7.893,-2.066 -16.845,-1.076 -25.66,4.524c-53.11,33.754 -116.01,62.744 -151.067,12.105c0,0 17.589,158.952 169.556,58.783c2.575,-1.69 4.939,-3.5 7.171,-5.361c2.231,1.861 4.596,3.671 7.172,5.361c151.966,100.169 169.556,-58.783 169.556,-58.783c-35.058,50.639 -97.958,21.649 -151.068,-12.105" style="fill-rule:nonzero;"/><path id="path26" d="M470.239,579.604c-0,0 -12.374,98.154 40.974,98.154c53.349,0 53.226,-83.215 53.226,-83.215c0,0 -34.43,-81.303 -47.722,-81.303c-13.291,0 -46.478,66.364 -46.478,66.364" style="fill:#2b8875;fill-rule:nonzero;"/><path id="path28" d="M526.133,611.429c0,28.273 -6.68,51.185 -14.92,51.185c-8.24,0 -14.92,-22.912 -14.92,-51.185c-0,-28.257 6.68,-51.169 14.92,-51.169c8.24,0 14.92,22.912 14.92,51.169" style="fill:#65ab96;fill-rule:nonzero;"/></svg>