<?xml version="1.0" encoding="UTF-8" standalone="no"?><!DOCTYPE svg PUBLIC "-//W3C//DTD SVG 1.1//EN" "http://www.w3.org/Graphics/SVG/1.1/DTD/svg11.dtd"><svg width="100%" height="100%" viewBox="0 0 1000 1000" version="1.1" xmlns="http://www.w3.org/2000/svg" xmlns:xlink="http://www.w3.org/1999/xlink" xml:space="preserve" xmlns:serif="http://www.serif.com/" style="fill-rule:evenodd;clip-rule:evenodd;stroke-linejoin:round;stroke-miterlimit:2;"><path id="path202" d="M954.738,427.635c-17.842,-0.854 -31.244,15.998 -35.871,40.788c-20.881,0.495 -41.762,-2.68 -62.642,-5.071c-10.944,-1.434 -22.673,-3.261 -34.471,-5.361c-0.495,-3.875 -1.059,-7.717 -1.69,-11.541c10.961,-3.466 21.939,-6.898 32.593,-10.859c3.841,7.017 9.322,10.978 14.409,9.561c7.308,-2.066 11.183,-13.676 8.554,-26.019c-2.629,-12.344 -10.927,-21.41 -18.456,-20.335c-4.985,0.717 -8.298,6.027 -9.151,13.386c-8.093,2.253 -20.488,4.217 -34.01,5.617c-2.271,-8.776 -4.9,-17.398 -7.871,-25.866c21.256,-17.722 45.056,-32.61 70.649,-43.144c8.981,12.292 20.522,18.268 29.366,13.744c11.542,-5.908 14.649,-26.276 6.249,-45.33c-8.417,-19.071 -25.576,-30.544 -37.766,-26.071c-9.083,3.33 -12.549,15.264 -9.937,29.622c-11.183,3.5 -22.895,10.432 -34.607,14.001c-14.973,4.319 -31.569,8.075 -44.8,9.936c-1.742,-3.227 -3.535,-6.436 -5.396,-9.595c12.805,-10.824 26.208,-20.949 40.379,-30.066c9.322,6.932 18.746,8.724 24.824,3.62c9.322,-7.854 8.247,-27.437 -2.936,-43.708c-11.183,-16.288 -29.076,-24.312 -39.747,-18.422c-7.102,3.927 -8.724,13.693 -5.31,25.183c-13.436,10.517 -28.051,18.49 -42.939,26.139c-1.332,-1.673 -2.698,-3.329 -4.081,-4.985c18.098,-27.215 37.613,-53.508 56.189,-80.313c21.426,13.351 42.922,14.871 54.344,1.127c14.614,-17.568 9.219,-51.937 -14.769,-74.9c-23.97,-22.964 -58.544,-26.857 -75.463,-11.491c-13.147,11.952 -10.808,33.174 3.244,53.884c-14.752,15.161 -32.132,27.334 -47.652,41.027c-8.759,6.743 -18.354,13.744 -28.188,20.607c-2.954,-2.271 -5.958,-4.49 -8.98,-6.659c5.361,-10.209 11.405,-20.078 18.183,-29.417c7.068,1.742 13.112,0.547 15.536,-3.807c3.705,-6.642 -1.775,-17.637 -12.361,-24.517c-10.568,-6.881 -22.81,-7.444 -27.351,-1.349c-3.005,4.063 -1.554,10.21 3.107,16.083c-4.097,7.341 -11.422,17.517 -19.924,28.068c-7.427,-4.439 -15.025,-8.605 -22.776,-12.463c3.363,-27.949 7.188,-55.625 18.507,-81.098c15.144,2.458 27.625,-1.451 30.664,-10.995c3.927,-12.361 -8.281,-29.008 -27.693,-36.588c-19.412,-7.581 -39.61,-3.586 -45.005,8.212c-4.234,9.237 2.629,20.812 15.861,29.315c-4.268,11.507 -10.329,22.332 -16.237,33.173c-7.392,13.556 -16.287,27.829 -24.192,38.483c-3.722,-1.178 -7.461,-2.305 -11.235,-3.346c1.093,-16.783 2.152,-33.6 2.613,-50.418c12.617,-1.314 21.495,-6.863 22.229,-15.263c1.041,-12.139 -13.573,-25.217 -32.986,-28.82c-19.429,-3.602 -37.748,3.381 -41.129,15.076c-2.237,7.734 3.415,15.724 13.778,21.427c-2.202,16.356 -6.761,32.439 -11.627,48.522c-3.056,-0.393 -6.112,-0.717 -9.185,-1.024c-7.342,-31.33 -12.105,-63.342 -12.908,-95.559c23.818,-5.908 39.457,-19.839 37.852,-37.288c-2.1,-22.759 -30.203,-43.247 -63.393,-42.53c-33.208,0.734 -60.388,22.417 -61.498,45.244c-0.854,17.842 15.998,31.244 40.788,35.888c0.495,20.864 -2.68,41.744 -5.071,62.642c-1.366,10.381 -3.073,21.478 -5.053,32.661c-4.149,0.53 -8.281,1.127 -12.379,1.827c-3.295,-10.415 -6.556,-20.812 -10.329,-30.937c7.017,-3.824 10.978,-9.322 9.561,-14.409c-2.066,-7.308 -13.693,-11.183 -26.019,-8.554c-12.344,2.646 -21.41,10.944 -20.335,18.473c0.717,4.968 6.027,8.281 13.386,9.134c2.168,7.769 4.063,19.532 5.446,32.44c-9.032,2.39 -17.927,5.156 -26.634,8.297c-17.295,-20.966 -31.859,-44.356 -42.205,-69.488c12.292,-8.998 18.268,-20.522 13.744,-29.383c-5.908,-11.542 -26.276,-14.649 -45.33,-6.232c-19.071,8.4 -30.544,25.576 -26.071,37.749c3.33,9.083 15.264,12.549 29.622,9.954c3.5,11.183 10.432,22.895 14.001,34.59c4.217,14.632 7.904,30.835 9.817,43.913c-3.364,1.844 -6.693,3.739 -9.971,5.719c-10.637,-12.651 -20.591,-25.849 -29.571,-39.815c6.932,-9.305 8.724,-18.746 3.619,-24.824c-7.853,-9.322 -27.436,-8.247 -43.707,2.936c-16.288,11.183 -24.312,29.076 -18.422,39.747c3.927,7.102 13.693,8.724 25.183,5.31c10.415,13.3 18.32,27.744 25.9,42.461c-1.741,1.4 -3.483,2.817 -5.19,4.251c-27.061,-18.012 -53.218,-37.407 -79.869,-55.881c13.351,-21.409 14.871,-42.922 1.127,-54.344c-17.568,-14.614 -51.937,-9.219 -74.9,14.769c-22.964,23.988 -26.857,58.544 -11.491,75.463c11.952,13.147 33.174,10.808 53.884,-3.244c15.161,14.769 27.334,32.149 41.027,47.669c6.607,8.588 13.487,17.978 20.214,27.625c-2.339,3.039 -4.644,6.095 -6.88,9.219c-9.988,-5.276 -19.652,-11.234 -28.82,-17.859c1.759,-7.085 0.564,-13.129 -3.773,-15.553c-6.659,-3.705 -17.654,1.792 -24.534,12.361c-6.881,10.568 -7.444,22.81 -1.349,27.351c4.063,3.022 10.21,1.554 16.083,-3.107c7.205,4.029 17.141,11.166 27.488,19.463c-4.525,7.547 -8.776,15.247 -12.72,23.152c-27.641,-3.347 -55.044,-7.205 -80.261,-18.422c2.458,-15.144 -1.451,-27.608 -10.995,-30.664c-12.361,-3.927 -29.008,8.281 -36.588,27.693c-7.581,19.412 -3.586,39.61 8.212,45.022c9.237,4.234 20.812,-2.629 29.315,-15.878c11.524,4.285 22.332,10.346 33.173,16.254c13.3,7.256 27.317,15.963 37.903,23.749c-1.195,3.858 -2.356,7.717 -3.432,11.626c-16.561,-1.075 -33.156,-2.117 -49.752,-2.578c-1.297,-12.6 -6.863,-21.495 -15.263,-22.212c-12.139,-1.058 -25.217,13.556 -28.82,32.986c-3.602,19.412 3.381,37.749 15.076,41.129c7.734,2.22 15.724,-3.432 21.427,-13.778c16.237,2.185 32.217,6.676 48.164,11.507c-0.376,3.108 -0.7,6.232 -0.974,9.374c-31.244,7.29 -63.136,12.036 -95.251,12.822c-5.908,-23.818 -19.822,-39.457 -37.288,-37.852c-22.759,2.1 -43.247,30.203 -42.53,63.41c0.734,33.191 22.417,60.388 45.244,61.481c17.842,0.854 31.244,-15.998 35.888,-40.788c20.864,-0.495 41.744,2.68 62.642,5.088c10.381,1.349 21.478,3.056 32.661,5.036c0.547,4.149 1.127,8.281 1.827,12.379c-10.415,3.295 -20.812,6.573 -30.937,10.329c-3.824,-7.017 -9.322,-10.978 -14.392,-9.544c-7.325,2.049 -11.2,13.676 -8.571,26.002c2.646,12.344 10.944,21.41 18.473,20.335c4.968,-0.7 8.281,-6.01 9.134,-13.369c7.769,-2.168 19.532,-4.08 32.439,-5.446c2.391,9.032 5.157,17.91 8.298,26.617c-20.966,17.312 -44.356,31.859 -69.488,42.205c-8.998,-12.292 -20.522,-18.268 -29.383,-13.744c-11.542,5.908 -14.649,26.276 -6.232,45.347c8.4,19.054 25.576,30.527 37.749,26.054c9.1,-3.33 12.549,-15.247 9.954,-29.605c11.183,-3.517 22.895,-10.449 34.59,-14.018c14.632,-4.217 30.835,-7.904 43.913,-9.817c1.844,3.364 3.756,6.693 5.719,9.971c-12.651,10.637 -25.849,20.59 -39.815,29.588c-9.305,-6.932 -18.746,-8.741 -24.824,-3.637c-9.322,7.854 -8.247,27.437 2.936,43.725c11.183,16.271 29.076,24.295 39.747,18.405c7.102,-3.91 8.724,-13.693 5.31,-25.183c13.3,-10.398 27.744,-18.303 42.461,-25.883c1.4,1.741 2.817,3.466 4.251,5.19c-18.012,27.044 -37.407,53.2 -55.881,79.852c-21.427,-13.351 -42.905,-14.854 -54.344,-1.127c-14.614,17.585 -9.219,51.937 14.769,74.9c23.988,22.964 58.544,26.857 75.463,11.491c13.147,-11.935 10.808,-33.174 -3.244,-53.866c14.769,-15.179 32.149,-27.335 47.669,-41.045c8.588,-6.607 17.978,-13.487 27.625,-20.214c3.022,2.339 6.095,4.644 9.219,6.88c-5.276,10.005 -11.234,19.652 -17.859,28.82c-7.085,-1.759 -13.129,-0.564 -15.553,3.79c-3.705,6.642 1.792,17.637 12.361,24.517c10.568,6.898 22.81,7.444 27.351,1.349c3.022,-4.046 1.554,-10.21 -3.107,-16.066c4.029,-7.222 11.166,-17.158 19.463,-27.505c7.547,4.542 15.264,8.793 23.152,12.72c-3.347,27.658 -7.205,55.044 -18.422,80.261c-15.144,-2.458 -27.608,1.451 -30.664,10.995c-3.927,12.378 8.281,29.025 27.693,36.588c19.412,7.581 39.61,3.586 45.022,-8.195c4.234,-9.254 -2.629,-20.829 -15.878,-29.332c4.285,-11.507 10.346,-22.332 16.254,-33.173c7.256,-13.3 15.963,-27.317 23.749,-37.903c3.858,1.213 7.717,2.356 11.626,3.432c-1.075,16.561 -2.117,33.156 -2.578,49.752c-12.6,1.314 -21.495,6.863 -22.212,15.263c-1.058,12.139 13.556,25.217 32.986,28.82c19.412,3.602 37.749,-3.364 41.129,-15.076c2.22,-7.717 -3.432,-15.707 -13.778,-21.41c2.185,-16.254 6.676,-32.217 11.507,-48.181c3.108,0.376 6.232,0.7 9.374,0.974c7.29,31.244 12.036,63.154 12.822,95.251c-23.818,5.908 -39.457,19.839 -37.852,37.288c2.1,22.759 30.203,43.247 63.41,42.53c33.191,-0.717 60.388,-22.4 61.481,-45.244c0.854,-17.842 -15.998,-31.244 -40.788,-35.871c-0.495,-20.881 2.68,-41.761 5.088,-62.642c1.349,-10.415 3.073,-21.564 5.053,-32.781c4.132,-0.546 8.23,-1.161 12.327,-1.861c3.296,10.449 6.591,20.915 10.364,31.074c-7.017,3.841 -10.978,9.322 -9.544,14.409c2.049,7.308 13.676,11.183 26.002,8.554c12.344,-2.629 21.41,-10.927 20.335,-18.473c-0.7,-4.968 -6.01,-8.281 -13.369,-9.134c-2.185,-7.837 -4.097,-19.72 -5.48,-32.73c8.929,-2.407 17.739,-5.207 26.361,-8.366c17.432,21.069 32.098,44.596 42.495,69.864c-12.292,8.981 -18.268,20.522 -13.727,29.366c5.891,11.542 26.259,14.649 45.33,6.249c19.054,-8.417 30.527,-25.576 26.054,-37.766c-3.33,-9.083 -15.247,-12.549 -29.605,-9.937c-3.517,-11.183 -10.449,-22.895 -14.018,-34.607c-4.285,-14.871 -8.024,-31.347 -9.902,-44.51c3.261,-1.81 6.488,-3.654 9.681,-5.566c10.773,12.771 20.863,26.139 29.963,40.259c-6.932,9.322 -8.741,18.746 -3.637,24.824c7.854,9.339 27.437,8.247 43.725,-2.936c16.271,-11.183 24.295,-29.076 18.405,-39.747c-3.91,-7.102 -13.693,-8.724 -25.183,-5.31c-10.517,-13.453 -18.49,-28.085 -26.156,-42.973c1.673,-1.332 3.329,-2.698 4.968,-4.064c27.215,18.098 53.542,37.63 80.347,56.206c-13.351,21.427 -14.854,42.922 -1.127,54.344c17.585,14.614 51.937,9.219 74.9,-14.769c22.964,-23.97 26.857,-58.544 11.491,-75.463c-11.935,-13.147 -33.174,-10.808 -53.866,3.244c-15.179,-14.752 -27.335,-32.132 -41.045,-47.652c-6.658,-8.673 -13.607,-18.149 -20.385,-27.881c2.322,-2.987 4.593,-6.026 6.812,-9.1c10.091,5.31 19.822,11.303 29.059,17.996c-1.759,7.068 -0.564,13.112 3.79,15.536c6.642,3.705 17.637,-1.775 24.517,-12.361c6.898,-10.568 7.444,-22.81 1.349,-27.351c-4.046,-3.005 -10.21,-1.554 -16.066,3.107c-7.239,-4.046 -17.227,-11.2 -27.607,-19.549c4.558,-7.512 8.827,-15.212 12.753,-23.066c27.676,3.347 55.096,7.205 80.33,18.422c-2.458,15.144 1.451,27.625 10.995,30.664c12.378,3.927 29.025,-8.263 36.588,-27.693c7.581,-19.412 3.586,-39.61 -8.195,-45.005c-9.254,-4.234 -20.829,2.629 -29.332,15.861c-11.507,-4.268 -22.332,-10.329 -33.173,-16.237c-13.317,-7.273 -27.368,-15.997 -37.971,-23.817c1.178,-3.824 2.288,-7.7 3.329,-11.575c16.613,1.075 33.276,2.117 49.923,2.578c1.314,12.617 6.863,21.495 15.263,22.229c12.139,1.041 25.217,-13.573 28.82,-32.986c3.602,-19.429 -3.364,-37.748 -15.076,-41.129c-7.717,-2.237 -15.707,3.415 -21.41,13.778c-16.493,-2.219 -32.695,-6.829 -48.881,-11.729c0.291,-2.971 0.547,-5.959 0.752,-8.947c31.534,-7.409 63.751,-12.241 96.173,-13.044c5.908,23.818 19.839,39.457 37.288,37.852c22.776,-2.1 43.247,-30.203 42.53,-63.393c-0.717,-33.208 -22.417,-60.388 -45.244,-61.498" style="fill:#e03b5c;fill-rule:nonzero;"/><path id="path204" d="M550.289,572.963c0,-0 14.478,-181.114 195.045,-205.05c0,-0 31.364,103.634 -40.293,182.445c-62.249,68.446 -154.752,22.605 -154.752,22.605" style="fill:#fff;fill-rule:nonzero;"/><path id="path206" d="M726.434,500.009c0,36.075 -29.246,65.322 -65.322,65.322c-36.093,-0 -65.34,-29.247 -65.34,-65.322c0,-36.093 29.247,-65.34 65.34,-65.34c36.076,0 65.322,29.247 65.322,65.34" style="fill-rule:nonzero;"/><path id="path208" d="M549.658,572.894c-0.137,-3.5 0.034,-6.931 0.153,-10.397c0.222,-3.449 0.529,-6.898 0.888,-10.347c0.324,-3.449 0.888,-6.863 1.417,-10.278c0.546,-3.432 1.178,-6.846 1.827,-10.261c1.451,-6.778 3.193,-13.522 5.105,-20.232c0.939,-3.363 2.049,-6.675 3.175,-9.988c1.127,-3.295 2.305,-6.607 3.62,-9.851c10.227,-26.054 25.081,-50.844 44.886,-71.605c9.953,-10.295 20.966,-19.685 33.088,-27.437c6.043,-3.858 12.258,-7.495 18.763,-10.534l2.407,-1.161l2.459,-1.093c1.639,-0.7 3.244,-1.502 4.917,-2.117l5.002,-1.929c1.674,-0.649 3.381,-1.178 5.054,-1.776c13.488,-4.626 27.539,-7.153 41.471,-8.417c14,-0.905 27.949,-0.58 41.556,1.793l0,1.28c-27.044,0.24 -54.173,4.679 -79.254,14.786c-6.283,2.476 -12.378,5.395 -18.319,8.571c-5.976,3.158 -11.712,6.709 -17.261,10.534c-2.8,1.878 -5.481,3.927 -8.195,5.941c-2.63,2.1 -5.293,4.183 -7.82,6.403c-5.105,4.405 -10.022,9.049 -14.666,13.949c-18.678,19.497 -33.464,42.546 -44.834,67.081c-5.686,12.258 -10.5,24.926 -14.564,37.851c-4.046,12.89 -7.495,26.054 -9.612,39.388l-1.263,-0.154" style="fill-rule:nonzero;"/><path id="path210" d="M449.711,572.963c-0,-0 -14.478,-181.114 -195.045,-205.05c-0,-0 -31.347,103.634 40.293,182.445c62.249,68.446 154.752,22.605 154.752,22.605" style="fill:#fff;fill-rule:nonzero;"/><path id="path212" d="M273.566,500.009c-0,36.075 29.246,65.322 65.339,65.322c36.076,-0 65.323,-29.247 65.323,-65.322c-0,-36.093 -29.247,-65.34 -65.323,-65.34c-36.093,0 -65.339,29.247 -65.339,65.34" style="fill-rule:nonzero;"/><path id="path214" d="M449.079,573.048c-4.388,-12.959 -9.066,-25.61 -14.376,-37.92c-2.578,-6.163 -5.275,-12.275 -8.178,-18.251c-1.485,-2.971 -2.902,-5.959 -4.388,-8.912c-1.485,-2.954 -3.056,-5.874 -4.575,-8.793c-12.43,-23.22 -27.164,-44.834 -44.852,-63.427c-17.705,-18.559 -38.466,-33.925 -61.89,-44.937c-2.903,-1.417 -5.89,-2.663 -8.861,-3.995c-3.039,-1.178 -6.027,-2.459 -9.117,-3.586c-6.095,-2.39 -12.413,-4.268 -18.781,-6.095c-12.754,-3.687 -25.968,-6.18 -39.507,-8.588l-0,-1.28c13.607,-0.085 27.248,0.905 40.702,3.107c6.693,1.213 13.386,2.595 19.942,4.491c3.312,0.853 6.539,1.963 9.8,2.97l4.814,1.708c1.622,0.563 3.21,1.178 4.781,1.826c6.368,2.476 12.549,5.396 18.593,8.571c6.044,3.159 11.883,6.744 17.534,10.569c2.834,1.895 5.566,3.944 8.315,5.975c2.68,2.117 5.378,4.217 7.956,6.454c5.207,4.422 10.193,9.1 14.922,14.034c18.815,19.839 33.6,43.195 44.92,67.952c11.251,24.807 19.446,50.998 23.509,77.973l-1.263,0.154" style="fill-rule:nonzero;"/><path id="path216" d="M391.081,695.531c0,0 81.149,-33.941 108.467,-8.485c-0,0 44.305,-21.256 109.371,1.161c-0,0 -76.386,78.042 -217.838,7.324" style="fill:#7a29ff;fill-rule:nonzero;"/><path id="path218" d="M391.081,695.531c0,0 162.316,18.696 217.838,-7.324c-0,0 -19.344,17.927 -109.201,17.927c-89.856,-0 -108.637,-10.603 -108.637,-10.603" style="fill:#1b005e;fill-rule:nonzero;"/><path id="path220" d="M684.758,630.773c0,8.348 -6.761,15.109 -15.093,15.109c-8.348,0 -15.109,-6.761 -15.109,-15.109c-0,-8.332 6.761,-15.093 15.109,-15.093c8.332,-0 15.093,6.761 15.093,15.093" style="fill:#1b005e;fill-rule:nonzero;"/></svg>