<?xml version="1.0" encoding="UTF-8" standalone="no"?><!DOCTYPE svg PUBLIC "-//W3C//DTD SVG 1.1//EN" "http://www.w3.org/Graphics/SVG/1.1/DTD/svg11.dtd"><svg width="100%" height="100%" viewBox="0 0 1000 1000" version="1.1" xmlns="http://www.w3.org/2000/svg" xmlns:xlink="http://www.w3.org/1999/xlink" xml:space="preserve" xmlns:serif="http://www.serif.com/" style="fill-rule:evenodd;clip-rule:evenodd;stroke-linejoin:round;stroke-miterlimit:2;"><path id="path262" d="M957.136,445.125c-17.791,-1.541 -31.821,14.793 -37.413,39.379c-20.859,-0.305 -41.599,-4.27 -62.39,-7.472c-10.878,-1.847 -22.536,-4.118 -34.228,-6.676c-2.05,-22.96 -6.489,-45.242 -13.081,-66.592c21.926,-16.894 46.276,-30.856 72.235,-40.413c8.506,12.624 19.808,19.046 28.822,14.861c11.76,-5.456 15.657,-25.688 7.981,-45.056c-7.676,-19.384 -24.383,-31.499 -36.719,-27.5c-9.217,2.999 -13.132,14.775 -11.081,29.212c-11.302,3.084 -23.282,9.556 -35.109,12.674c-15.132,3.745 -31.856,6.863 -45.14,8.218c-9.269,-18.825 -20.418,-36.617 -33.195,-53.154c19.131,-26.485 39.634,-52.02 59.221,-78.081c20.893,14.149 42.311,16.487 54.257,3.203c15.283,-16.995 11.2,-51.545 -11.879,-75.403c-23.078,-23.858 -57.475,-29.077 -74.962,-14.369c-13.606,11.421 -12.064,32.72 1.169,53.951c-15.318,14.589 -33.16,26.078 -49.19,39.176c-8.997,6.388 -18.859,13.03 -28.941,19.503c-16.504,-13.674 -34.346,-25.79 -53.239,-36.126c4.439,-27.789 9.319,-55.306 21.621,-80.316c15.03,3.033 27.653,-0.39 31.042,-9.811c4.423,-12.217 -7.133,-29.314 -26.247,-37.634c-19.113,-8.303 -39.447,-5.083 -45.292,6.49c-4.592,9.065 1.83,20.892 14.724,29.907c-4.71,11.336 -11.183,21.909 -17.503,32.516c-7.896,13.251 -17.335,27.179 -25.637,37.532c-21.537,-7.76 -43.988,-13.318 -66.965,-16.436c-6.117,-31.584 -9.658,-63.745 -9.235,-95.973c24.028,-4.982 40.193,-18.3 39.261,-35.804c-1.22,-22.824 -28.518,-44.378 -61.712,-44.92c-33.211,-0.559 -61.204,20.079 -63.186,42.853c-1.542,17.791 14.793,31.821 39.379,37.413c-0.305,20.859 -4.27,41.599 -7.473,62.39c-1.745,10.319 -3.897,21.35 -6.286,32.448c-23.383,2.101 -46.106,6.744 -67.88,13.674c-16.487,-21.604 -30.127,-45.546 -39.514,-71.048c12.624,-8.506 19.046,-19.808 14.86,-28.822c-5.456,-11.76 -25.688,-15.657 -45.055,-7.981c-19.368,7.676 -31.5,24.383 -27.501,36.719c2.999,9.217 14.776,13.132 29.212,11.081c3.084,11.302 9.557,23.282 12.675,35.109c3.66,14.793 6.727,31.11 8.116,44.242c-18.91,9.54 -36.82,20.876 -53.494,33.771c-26.331,-19.029 -51.731,-39.43 -77.639,-58.899c14.148,-20.893 16.487,-42.311 3.202,-54.257c-16.995,-15.267 -51.545,-11.2 -75.403,11.878c-23.857,23.079 -29.076,57.476 -14.369,74.98c11.421,13.589 32.72,12.064 53.952,-1.186c14.589,15.334 26.077,33.16 39.175,49.189c6.27,8.845 12.793,18.487 19.131,28.382c-13.861,16.606 -26.146,34.584 -36.567,53.664c-27.517,-4.406 -54.747,-9.303 -79.503,-21.469c3.033,-15.047 -0.39,-27.653 -9.811,-31.059c-12.2,-4.423 -29.314,7.15 -37.617,26.247c-8.319,19.113 -5.1,39.463 6.473,45.309c9.065,4.575 20.91,-1.83 29.907,-14.741c11.336,4.71 21.909,11.183 32.517,17.503c13.013,7.761 26.687,16.995 36.972,25.197c-7.709,21.604 -13.216,44.174 -16.182,67.473c-31.482,6.083 -63.541,9.607 -95.668,9.166c-4.982,-24.027 -18.3,-40.192 -35.804,-39.26c-22.824,1.22 -44.36,28.535 -44.92,61.729c-0.542,33.194 20.08,61.186 42.853,63.169c17.792,1.542 31.822,-14.776 37.413,-39.379c20.859,0.305 41.616,4.27 62.39,7.472c10.319,1.763 21.35,3.898 32.449,6.287c2.118,23.383 6.744,46.106 13.674,67.879c-21.604,16.487 -45.547,30.145 -71.048,39.515c-8.506,-12.624 -19.808,-19.046 -28.823,-14.86c-11.759,5.456 -15.657,25.687 -7.981,45.055c7.676,19.384 24.383,31.5 36.736,27.501c9.201,-2.999 13.115,-14.776 11.065,-29.212c11.302,-3.084 23.281,-9.557 35.109,-12.675c14.792,-3.66 31.11,-6.727 44.242,-8.116c9.539,18.927 20.875,36.82 33.77,53.493c-19.029,26.332 -39.413,51.732 -58.899,77.64c-20.893,-14.149 -42.31,-16.487 -54.256,-3.203c-15.267,16.996 -11.201,51.546 11.878,75.403c23.095,23.858 57.476,29.077 74.979,14.369c13.59,-11.42 12.065,-32.72 -1.186,-53.951c15.335,-14.589 33.16,-26.077 49.207,-39.176c8.828,-6.269 18.486,-12.776 28.365,-19.13c16.622,13.861 34.584,26.145 53.663,36.583c-4.406,27.501 -9.302,54.731 -21.469,79.487c-15.046,-3.033 -27.653,0.389 -31.059,9.811c-4.405,12.217 7.151,29.314 26.247,37.633c19.114,8.303 39.464,5.084 45.31,-6.489c4.575,-9.066 -1.83,-20.91 -14.742,-29.907c4.711,-11.336 11.183,-21.91 17.504,-32.517c7.76,-13.013 16.995,-26.687 25.196,-36.973c21.604,7.71 44.191,13.217 67.473,16.182c6.083,31.5 9.608,63.559 9.167,95.669c-24.027,4.981 -40.192,18.3 -39.243,35.803c1.203,22.825 28.517,44.361 61.711,44.92c33.195,0.559 61.204,-20.079 63.169,-42.852c1.542,-17.792 -14.775,-31.822 -39.379,-37.414c0.305,-20.858 4.287,-41.598 7.473,-62.389c1.762,-10.353 3.914,-21.418 6.32,-32.551c23.214,-2.185 45.852,-6.93 67.575,-13.945c16.605,21.723 30.364,45.784 39.785,71.421c-12.623,8.506 -19.045,19.808 -14.86,28.823c5.473,11.759 25.688,15.656 45.055,7.98c19.385,-7.675 31.5,-24.383 27.501,-36.718c-2.982,-9.218 -14.758,-13.132 -29.212,-11.082c-3.084,-11.302 -9.557,-23.282 -12.674,-35.109c-3.711,-15.03 -6.812,-31.618 -8.185,-44.869c18.758,-9.489 36.516,-20.74 53.087,-33.499c26.502,19.147 52.054,39.667 78.131,59.255c-14.165,20.892 -16.503,42.31 -3.219,54.256c17.012,15.267 51.545,11.2 75.403,-11.878c23.875,-23.078 29.077,-57.476 14.369,-74.979c-11.421,-13.59 -32.72,-12.065 -53.951,1.186c-14.59,-15.335 -26.078,-33.161 -39.176,-49.19c-6.32,-8.913 -12.895,-18.656 -19.3,-28.636c13.963,-16.572 26.264,-34.465 36.685,-53.426c27.535,4.405 54.782,9.319 79.554,21.485c-3.033,15.047 0.407,27.654 9.828,31.06c12.2,4.422 29.297,-7.151 37.617,-26.247c8.303,-19.114 5.083,-39.447 -6.473,-45.293c-9.082,-4.592 -20.909,1.813 -29.907,14.725c-11.353,-4.711 -21.926,-11.184 -32.533,-17.504c-13.031,-7.777 -26.739,-17.029 -37.024,-25.247c7.591,-21.587 12.793,-44.107 15.301,-67.236c31.788,-6.201 64.169,-9.794 96.6,-9.353c4.999,24.027 18.3,40.192 35.804,39.26c22.824,-1.22 44.378,-28.517 44.92,-61.729c0.559,-33.194 -20.062,-61.186 -42.853,-63.169" style="fill:#d39cec;fill-rule:nonzero;"/><path id="path264" d="M260.04,405.425l253.439,65.236l253.439,-65.236l-9.184,57.323l-197.929,88.484l-42.242,218.007l-20.978,-5.727l-40.328,-219.092l-196.217,-97.719l0,-41.276" style="fill:#360b51;fill-rule:nonzero;"/><path id="path266" d="M546.182,521.121c-0,18.063 -14.64,32.703 -32.703,32.703c-18.063,0 -32.703,-14.64 -32.703,-32.703c0,-18.062 14.64,-32.702 32.703,-32.702c18.063,-0 32.703,14.64 32.703,32.702" style="fill:#f9003c;fill-rule:nonzero;"/></svg>