<?xml version="1.0" encoding="UTF-8" standalone="no"?><!DOCTYPE svg PUBLIC "-//W3C//DTD SVG 1.1//EN" "http://www.w3.org/Graphics/SVG/1.1/DTD/svg11.dtd"><svg width="100%" height="100%" viewBox="0 0 3750 3750" version="1.1" xmlns="http://www.w3.org/2000/svg" xmlns:xlink="http://www.w3.org/1999/xlink" xml:space="preserve" xmlns:serif="http://www.serif.com/" style="fill-rule:evenodd;clip-rule:evenodd;stroke-linejoin:round;stroke-miterlimit:2;"><path id="path100" d="M3586.96,1652.07c-66.756,-5.083 -118.791,56.615 -138.8,149.067c-78.252,-0.381 -156.179,-14.488 -234.221,-25.671c-40.851,-6.544 -84.631,-14.614 -128.595,-23.764c-1.449,-14.551 -3.171,-29.038 -5.128,-43.398c41.448,-11.882 82.947,-23.51 123.321,-37.299c13.624,26.751 33.766,42.191 52.975,37.362c27.653,-6.926 43.405,-50.07 34.834,-96.582c-8.572,-46.512 -38.704,-81.396 -67.043,-78.155c-18.732,2.097 -31.676,21.667 -35.673,49.181c-30.557,7.561 -77.26,13.661 -128.074,17.41c-7.587,-33.105 -16.546,-65.702 -26.783,-97.726c81.569,-64.176 172.344,-117.424 269.366,-154.214c32.368,47.021 74.979,70.658 108.637,54.645c43.869,-20.905 57.702,-96.899 28.2,-169.272c-29.496,-72.31 -92.606,-117.17 -138.731,-101.666c-34.433,11.501 -48.647,55.853 -40.431,109.926c-42.274,12.009 -86.912,36.727 -131.163,48.799c-56.59,14.615 -119.191,26.942 -168.951,32.533c-6.201,-12.327 -12.606,-24.527 -19.24,-36.599c49.194,-39.141 100.472,-75.677 154.565,-108.401c34.166,27.005 69.343,34.757 92.663,16.267c35.78,-28.467 33.823,-101.984 -6.374,-164.126c-40.196,-62.207 -106.406,-94.231 -147.016,-73.263c-27.024,13.915 -34.128,50.388 -22.576,93.85c-51.513,37.934 -107.106,66.273 -163.69,93.405c-4.855,-6.418 -9.779,-12.835 -14.767,-19.126c70.709,-100.077 146.654,-196.595 219.111,-295.084c78.861,52.358 159.261,60.301 203.524,10.04c56.653,-64.367 40.088,-193.673 -47.358,-282.312c-87.452,-88.576 -216.569,-106.876 -281.636,-51.023c-50.547,43.335 -44.002,123.142 6.456,202.25c-56.933,55.281 -123.366,98.997 -182.987,148.749c-33.512,24.273 -70.214,49.499 -107.799,74.152c-10.84,-8.768 -21.832,-17.41 -32.965,-25.861c21.159,-37.743 44.899,-74.088 71.249,-108.4c26.357,7.37 49.137,3.494 58.668,-12.518c14.57,-24.527 -4.816,-66.337 -43.704,-93.214c-38.893,-26.942 -84.72,-30.309 -102.378,-7.943c-11.736,14.869 -6.901,38.061 9.932,60.554c-16.153,27.069 -44.677,64.431 -77.667,103.064c-27.342,-17.41 -55.39,-33.804 -84.06,-49.117c15.587,-104.334 32.864,-207.715 77.998,-301.946c56.488,10.865 103.674,-2.542 116.084,-37.998c16.07,-45.876 -27.914,-109.608 -99.862,-140.044c-71.955,-30.436 -148.116,-17.601 -169.599,25.988c-16.858,34.185 7.644,78.346 56.368,111.578c-17.258,42.7 -41.118,82.603 -64.419,122.634c-29.127,49.943 -63.974,102.555 -94.734,141.632c-13.82,-4.829 -27.736,-9.404 -41.747,-13.724c5.884,-62.779 11.635,-125.748 15.142,-188.717c47.415,-3.558 81.327,-23.446 84.917,-54.772c5.204,-45.432 -48.158,-96.01 -120.564,-111.578c-72.399,-15.567 -141.838,8.642 -155.74,52.167c-9.176,28.721 11.138,59.284 49.352,81.714c-9.982,61.126 -28.727,120.918 -48.679,180.647c-11.412,-1.78 -22.869,-3.368 -34.357,-4.766c-24.146,-118.249 -38.646,-238.723 -38.207,-359.578c89.879,-19.57 149.977,-70.085 145.815,-135.659c-5.427,-85.59 -108.599,-165.333 -233.09,-166.159c-124.484,-0.763 -228.705,77.583 -235.257,163.045c-5.115,66.782 56.635,118.822 149.075,138.773c-0.381,78.283 -14.493,156.184 -25.708,234.275c-6.177,38.76 -13.776,80.189 -22.361,121.872c-15.612,1.588 -31.167,3.367 -46.608,5.528c-11.234,-39.332 -22.392,-78.664 -35.43,-117.042c26.7,-13.598 42.14,-33.741 37.337,-52.93c-6.914,-27.64 -50.071,-43.398 -96.596,-34.884c-46.526,8.578 -81.359,38.76 -78.15,67.099c2.122,18.681 21.674,31.644 49.162,35.647c7.307,29.356 13.172,73.644 16.972,122.189c-34.097,8.006 -67.697,17.346 -100.676,28.212c-62.613,-80.379 -114.686,-169.654 -150.784,-264.902c47.002,-32.406 70.633,-74.978 54.595,-108.655c-20.911,-43.843 -96.888,-57.695 -169.237,-28.212c-72.348,29.547 -117.164,92.643 -101.698,138.773c11.545,34.44 55.847,48.609 109.946,40.412c11.978,42.255 36.702,86.924 48.832,131.149c14.252,55.28 26.363,116.406 32.114,165.587c-12.772,6.608 -25.449,13.344 -37.966,20.397c-38.513,-48.546 -74.408,-99.061 -106.636,-152.371c26.98,-34.122 34.751,-69.323 16.222,-92.643c-28.416,-35.773 -101.927,-33.804 -164.122,6.354c-62.201,40.222 -94.187,106.431 -73.244,147.034c13.935,27.005 50.414,34.121 93.826,22.557c37.578,50.959 65.67,105.922 92.535,161.838c-6.697,5.083 -13.331,10.23 -19.92,15.441c-99.462,-70.34 -195.448,-145.827 -293.366,-217.882c52.314,-78.854 60.257,-159.297 9.996,-203.521c-64.33,-56.679 -193.675,-40.094 -282.278,47.338c-88.609,87.432 -106.877,216.547 -51.068,281.613c43.348,50.578 123.156,44.034 202.246,-6.418c55.288,56.933 99.036,123.333 148.751,182.934c23.841,32.914 48.622,68.878 72.806,105.732c-9.092,11.12 -18.026,22.366 -26.744,33.804c-36.924,-20.842 -72.489,-44.161 -106.115,-70.022c7.346,-26.306 3.489,-49.117 -12.549,-58.648c-24.521,-14.551 -66.306,4.829 -93.235,43.716c-26.929,38.887 -30.297,84.7 -7.93,102.364c14.862,11.755 38.1,6.926 60.555,-9.912c26.592,15.821 63.091,43.652 100.987,75.867c-17.785,27.768 -34.541,56.234 -50.103,85.399c-103.306,-15.504 -205.576,-32.85 -298.881,-77.52c10.841,-56.551 -2.509,-103.698 -37.966,-116.089c-45.921,-16.075 -109.609,27.895 -140.058,99.823c-30.443,71.992 -17.62,148.114 25.976,169.59c34.204,16.902 78.327,-7.624 111.585,-56.36c42.7,17.283 82.604,41.111 122.604,64.43c49.073,28.594 100.694,62.715 139.544,93.087c-4.944,14.297 -9.684,28.657 -14.1,43.145c-61.966,-5.783 -124.065,-11.438 -186.215,-14.869c-3.546,-47.465 -23.447,-81.332 -54.811,-84.954c-45.395,-5.21 -95.987,48.164 -111.548,120.601c-15.555,72.373 8.642,141.823 52.168,155.738c28.714,9.15 59.246,-11.183 81.727,-49.371c60.651,9.912 120.024,28.466 179.302,48.227c-1.709,11.628 -3.279,23.32 -4.658,35.075c-117.831,23.955 -237.9,38.379 -358.336,37.934c-19.609,-89.911 -70.125,-149.957 -135.713,-145.826c-85.546,5.464 -165.297,108.591 -166.117,233.067c-0.813,124.54 77.572,228.747 163.035,235.292c66.764,5.083 118.792,-56.615 138.801,-149.067c78.258,0.381 156.179,14.488 234.227,25.671c38.773,6.227 80.196,13.788 121.905,22.366c1.563,15.631 3.348,31.199 5.509,46.639c-39.351,11.247 -78.69,22.366 -117.018,35.392c-13.624,-26.687 -33.76,-42.127 -52.975,-37.298c-27.647,6.926 -43.405,50.07 -34.834,96.582c8.578,46.512 38.704,81.332 67.049,78.155c18.733,-2.097 31.676,-21.667 35.673,-49.181c29.362,-7.307 73.657,-13.152 122.165,-16.965c8.006,34.122 17.398,67.671 28.263,100.649c-80.424,62.651 -169.656,114.691 -264.937,150.846c-32.374,-47.021 -74.985,-70.658 -108.637,-54.645c-43.869,20.905 -57.702,96.899 -28.206,169.272c29.502,72.31 92.612,117.17 138.737,101.666c34.427,-11.565 48.647,-55.853 40.431,-109.926c42.275,-12.009 86.906,-36.727 131.163,-48.863c55.294,-14.233 116.389,-26.306 165.577,-32.088c6.596,12.772 13.356,25.416 20.391,37.997c-48.515,38.506 -99.068,74.343 -152.348,106.622c-34.16,-27.005 -69.343,-34.757 -92.663,-16.267c-35.774,28.467 -33.817,101.984 6.373,164.126c40.197,62.207 106.407,94.231 147.017,73.263c27.03,-13.915 34.134,-50.388 22.583,-93.85c50.954,-37.552 105.898,-65.637 161.84,-92.515c5.077,6.672 10.224,13.343 15.434,19.952c-70.378,99.441 -145.872,195.451 -217.935,293.304c-78.855,-52.294 -159.254,-60.237 -203.524,-9.976c-56.653,64.367 -40.088,193.673 47.364,282.312c87.446,88.576 216.569,106.876 281.63,51.023c50.547,-43.335 44.009,-123.142 -6.45,-202.25c56.933,-55.281 123.366,-98.997 182.987,-148.749c32.883,-23.828 68.835,-48.609 105.683,-72.754c11.126,9.086 22.386,17.982 33.817,26.687c-20.836,36.98 -44.162,72.5 -69.991,106.113c-26.357,-7.307 -49.131,-3.431 -58.662,12.581c-14.57,24.527 4.81,66.337 43.704,93.214c38.894,26.942 84.714,30.309 102.372,7.943c11.736,-14.869 6.907,-38.125 -9.925,-60.554c15.853,-26.561 43.646,-63.097 75.875,-100.967c27.761,17.792 56.215,34.503 85.381,50.07c-15.466,103.318 -32.845,205.618 -77.528,298.896c-56.494,-10.865 -103.674,2.478 -116.084,37.934c-16.076,45.94 27.914,109.672 99.862,140.108c71.955,30.436 148.11,17.601 169.593,-25.988c16.864,-34.185 -7.638,-78.346 -56.361,-111.578c17.257,-42.7 41.117,-82.603 64.418,-122.634c28.587,-49.053 62.716,-100.649 93.057,-139.536c14.297,4.957 28.676,9.722 43.189,14.106c-5.801,61.953 -11.45,124.096 -14.907,186.239c-47.421,3.494 -81.327,23.446 -84.923,54.772c-5.204,45.432 48.158,96.01 120.564,111.578c72.399,15.567 141.837,-8.642 155.747,-52.167c9.175,-28.721 -11.139,-59.284 -49.353,-81.714c9.912,-60.681 28.454,-120.029 48.234,-179.312c11.641,1.715 23.314,3.24 35.044,4.638c24.006,117.805 38.391,237.897 37.959,358.307c-89.873,19.634 -149.977,70.149 -145.815,135.723c5.426,85.59 108.599,165.333 233.09,166.159c124.491,0.763 228.705,-77.583 235.257,-163.045c5.121,-66.782 -56.629,-118.822 -149.076,-138.837c0.388,-78.219 14.501,-156.183 25.709,-234.211c6.202,-38.887 13.827,-80.443 22.443,-122.253c15.524,-1.652 30.996,-3.495 46.367,-5.719c11.285,39.523 22.493,79.109 35.596,117.614c-26.707,13.598 -42.141,33.741 -37.337,52.93c6.907,27.64 50.07,43.398 96.596,34.82c46.518,-8.578 81.358,-38.696 78.15,-67.035c-2.123,-18.745 -21.681,-31.644 -49.163,-35.647c-7.364,-29.61 -13.261,-74.342 -17.061,-123.269c33.747,-8.07 67.018,-17.601 99.723,-28.53c63.084,80.761 115.525,170.48 151.826,266.3c-47.008,32.342 -70.639,74.978 -54.595,108.655c20.905,43.843 96.888,57.695 169.237,28.212c72.349,-29.547 117.164,-92.643 101.692,-138.773c-11.539,-34.44 -55.847,-48.609 -109.94,-40.412c-11.977,-42.255 -36.701,-86.924 -48.831,-131.149c-14.488,-56.233 -26.726,-118.313 -32.369,-167.938c12.378,-6.418 24.674,-12.962 36.81,-19.825c39.046,49.054 75.424,100.204 108.04,154.15c-26.973,34.122 -34.745,69.323 -16.222,92.643c28.422,35.773 101.927,33.804 164.128,-6.354c62.201,-40.222 94.181,-106.431 73.238,-147.034c-13.935,-27.068 -50.414,-34.121 -93.826,-22.557c-38.023,-51.595 -66.331,-107.257 -93.482,-163.872c6.405,-4.829 12.746,-9.721 19.056,-14.741c100.11,70.784 196.668,146.779 295.183,219.216c-52.314,78.854 -60.263,159.297 -9.995,203.521c64.323,56.679 193.668,40.094 282.277,-47.338c88.609,-87.432 106.871,-216.547 51.069,-281.613c-43.348,-50.578 -123.163,-44.034 -202.247,6.418c-55.294,-56.933 -99.036,-123.333 -148.757,-182.998c-24.045,-33.168 -49.042,-69.45 -73.436,-106.621c9.042,-10.929 17.856,-22.049 26.516,-33.296c37.236,20.905 73.092,44.415 106.979,70.467c-7.345,26.306 -3.495,49.117 12.543,58.648c24.521,14.551 66.306,-4.829 93.235,-43.716c26.929,-38.887 30.303,-84.7 7.93,-102.364c-14.863,-11.755 -38.093,-6.926 -60.555,9.912c-26.675,-15.885 -63.32,-43.779 -101.343,-76.185c17.887,-27.64 34.643,-56.043 50.217,-85.081c103.389,15.44 205.742,32.85 299.129,77.52c-10.847,56.487 2.51,103.698 37.966,116.089c45.915,16.075 109.609,-27.895 140.058,-99.823c30.443,-71.992 17.614,-148.114 -25.975,-169.59c-34.205,-16.902 -78.328,7.624 -111.592,56.36c-42.694,-17.283 -82.598,-41.111 -122.604,-64.43c-49.168,-28.657 -100.91,-62.842 -139.792,-93.278c4.855,-14.233 9.398,-28.593 13.694,-43.017c62.182,5.782 124.503,11.501 186.869,14.932c3.546,47.465 23.447,81.332 54.811,84.954c45.395,5.21 95.986,-48.164 111.548,-120.601c15.561,-72.373 -8.642,-141.823 -52.162,-155.738c-28.714,-9.15 -59.252,11.183 -81.727,49.371c-61.559,-10.039 -121.79,-28.974 -181.951,-49.117c1.436,-11.12 2.713,-22.239 3.812,-33.422c118.95,-24.464 240.2,-39.142 361.825,-38.697c19.616,89.847 70.131,149.957 135.719,145.826c85.546,-5.464 165.291,-108.591 166.111,-233.067c0.819,-124.54 -77.566,-228.747 -163.036,-235.292" style="fill:#aa0009;fill-rule:nonzero;"/><path id="path102" d="M1059.24,2040.75c462.304,449.933 1265.28,446.12 1724.63,-6.1c-64.939,460.544 -484.536,806.524 -949.204,776.914c-375.016,-23.828 -813.638,-352.143 -775.431,-770.814" style="fill-rule:nonzero;"/><clipPath id="_clip1"><path d="M1059.24,2040.75c462.304,449.933 1265.28,446.12 1724.63,-6.1c-64.939,460.544 -484.536,806.524 -949.204,776.914c-375.016,-23.828 -813.638,-352.143 -775.431,-770.814" clip-rule="nonzero"/></clipPath><g clip-path="url(#_clip1)"><path id="path112" d="M1153.24,2034.65l34.675,266.427l130.978,-205.237l30.437,288.158l148.573,-231.352l47.904,318.72l96.176,-244.505l69.858,275.069l104.78,-233.64l54.843,255.434l111.071,-244.505l56.19,222.711l122.813,-275.069l78.588,244.505l86.989,-292.542l78.925,245.205l74.217,-280.152l78.588,183.379l56.762,-266.3c-0,0 -815.951,-83.111 -1462.37,-26.306" style="fill:#fff;fill-rule:nonzero;"/><path id="path114" d="M1030.74,2366.58l96.05,-97.345l26.452,271.955l108.898,-135.978l52.39,301.883l109.152,-161.521l56.761,235.737l109.146,-157.2l89.2,235.8l76.714,-148.432l81.822,148.432l83.062,-139.727l118.34,168.574l100.987,-207.842l104.78,109.163l56.761,-179.058l87.319,113.548l96.056,-261.979l69.852,116.407l61.127,-212.417l52.39,157.136c-0,0 -328.58,473.252 -793,419.115c-464.413,-54.073 -891.242,-268.015 -844.259,-576.251" style="fill:#fff;fill-rule:nonzero;"/></g><path id="path116" d="M2038.73,1851.39c-0,-0 349.447,-434.874 779.51,-196.469c-0,0 -203.194,478.018 -779.51,196.469" style="fill-rule:nonzero;"/><path id="path118" d="M2526.72,1761.87c-0,65.065 -43.984,117.868 -98.235,117.868c-54.252,-0 -98.236,-52.803 -98.236,-117.868c0,-65.13 43.984,-117.932 98.236,-117.932c54.251,-0 98.235,52.802 98.235,117.932" style="fill:#ffb903;fill-rule:nonzero;"/><path id="path120" d="M1837.33,1851.39c0,-0 -349.447,-434.874 -779.51,-196.469c0,0 203.194,478.018 779.51,196.469" style="fill-rule:nonzero;"/><path id="path122" d="M1349.33,1761.87c-0,65.065 43.983,117.868 98.235,117.868c54.258,-0 98.242,-52.803 98.242,-117.868c-0,-65.13 -43.984,-117.932 -98.242,-117.932c-54.252,-0 -98.235,52.802 -98.235,117.932" style="fill:#ffb903;fill-rule:nonzero;"/><path id="path124" d="M2004.58,1495.25c0,0 230.968,-287.458 515.215,-129.877c0,-0 -134.295,315.988 -515.215,129.877" style="fill-rule:nonzero;"/><path id="path126" d="M2327.12,1436.09c-0,43.017 -29.07,77.901 -64.927,77.901c-35.863,-0 -64.927,-34.884 -64.927,-77.901c0,-43.081 29.064,-77.965 64.927,-77.965c35.857,0 64.927,34.884 64.927,77.965" style="fill:#ffb903;fill-rule:nonzero;"/><path id="path128" d="M1871.47,1495.25c0,0 -230.961,-287.458 -515.208,-129.877c-0,-0 134.295,315.988 515.208,129.877" style="fill-rule:nonzero;"/><path id="path130" d="M1548.94,1436.09c-0,43.017 29.07,77.901 64.927,77.901c35.856,-0 64.927,-34.884 64.927,-77.901c-0,-43.081 -29.071,-77.965 -64.927,-77.965c-35.857,0 -64.927,34.884 -64.927,77.965" style="fill:#ffb903;fill-rule:nonzero;"/><path id="path132" d="M1062.77,2050.15c-11.755,156.628 42.821,310.334 158.168,445.04c150.213,175.373 391.226,297.943 614.003,312.113c18.821,1.144 37.623,1.779 56.26,1.779c437.09,-0 818.461,-324.44 886.546,-762.426c-110.594,106.43 -241.941,189.542 -390.578,247.046c-146.94,56.806 -303.214,85.971 -464.496,86.606c-161.535,0.572 -317.81,-27.322 -465.048,-83.111c-150.245,-56.869 -283.047,-139.98 -394.855,-247.047Zm827.453,767.51c-18.574,-0 -37.191,-0.572 -55.828,-1.779c-224.982,-14.297 -468.347,-138.011 -619.995,-315.099c-119.109,-139.091 -174.244,-298.324 -159.452,-460.417l0.82,-8.959l6.469,6.29c228.222,222.075 541.705,332.954 855.34,333.018c316.794,-0 633.739,-113.166 863.271,-339.118l9.061,-8.895l-1.779,12.581c-31.6,224.108 -147.461,428.328 -326.23,574.981c-164.344,134.77 -365.466,207.397 -571.677,207.397" style="fill-rule:nonzero;"/></svg>