<?xml version="1.0" encoding="UTF-8" standalone="no"?><!DOCTYPE svg PUBLIC "-//W3C//DTD SVG 1.1//EN" "http://www.w3.org/Graphics/SVG/1.1/DTD/svg11.dtd">
<svg width="100%" height="100%" viewBox="0 0 1000 1000" version="1.1" xmlns="http://www.w3.org/2000/svg"
     xml:space="preserve"
     style="fill-rule:evenodd;clip-rule:evenodd;stroke-linejoin:round;stroke-miterlimit:2;"><path id="path134" d="M954.738,427.635c-17.842,-0.854 -31.244,15.998 -35.888,40.788c-20.864,0.495 -41.744,-2.68 -62.625,-5.088c-10.944,-1.417 -22.673,-3.244 -34.471,-5.344c-0.495,-3.875 -1.059,-7.717 -1.69,-11.541c10.961,-3.483 21.939,-6.898 32.593,-10.859c3.841,7.017 9.322,10.978 14.409,9.544c7.308,-2.049 11.183,-13.676 8.554,-26.002c-2.646,-12.344 -10.927,-21.41 -18.473,-20.335c-4.968,0.7 -8.281,6.01 -9.134,13.369c-8.093,2.27 -20.488,4.234 -34.01,5.617c-2.271,-8.759 -4.9,-17.381 -7.888,-25.849c21.273,-17.722 45.073,-32.61 70.666,-43.144c8.981,12.292 20.522,18.268 29.366,13.744c11.542,-5.908 14.649,-26.276 6.249,-45.347c-8.417,-19.054 -25.576,-30.527 -37.766,-26.054c-9.083,3.33 -12.549,15.247 -9.937,29.605c-11.183,3.517 -22.895,10.449 -34.607,14.018c-14.973,4.319 -31.569,8.075 -44.8,9.936c-1.742,-3.227 -3.552,-6.436 -5.396,-9.595c12.805,-10.824 26.208,-20.949 40.379,-30.083c9.322,6.932 18.746,8.741 24.824,3.637c9.322,-7.854 8.247,-27.437 -2.936,-43.708c-11.183,-16.288 -29.076,-24.312 -39.747,-18.422c-7.102,3.927 -8.724,13.693 -5.31,25.183c-13.453,10.517 -28.051,18.473 -42.939,26.139c-1.332,-1.673 -2.698,-3.329 -4.081,-4.985c18.098,-27.215 37.613,-53.508 56.189,-80.313c21.427,13.351 42.922,14.871 54.344,1.127c14.614,-17.585 9.219,-51.937 -14.769,-74.9c-23.97,-22.964 -58.544,-26.857 -75.463,-11.491c-13.147,11.935 -10.808,33.174 3.244,53.884c-14.752,15.161 -32.149,27.334 -47.652,41.027c-8.759,6.726 -18.354,13.744 -28.188,20.59c-2.954,-2.254 -5.958,-4.473 -8.98,-6.642c5.361,-10.209 11.405,-20.078 18.166,-29.434c7.085,1.759 13.129,0.564 15.553,-3.79c3.705,-6.642 -1.775,-17.637 -12.361,-24.517c-10.568,-6.898 -22.81,-7.444 -27.351,-1.349c-3.005,4.063 -1.554,10.21 3.107,16.066c-4.097,7.358 -11.422,17.534 -19.924,28.085c-7.427,-4.456 -15.025,-8.605 -22.776,-12.463c3.363,-27.949 7.188,-55.642 18.507,-81.098c15.144,2.458 27.625,-1.451 30.664,-10.995c3.927,-12.361 -8.281,-29.025 -27.693,-36.588c-19.412,-7.581 -39.61,-3.586 -45.005,8.195c-4.251,9.254 2.629,20.829 15.861,29.332c-4.268,11.507 -10.329,22.332 -16.254,33.173c-7.375,13.539 -16.27,27.829 -24.175,38.483c-3.722,-1.178 -7.461,-2.305 -11.235,-3.346c1.093,-16.783 2.152,-33.6 2.613,-50.418c12.617,-1.314 21.495,-6.863 22.229,-15.263c1.041,-12.139 -13.573,-25.217 -32.986,-28.82c-19.429,-3.602 -37.748,3.364 -41.129,15.076c-2.237,7.734 3.415,15.707 13.778,21.427c-2.202,16.356 -6.761,32.439 -11.627,48.505c-3.056,-0.376 -6.112,-0.717 -9.185,-1.007c-7.342,-31.33 -12.105,-63.342 -12.908,-95.559c23.818,-5.908 39.457,-19.839 37.852,-37.288c-2.1,-22.759 -30.203,-43.247 -63.393,-42.53c-33.208,0.717 -60.388,22.417 -61.498,45.244c-0.854,17.842 15.998,31.244 40.788,35.888c0.495,20.864 -2.68,41.744 -5.071,62.625c-1.366,10.398 -3.073,21.495 -5.053,32.678c-4.149,0.53 -8.281,1.127 -12.379,1.827c-3.295,-10.415 -6.573,-20.812 -10.329,-30.937c7.017,-3.841 10.978,-9.322 9.544,-14.409c-2.049,-7.308 -13.676,-11.183 -26.002,-8.554c-12.344,2.646 -21.41,10.927 -20.335,18.473c0.7,4.968 6.027,8.281 13.386,9.134c2.168,7.769 4.063,19.532 5.446,32.44c-9.032,2.39 -17.927,5.156 -26.634,8.297c-17.295,-20.966 -31.859,-44.373 -42.205,-69.505c12.292,-8.981 18.268,-20.522 13.744,-29.366c-5.908,-11.542 -26.276,-14.649 -45.33,-6.249c-19.071,8.417 -30.544,25.576 -26.071,37.766c3.33,9.083 15.264,12.549 29.622,9.937c3.5,11.183 10.432,22.895 14.001,34.607c4.217,14.632 7.904,30.835 9.817,43.896c-3.364,1.861 -6.693,3.756 -9.971,5.736c-10.637,-12.651 -20.59,-25.849 -29.588,-39.815c6.949,-9.322 8.741,-18.746 3.637,-24.824c-7.854,-9.322 -27.437,-8.247 -43.708,2.936c-16.288,11.183 -24.312,29.076 -18.422,39.747c3.927,7.102 13.693,8.724 25.183,5.31c10.415,13.3 18.32,27.744 25.9,42.444c-1.758,1.417 -3.483,2.834 -5.207,4.268c-27.044,-18.012 -53.2,-37.407 -79.852,-55.881c13.351,-21.427 14.871,-42.922 1.127,-54.344c-17.568,-14.614 -51.937,-9.219 -74.9,14.769c-22.964,23.97 -26.857,58.544 -11.491,75.463c11.952,13.147 33.174,10.808 53.884,-3.244c15.161,14.752 27.334,32.149 41.027,47.652c6.607,8.588 13.487,17.995 20.214,27.642c-2.339,3.022 -4.644,6.095 -6.88,9.219c-9.988,-5.276 -19.652,-11.234 -28.82,-17.859c1.759,-7.085 0.564,-13.129 -3.79,-15.553c-6.642,-3.705 -17.637,1.775 -24.517,12.361c-6.881,10.568 -7.444,22.81 -1.349,27.351c4.063,3.022 10.21,1.554 16.083,-3.107c7.205,4.029 17.141,11.166 27.488,19.463c-4.525,7.547 -8.776,15.247 -12.72,23.152c-27.658,-3.347 -55.044,-7.205 -80.261,-18.422c2.458,-15.144 -1.451,-27.625 -10.995,-30.664c-12.361,-3.927 -29.008,8.281 -36.588,27.693c-7.581,19.412 -3.586,39.61 8.212,45.005c9.237,4.251 20.812,-2.629 29.315,-15.861c11.507,4.268 22.332,10.329 33.173,16.254c13.3,7.239 27.317,15.946 37.903,23.749c-1.213,3.858 -2.356,7.717 -3.432,11.626c-16.561,-1.092 -33.156,-2.117 -49.752,-2.578c-1.314,-12.617 -6.863,-21.495 -15.263,-22.229c-12.139,-1.041 -25.217,13.573 -28.82,32.986c-3.602,19.429 3.364,37.748 15.076,41.129c7.734,2.237 15.724,-3.415 21.427,-13.778c16.237,2.202 32.217,6.693 48.164,11.507c-0.376,3.125 -0.7,6.249 -0.974,9.391c-31.244,7.29 -63.136,12.036 -95.251,12.822c-5.908,-23.818 -19.839,-39.457 -37.288,-37.852c-22.759,2.1 -43.247,30.203 -42.53,63.393c0.734,33.208 22.417,60.388 45.244,61.498c17.842,0.854 31.244,-15.998 35.888,-40.788c20.864,-0.495 41.744,2.68 62.642,5.071c10.381,1.366 21.478,3.073 32.661,5.053c0.53,4.149 1.127,8.281 1.827,12.379c-10.415,3.295 -20.812,6.573 -30.937,10.329c-3.824,-7.017 -9.322,-10.978 -14.409,-9.561c-7.308,2.066 -11.183,13.693 -8.554,26.019c2.646,12.344 10.944,21.41 18.473,20.335c4.968,-0.7 8.281,-6.01 9.134,-13.369c7.769,-2.185 19.532,-4.08 32.44,-5.463c2.39,9.032 5.156,17.927 8.297,26.634c-20.966,17.295 -44.356,31.859 -69.488,42.205c-8.998,-12.292 -20.522,-18.268 -29.383,-13.744c-11.542,5.908 -14.649,26.276 -6.232,45.33c8.4,19.071 25.559,30.544 37.749,26.071c9.083,-3.33 12.549,-15.247 9.954,-29.605c11.166,-3.517 22.895,-10.449 34.59,-14.018c14.632,-4.217 30.835,-7.904 43.913,-9.817c1.844,3.364 3.739,6.693 5.719,9.971c-12.651,10.637 -25.849,20.59 -39.815,29.588c-9.305,-6.932 -18.746,-8.741 -24.824,-3.637c-9.322,7.854 -8.247,27.437 2.936,43.708c11.183,16.288 29.076,24.312 39.747,18.422c7.102,-3.927 8.724,-13.693 5.31,-25.183c13.3,-10.398 27.744,-18.303 42.461,-25.9c1.4,1.758 2.817,3.483 4.251,5.207c-18.012,27.044 -37.407,53.2 -55.881,79.852c-21.427,-13.351 -42.922,-14.871 -54.344,-1.127c-14.614,17.568 -9.219,51.937 14.769,74.9c23.988,22.964 58.544,26.857 75.463,11.491c13.147,-11.952 10.808,-33.174 -3.244,-53.884c14.769,-15.161 32.149,-27.334 47.669,-41.027c8.588,-6.607 17.978,-13.487 27.625,-20.214c3.022,2.339 6.095,4.644 9.219,6.88c-5.276,9.988 -11.234,19.652 -17.859,28.82c-7.085,-1.759 -13.129,-0.564 -15.553,3.79c-3.705,6.642 1.792,17.637 12.361,24.517c10.568,6.881 22.81,7.444 27.351,1.349c3.022,-4.063 1.554,-10.21 -3.107,-16.066c4.029,-7.222 11.166,-17.158 19.463,-27.505c7.547,4.542 15.247,8.776 23.152,12.72c-3.347,27.658 -7.205,55.044 -18.422,80.261c-15.144,-2.458 -27.608,1.451 -30.664,10.995c-3.927,12.361 8.281,29.025 27.693,36.588c19.412,7.581 39.61,3.586 45.022,-8.212c4.234,-9.237 -2.629,-20.812 -15.878,-29.315c4.285,-11.507 10.346,-22.332 16.254,-33.173c7.239,-13.3 15.963,-27.317 23.749,-37.903c3.858,1.213 7.717,2.356 11.626,3.432c-1.075,16.561 -2.117,33.156 -2.578,49.752c-12.617,1.314 -21.495,6.863 -22.212,15.263c-1.058,12.139 13.556,25.217 32.986,28.82c19.412,3.602 37.749,-3.364 41.112,-15.076c2.237,-7.734 -3.415,-15.707 -13.761,-21.427c2.185,-16.237 6.676,-32.2 11.507,-48.164c3.108,0.376 6.232,0.7 9.374,0.974c7.29,31.244 12.036,63.136 12.822,95.251c-23.818,5.908 -39.457,19.839 -37.852,37.288c2.1,22.759 30.203,43.247 63.393,42.53c33.208,-0.734 60.388,-22.417 61.498,-45.244c0.854,-17.842 -15.998,-31.244 -40.788,-35.888c-0.495,-20.864 2.68,-41.744 5.088,-62.625c1.349,-10.432 3.073,-21.564 5.053,-32.781c4.132,-0.546 8.23,-1.161 12.31,-1.861c3.313,10.449 6.608,20.898 10.381,31.074c-7.017,3.824 -10.978,9.322 -9.544,14.409c2.049,7.308 13.676,11.183 26.002,8.554c12.344,-2.646 21.41,-10.944 20.335,-18.473c-0.7,-4.968 -6.01,-8.281 -13.369,-9.134c-2.185,-7.837 -4.097,-19.72 -5.48,-32.73c8.929,-2.424 17.722,-5.207 26.361,-8.366c17.432,21.069 32.098,44.579 42.495,69.847c-12.292,8.998 -18.268,20.522 -13.727,29.383c5.891,11.542 26.259,14.649 45.33,6.249c19.054,-8.417 30.527,-25.576 26.054,-37.766c-3.33,-9.083 -15.247,-12.549 -29.605,-9.954c-3.517,-11.166 -10.449,-22.878 -14.018,-34.59c-4.285,-14.871 -8.024,-31.347 -9.902,-44.527c3.261,-1.81 6.488,-3.637 9.663,-5.566c10.791,12.788 20.864,26.139 29.981,40.276c-6.932,9.322 -8.741,18.746 -3.637,24.824c7.854,9.322 27.437,8.247 43.708,-2.936c16.288,-11.183 24.312,-29.076 18.422,-39.747c-3.91,-7.102 -13.693,-8.724 -25.183,-5.31c-10.534,-13.453 -18.49,-28.085 -26.156,-42.973c1.673,-1.349 3.312,-2.698 4.968,-4.081c27.215,18.115 53.542,37.647 80.347,56.223c-13.351,21.427 -14.854,42.922 -1.127,54.344c17.585,14.614 51.937,9.219 74.9,-14.769c22.964,-23.988 26.857,-58.544 11.491,-75.463c-11.935,-13.147 -33.174,-10.808 -53.866,3.244c-15.179,-14.769 -27.352,-32.149 -41.045,-47.669c-6.658,-8.656 -13.607,-18.149 -20.385,-27.864c2.322,-2.987 4.593,-6.026 6.812,-9.1c10.091,5.31 19.822,11.303 29.059,17.979c-1.759,7.085 -0.564,13.129 3.79,15.553c6.642,3.705 17.637,-1.775 24.517,-12.361c6.881,-10.568 7.444,-22.81 1.349,-27.351c-4.063,-3.022 -10.21,-1.554 -16.066,3.107c-7.239,-4.046 -17.227,-11.2 -27.607,-19.549c4.558,-7.512 8.81,-15.212 12.753,-23.066c27.676,3.347 55.096,7.205 80.33,18.422c-2.458,15.144 1.451,27.608 10.995,30.664c12.361,3.927 29.025,-8.281 36.588,-27.693c7.581,-19.412 3.586,-39.61 -8.195,-45.022c-9.254,-4.234 -20.829,2.629 -29.332,15.878c-11.507,-4.285 -22.332,-10.329 -33.173,-16.254c-13.317,-7.256 -27.386,-15.997 -37.971,-23.8c1.178,-3.841 2.288,-7.7 3.329,-11.575c16.613,1.075 33.276,2.117 49.923,2.578c1.314,12.617 6.863,21.495 15.263,22.212c12.139,1.058 25.217,-13.556 28.82,-32.986c3.602,-19.412 -3.364,-37.749 -15.076,-41.112c-7.734,-2.237 -15.707,3.415 -21.427,13.761c-16.476,-2.202 -32.678,-6.812 -48.864,-11.712c0.291,-2.971 0.547,-5.959 0.752,-8.947c31.534,-7.409 63.751,-12.241 96.173,-13.044c5.908,23.818 19.839,39.457 37.288,37.852c22.759,-2.1 43.247,-30.203 42.53,-63.393c-0.717,-33.208 -22.417,-60.388 -45.244,-61.498" style="fill:#00c9a3;fill-rule:nonzero;"/><path id="path136" d="M448.686,466.579c9.22,-27.266 -7.512,-56.512 -35.649,-62.642c-51.117,-11.114 -130.371,-10.022 -171.091,84.325c-58.783,136.176 141.452,171.125 206.74,-21.683" style="fill-rule:nonzero;"/><path id="path138" d="M378.447,499.991c-0,19.652 -15.929,35.581 -35.581,35.581c-19.634,0 -35.563,-15.929 -35.563,-35.581c-0,-19.634 15.929,-35.563 35.563,-35.563c19.652,-0 35.581,15.929 35.581,35.563" style="fill:#00ff24;fill-rule:nonzero;"/><path id="path140" d="M551.314,466.579c-9.22,-27.266 7.512,-56.512 35.649,-62.642c51.134,-11.114 130.371,-10.022 171.091,84.325c58.783,136.176 -141.452,171.125 -206.74,-21.683" style="fill-rule:nonzero;"/><path id="path142" d="M624.797,499.991c-0,19.652 15.929,35.581 35.581,35.581c19.634,0 35.563,-15.929 35.563,-35.581c0,-19.634 -15.929,-35.563 -35.563,-35.563c-19.652,-0 -35.581,15.929 -35.581,35.563" style="fill:#00ff24;fill-rule:nonzero;"/><path id="path144" d="M488.655,575.814l-0,44.083c-0,8.161 -8.486,13.556 -15.878,10.107l-13.181,-6.163c-5.173,-2.425 -7.683,-8.366 -5.805,-13.761l13.181,-37.92c1.553,-4.49 5.788,-7.495 10.534,-7.495c6.163,-0 11.149,4.985 11.149,11.149" style="fill-rule:nonzero;"/><path id="path146" d="M511.345,575.814l0,44.083c0,8.161 8.486,13.556 15.878,10.107l13.181,-6.163c5.173,-2.425 7.683,-8.366 5.805,-13.761l-13.181,-37.92c-1.553,-4.49 -5.788,-7.495 -10.534,-7.495c-6.163,-0 -11.149,4.985 -11.149,11.149" style="fill-rule:nonzero;"/><path id="path148" d="M604.958,740.11c-0.615,-0 -1.229,-0.103 -1.827,-0.325c-61.822,-23.151 -112.94,-22.024 -144.952,-16.988c-34.693,5.464 -55.061,16.544 -55.266,16.664c-2.527,1.383 -5.685,0.478 -7.068,-2.032c-1.4,-2.527 -0.496,-5.685 2.014,-7.085c0.871,-0.478 21.82,-11.951 58.169,-17.739c33.344,-5.327 86.561,-6.625 150.757,17.414c2.68,1.008 4.046,4.013 3.039,6.71c-0.786,2.083 -2.766,3.381 -4.866,3.381" style="fill-rule:nonzero;"/></svg>