<?xml version="1.0" encoding="UTF-8" standalone="no"?><!DOCTYPE svg PUBLIC "-//W3C//DTD SVG 1.1//EN" "http://www.w3.org/Graphics/SVG/1.1/DTD/svg11.dtd"><svg width="100%" height="100%" viewBox="0 0 1000 1000" version="1.1" xmlns="http://www.w3.org/2000/svg" xmlns:xlink="http://www.w3.org/1999/xlink" xml:space="preserve" xmlns:serif="http://www.serif.com/" style="fill-rule:evenodd;clip-rule:evenodd;stroke-linejoin:round;stroke-miterlimit:2;"><path id="path328" d="M956.519,440.551c-17.808,-1.355 -31.685,15.098 -37.023,39.751c-20.858,-0.101 -41.632,-3.863 -62.456,-6.845c-10.895,-1.745 -22.57,-3.897 -34.278,-6.337c-0.39,-3.88 -0.847,-7.744 -1.373,-11.573c11.048,-3.169 22.112,-6.269 32.889,-9.929c3.626,7.116 8.997,11.234 14.115,9.946c7.387,-1.847 11.572,-13.352 9.302,-25.755c-2.288,-12.404 -10.319,-21.689 -17.893,-20.842c-4.982,0.559 -8.438,5.778 -9.506,13.115c-8.15,2.016 -20.604,3.643 -34.142,4.643c-2.034,-8.828 -4.423,-17.521 -7.151,-26.06c21.756,-17.114 45.953,-31.313 71.827,-41.124c8.641,12.539 19.994,18.842 28.974,14.572c11.692,-5.575 15.386,-25.84 7.523,-45.139c-7.879,-19.283 -24.704,-31.246 -37.006,-27.111c-9.183,3.067 -12.962,14.894 -10.776,29.313c-11.268,3.203 -23.18,9.794 -34.973,13.03c-15.097,3.881 -31.787,7.168 -45.055,8.659c-1.66,-3.287 -3.355,-6.541 -5.134,-9.743c13.115,-10.455 26.789,-20.198 41.225,-28.924c9.099,7.201 18.487,9.269 24.705,4.338c9.54,-7.591 9.014,-27.179 -1.694,-43.767c-10.726,-16.588 -28.382,-25.128 -39.209,-19.537c-7.202,3.711 -9.099,13.437 -6.015,25.027c-13.742,10.133 -28.568,17.673 -43.649,24.908c-1.304,-1.711 -2.609,-3.423 -3.948,-5.1c18.859,-26.687 39.107,-52.426 58.424,-78.672c21.045,13.945 42.479,16.063 54.272,2.66c15.114,-17.165 10.692,-51.646 -12.623,-75.283c-23.315,-23.62 -57.746,-28.5 -75.097,-13.606c-13.488,11.556 -11.742,32.837 1.711,53.933c-15.182,14.741 -32.888,26.399 -48.782,39.666c-8.947,6.473 -18.723,13.217 -28.754,19.774c-2.881,-2.338 -5.812,-4.642 -8.794,-6.896c5.642,-10.065 11.979,-19.74 19.011,-28.907c7.015,1.966 13.098,0.932 15.64,-3.338c3.88,-6.54 -1.288,-17.673 -11.658,-24.857c-10.37,-7.184 -22.587,-8.082 -27.297,-2.118c-3.135,3.965 -1.847,10.167 2.643,16.148c-4.304,7.218 -11.912,17.181 -20.706,27.483c-7.286,-4.642 -14.775,-9.014 -22.417,-13.098c4.151,-27.822 8.76,-55.39 20.808,-80.518c15.063,2.897 27.636,-0.678 30.94,-10.133c4.287,-12.234 -7.439,-29.229 -26.62,-37.345c-19.197,-8.116 -39.497,-4.694 -45.224,6.93c-4.507,9.116 2.033,20.892 15.03,29.754c-4.609,11.387 -10.963,22.028 -17.182,32.702c-7.76,13.319 -17.063,27.348 -25.264,37.769c-3.676,-1.288 -7.387,-2.508 -11.132,-3.66c1.576,-16.741 3.101,-33.532 4.033,-50.324c12.657,-0.949 21.688,-6.253 22.654,-14.606c1.39,-12.115 -12.843,-25.603 -32.143,-29.754c-19.316,-4.152 -37.836,2.304 -41.547,13.911c-2.44,7.659 2.982,15.809 13.165,21.79c-2.66,16.301 -7.658,32.245 -12.979,48.173c-3.05,-0.475 -6.1,-0.898 -9.167,-1.271c-6.438,-31.533 -10.302,-63.66 -10.183,-95.887c23.976,-5.219 39.988,-18.69 38.887,-36.176c-1.44,-22.824 -28.958,-44.089 -62.151,-44.31c-33.211,-0.203 -61,20.689 -62.745,43.479c-1.355,17.809 15.097,31.686 39.751,37.023c-0.101,20.859 -3.863,41.632 -6.845,62.457c-1.661,10.336 -3.677,21.383 -5.965,32.499c-4.168,0.424 -8.319,0.898 -12.437,1.474c-2.982,-10.488 -5.964,-20.977 -9.438,-31.211c7.117,-3.626 11.234,-8.998 9.947,-14.115c-1.847,-7.37 -13.352,-11.573 -25.756,-9.285c-12.403,2.27 -21.688,10.319 -20.841,17.876c0.559,4.982 5.778,8.438 13.115,9.506c1.948,7.828 3.507,19.638 4.524,32.583c-9.099,2.135 -18.063,4.643 -26.84,7.524c-16.707,-21.435 -30.584,-45.241 -40.225,-70.641c12.539,-8.624 18.842,-19.994 14.572,-28.974c-5.575,-11.692 -25.84,-15.386 -45.14,-7.524c-19.282,7.879 -31.245,24.705 -27.11,37.007c3.084,9.183 14.894,12.962 29.313,10.776c3.203,11.268 9.794,23.18 13.03,34.973c3.796,14.741 7.015,31.042 8.557,44.157c-3.406,1.762 -6.778,3.558 -10.116,5.439c-10.285,-12.946 -19.841,-26.416 -28.449,-40.633c7.201,-9.099 9.269,-18.486 4.338,-24.704c-7.591,-9.54 -27.179,-9.015 -43.767,1.694c-16.589,10.726 -25.128,28.382 -19.537,39.209c3.711,7.201 13.437,9.099 25.027,6.015c10.014,13.59 17.503,28.246 24.671,43.174c-1.78,1.339 -3.559,2.711 -5.321,4.101c-26.518,-18.758 -52.12,-38.887 -78.214,-58.102c13.945,-21.028 16.063,-42.479 2.66,-54.272c-17.148,-15.115 -51.646,-10.692 -75.283,12.623c-23.621,23.315 -28.5,57.746 -13.607,75.097c11.556,13.487 32.838,11.742 53.934,-1.712c14.741,15.182 26.399,32.889 39.666,48.8c6.354,8.76 12.963,18.35 19.401,28.178c-2.423,2.965 -4.795,5.964 -7.116,9.014c-9.862,-5.557 -19.333,-11.776 -28.297,-18.672c1.949,-7.015 0.932,-13.098 -3.355,-15.64c-6.54,-3.88 -17.673,1.288 -24.857,11.658c-7.184,10.37 -8.082,22.587 -2.118,27.297c3.965,3.135 10.166,1.847 16.148,-2.643c7.082,4.219 16.825,11.64 26.924,20.231c-4.744,7.405 -9.201,14.996 -13.352,22.773c-27.551,-4.134 -54.831,-8.76 -79.706,-20.672c2.898,-15.08 -0.66,-27.653 -10.115,-30.957c-12.251,-4.287 -29.229,7.439 -37.362,26.62c-8.117,19.197 -4.694,39.497 6.93,45.224c9.116,4.507 20.892,-2.034 29.754,-15.03c11.387,4.609 22.027,10.963 32.702,17.182c13.081,7.625 26.857,16.724 37.21,24.823c-1.322,3.812 -2.593,7.642 -3.762,11.505c-16.52,-1.542 -33.092,-3.05 -49.663,-3.965c-0.932,-12.657 -6.253,-21.689 -14.606,-22.654c-12.115,-1.39 -25.603,12.843 -29.754,32.16c-4.152,19.299 2.304,37.819 13.911,41.53c7.659,2.44 15.809,-2.982 21.79,-13.166c16.182,2.644 32.008,7.591 47.817,12.861c-0.458,3.101 -0.864,6.219 -1.237,9.353c-31.415,6.388 -63.439,10.235 -95.549,10.116c-5.235,-23.959 -18.706,-39.988 -36.192,-38.887c-22.824,1.457 -44.089,28.958 -44.31,62.168c-0.203,33.194 20.689,60.983 43.479,62.728c17.809,1.355 31.686,-15.097 37.023,-39.751c20.859,0.101 41.649,3.863 62.457,6.845c10.336,1.661 21.383,3.677 32.499,5.965c0.423,4.168 0.898,8.319 1.474,12.437c-10.488,2.999 -20.977,5.964 -31.211,9.438c-3.626,-7.117 -8.998,-11.234 -14.115,-9.947c-7.371,1.847 -11.573,13.352 -9.285,25.756c2.287,12.403 10.319,21.688 17.876,20.841c4.998,-0.559 8.438,-5.778 9.506,-13.115c7.828,-1.948 19.638,-3.507 32.583,-4.524c2.135,9.099 4.643,18.063 7.524,26.857c-21.435,16.69 -45.241,30.567 -70.641,40.208c-8.624,-12.539 -19.994,-18.842 -28.974,-14.572c-11.692,5.575 -15.386,25.84 -7.507,45.14c7.862,19.282 24.688,31.245 36.989,27.11c9.184,-3.067 12.963,-14.894 10.777,-29.313c11.268,-3.203 23.18,-9.794 34.973,-13.013c14.758,-3.813 31.042,-7.032 44.156,-8.574c1.763,3.406 3.559,6.795 5.44,10.133c-12.929,10.268 -26.416,19.841 -40.616,28.432c-9.116,-7.201 -18.503,-9.269 -24.721,-4.338c-9.54,7.591 -9.015,27.179 1.711,43.767c10.709,16.589 28.365,25.128 39.192,19.537c7.201,-3.711 9.099,-13.437 6.015,-25.027c13.589,-10.014 28.246,-17.503 43.174,-24.671c1.356,1.78 2.711,3.559 4.101,5.321c-18.758,26.518 -38.887,52.12 -58.102,78.231c-21.028,-13.962 -42.479,-16.08 -54.272,-2.677c-15.115,17.165 -10.692,51.646 12.623,75.283c23.315,23.621 57.746,28.501 75.097,13.607c13.487,-11.556 11.742,-32.838 -1.712,-53.934c15.182,-14.741 32.889,-26.399 48.8,-39.666c8.76,-6.354 18.35,-12.963 28.178,-19.401c2.965,2.423 5.964,4.795 9.014,7.133c-5.557,9.845 -11.776,19.317 -18.655,28.297c-7.032,-1.966 -13.115,-0.932 -15.657,3.338c-3.88,6.54 1.288,17.69 11.658,24.857c10.37,7.185 22.586,8.083 27.297,2.118c3.135,-3.965 1.847,-10.149 -2.643,-16.148c4.219,-7.082 11.64,-16.825 20.231,-26.924c7.405,4.744 14.996,9.201 22.773,13.352c-4.134,27.551 -8.76,54.832 -20.672,79.706c-15.063,-2.898 -27.653,0.677 -30.957,10.132c-4.287,12.234 7.439,29.229 26.619,37.345c19.198,8.117 39.497,4.694 45.225,-6.93c4.507,-9.116 -2.034,-20.892 -15.03,-29.754c4.609,-11.386 10.963,-22.027 17.181,-32.702c7.625,-13.081 16.724,-26.84 24.824,-37.21c3.812,1.322 7.642,2.593 11.505,3.762c-1.542,16.52 -3.05,33.092 -3.965,49.663c-12.64,0.949 -21.689,6.253 -22.654,14.606c-1.39,12.115 12.843,25.603 32.16,29.754c19.299,4.152 37.819,-2.304 41.53,-13.911c2.44,-7.659 -2.982,-15.809 -13.166,-21.79c2.644,-16.182 7.591,-32.008 12.861,-47.817c3.101,0.458 6.218,0.864 9.353,1.237c6.388,31.432 10.234,63.439 10.116,95.566c-23.959,5.218 -39.989,18.689 -38.887,36.176c1.457,22.823 28.958,44.088 62.168,44.309c33.194,0.203 60.982,-20.689 62.728,-43.479c1.372,-17.809 -15.098,-31.686 -39.751,-37.023c0.101,-20.859 3.863,-41.649 6.845,-62.457c1.661,-10.37 3.694,-21.451 5.998,-32.6c4.135,-0.441 8.252,-0.932 12.353,-1.525c3.016,10.539 5.998,21.095 9.505,31.363c-7.133,3.626 -11.251,8.998 -9.963,14.115c1.847,7.371 13.352,11.573 25.755,9.285c12.403,-2.27 21.689,-10.319 20.842,-17.876c-0.559,-4.981 -5.778,-8.438 -13.115,-9.506c-1.966,-7.896 -3.525,-19.824 -4.541,-32.871c8.997,-2.152 17.876,-4.694 26.585,-7.608c16.826,21.553 30.805,45.461 40.497,71.013c-12.539,8.642 -18.842,19.994 -14.572,28.975c5.575,11.691 25.84,15.385 45.139,7.523c19.283,-7.879 31.245,-24.705 27.111,-37.006c-3.067,-9.184 -14.894,-12.963 -29.313,-10.777c-3.186,-11.268 -9.794,-23.18 -13.014,-34.973c-3.863,-14.978 -7.133,-31.55 -8.641,-44.783c3.304,-1.712 6.574,-3.457 9.811,-5.287c10.42,13.081 20.112,26.721 28.822,41.107c-7.202,9.099 -9.269,18.486 -4.338,24.704c7.591,9.54 27.195,9.015 43.767,-1.694c16.588,-10.726 25.128,-28.382 19.537,-39.209c-3.711,-7.201 -13.437,-9.099 -25.027,-6.015c-10.133,-13.759 -17.673,-28.602 -24.925,-43.699c1.711,-1.288 3.406,-2.593 5.083,-3.914c26.704,18.859 52.443,39.124 78.723,58.44c-13.962,21.028 -16.08,42.479 -2.677,54.273c17.164,15.114 51.646,10.691 75.283,-12.624c23.62,-23.315 28.5,-57.746 13.606,-75.097c-11.556,-13.487 -32.838,-11.742 -53.933,1.712c-14.742,-15.182 -26.399,-32.889 -39.667,-48.8c-6.405,-8.828 -13.064,-18.52 -19.57,-28.432c2.406,-2.914 4.761,-5.88 7.066,-8.879c9.929,5.575 19.485,11.844 28.534,18.791c-1.966,7.015 -0.932,13.098 3.338,15.64c6.54,3.88 17.689,-1.288 24.857,-11.658c7.184,-10.37 8.082,-22.586 2.118,-27.297c-3.965,-3.135 -10.15,-1.847 -16.148,2.643c-7.117,-4.236 -16.876,-11.691 -27.026,-20.316c4.778,-7.371 9.235,-14.945 13.403,-22.688c27.568,4.117 54.848,8.76 79.756,20.689c-2.897,15.046 0.678,27.636 10.133,30.94c12.234,4.287 29.229,-7.439 37.345,-26.619c8.116,-19.198 4.694,-39.497 -6.93,-45.225c-9.116,-4.507 -20.892,2.034 -29.754,15.03c-11.387,-4.609 -22.028,-10.963 -32.703,-17.181c-13.097,-7.642 -26.907,-16.758 -37.277,-24.875c1.305,-3.795 2.508,-7.624 3.66,-11.471c16.572,1.542 33.194,3.067 49.833,3.982c0.949,12.657 6.252,21.689 14.606,22.654c12.115,1.39 25.603,-12.843 29.754,-32.16c4.151,-19.299 -2.304,-37.819 -13.911,-41.53c-7.659,-2.44 -15.809,2.982 -21.79,13.166c-16.419,-2.677 -32.483,-7.727 -48.529,-13.098c0.39,-2.965 0.729,-5.931 1.017,-8.913c31.72,-6.523 64.049,-10.437 96.497,-10.319c5.219,23.976 18.69,39.989 36.176,38.887c22.824,-1.457 44.089,-28.958 44.309,-62.151c0.221,-33.211 -20.689,-60.999 -43.479,-62.745" style="fill:#5be0d1;fill-rule:nonzero;"/><path id="path330" d="M500.008,370.555c140.671,-0 254.706,153.345 254.706,153.345c-0,-0 -114.035,153.362 -254.706,153.362c-140.687,0 -254.722,-153.362 -254.722,-153.362c-0,-0 114.035,-153.345 254.722,-153.345" style="fill:#000c06;fill-rule:nonzero;"/><clipPath id="_clip1"><path d="M500.008,370.555c140.671,-0 254.706,153.345 254.706,153.345c-0,-0 -114.035,153.362 -254.706,153.362c-140.687,0 -254.722,-153.362 -254.722,-153.362c-0,-0 114.035,-153.345 254.722,-153.345" clip-rule="nonzero"/></clipPath><g clip-path="url(#_clip1)"><path id="path332" d="M687.903,593.947c-4.745,-1.965 -9.489,-3.914 -14.25,-5.828c-34.448,-13.776 -73.47,-21.808 -107.918,-10.336c-17.215,5.744 -33.295,17.232 -50.511,20.671c-20.672,3.44 -42.479,-6.879 -63.151,-14.927c-24.111,-10.336 -49.358,-19.52 -76.91,-12.624c-21.485,5.863 -41.513,14.826 -61.134,24.705c46.478,39.92 112.594,81.654 185.979,81.654c74.385,0 141.332,-42.903 187.895,-83.315" style="fill:#894acc;fill-rule:nonzero;"/><path id="path334" d="M532.44,629.445c-16.08,6.897 -37.888,4.592 -56.255,-1.135c-19.52,-6.896 -36.735,-12.64 -57.407,-14.928c-24.891,-3.202 -47.664,1.779 -69.895,9.404c42.276,29.653 94.532,54.476 151.125,54.476c57.39,0 110.341,-25.535 152.939,-55.763c-40.836,-7.303 -79.858,-9.472 -120.507,7.946" style="fill:#b760e0;fill-rule:nonzero;"/><path id="path344" d="M275.481,457.072l9.082,51.764l22.705,-69.928l10.895,45.41l29.991,-73.572l13.623,49.054l27.247,-78.13l16.351,51.782l19.079,-62.897l15.978,40.191l23.079,-50.866l13.623,42.682l22.874,-49.951l27.077,53.594l21.807,-53.594l17.267,69.946l26.331,-57.238l8.184,74.487l29.974,-54.493l9.98,75.385l27.264,-47.224l8.167,66.303l21.807,-37.243l9.98,61.761l19.994,-39.954l3.626,59.559l23.248,-46.851c-0,0 -136.791,-158.056 -250.334,-151.685c-113.543,6.355 -228.899,131.708 -228.899,131.708" style="fill:#fff;fill-rule:nonzero;"/><path id="path346" d="M258.214,569.7l11.811,-39.056l5.456,48.138l20.892,-39.056l12.708,73.572l28.161,-46.326l9.997,66.32l18.164,-38.159l19.08,59.949l18.164,-38.141l22.705,60.321l19.994,-43.97l13.623,50.866l22.706,-39.056l18.333,45.41l26.179,-45.41l19.977,36.328l19.995,-44.512l17.249,36.328l19.977,-54.492l19.994,34.515l19.079,-54.493l19.063,23.604l13.623,-46.326l19.079,24.535l15.453,-48.138l13.623,31.025c0,-0 -84.162,127.014 -223.291,122.473c-139.146,-4.541 -241.794,-136.249 -241.794,-136.249" style="fill:#fff;fill-rule:nonzero;"/></g><path id="path348" d="M250.352,523.9c7.015,8.963 33.516,41.53 72.25,73.707c41.514,34.499 105.986,75.639 177.406,75.639c71.403,0 135.876,-41.14 177.389,-75.639c38.735,-32.177 65.236,-64.744 72.25,-73.707c-7.014,-8.947 -33.515,-41.513 -72.25,-73.691c-41.513,-34.515 -105.986,-75.639 -177.389,-75.639c-71.42,0 -135.892,41.124 -177.406,75.639c-38.734,32.178 -65.235,64.744 -72.25,73.691Zm249.656,157.378c-73.876,-0 -140.128,-42.208 -182.692,-77.605c-45.919,-38.209 -74.961,-76.977 -75.249,-77.367l-1.78,-2.406l1.78,-2.389c0.288,-0.39 29.33,-39.158 75.249,-77.368c42.564,-35.396 108.816,-77.604 182.692,-77.604c73.86,-0 140.112,42.208 182.676,77.604c45.936,38.21 74.961,76.978 75.249,77.368l1.796,2.389l-1.796,2.406c-0.288,0.39 -29.313,39.158 -75.249,77.367c-42.564,35.397 -108.816,77.605 -182.676,77.605" style="fill:#2fffcc;fill-rule:nonzero;"/><path id="path350" d="M437.671,317.316c-0,-0 -87.704,-0.424 -142.213,46.817c-0,-0 13.742,-128.132 142.213,-46.817" style="fill:#5e2eff;fill-rule:nonzero;"/><clipPath id="_clip2"><path d="M437.671,317.316c-0,-0 -87.704,-0.424 -142.213,46.817c-0,-0 13.742,-128.132 142.213,-46.817" clip-rule="nonzero"/></clipPath><g clip-path="url(#_clip2)"><path id="path362" d="M382.822,331.227c0,13.403 -10.878,24.281 -24.281,24.281c-13.42,0 -24.298,-10.878 -24.298,-24.281c0,-13.42 10.878,-24.298 24.298,-24.298c13.403,0 24.281,10.878 24.281,24.298" style="fill:#ff134c;fill-rule:nonzero;"/><path id="path364" d="M375.706,331.227c-0,9.472 -7.676,17.165 -17.165,17.165c-9.489,-0 -17.181,-7.693 -17.181,-17.165c-0,-9.489 7.692,-17.181 17.181,-17.181c9.489,-0 17.165,7.692 17.165,17.181" style="fill:#630021;fill-rule:nonzero;"/></g><path id="path352" d="M437.399,317.248c-1.846,-1.05 -3.676,-1.728 -5.218,-2.541l-5.185,-2.661c-1.746,-0.915 -3.542,-1.728 -5.321,-2.592c-1.762,-0.898 -3.558,-1.695 -5.354,-2.525c-7.168,-3.253 -14.454,-6.151 -21.892,-8.489c-7.439,-2.304 -15.03,-4.016 -22.654,-4.761c-7.625,-0.729 -15.301,-0.424 -22.604,1.288c-7.303,1.745 -14.267,4.879 -20.299,9.404c-6.083,4.473 -11.217,10.251 -15.504,16.622c-8.523,12.793 -14.352,27.822 -16.894,43.241l-1.677,-0.881c4.982,-4.032 10.065,-7.896 15.385,-11.437c5.355,-3.49 10.777,-6.896 16.402,-9.946c11.183,-6.219 22.977,-11.522 35.261,-15.284c12.268,-3.795 24.874,-6.337 37.566,-8.031c6.354,-0.814 12.725,-1.39 19.113,-1.695c3.185,-0.169 6.388,-0.237 9.573,-0.237c1.593,-0 3.203,0.017 4.795,0.068l2.389,0.101l1.203,0.068l0.594,0.034l0.305,0.017l-0,0.051l0.016,0.186Zm0.56,0.153l-0.288,0.186l-0.288,0.051l-0.305,0.017l-0.577,0.051l-1.203,0.118l-2.355,0.237c-1.593,0.17 -3.168,0.339 -4.727,0.526c-3.152,0.356 -6.304,0.779 -9.438,1.22c-6.27,0.864 -12.505,1.864 -18.707,3.033c-6.218,1.101 -12.386,2.457 -18.52,3.863c-6.133,1.44 -12.2,3.118 -18.249,4.863c-6.032,1.728 -12.03,3.643 -17.977,5.71c-5.965,2.034 -11.827,4.372 -17.572,7.015l-4.269,2.017l-4.186,2.236c-1.406,0.729 -2.762,1.525 -4.1,2.355c-1.339,0.848 -2.728,1.61 -4.033,2.508c-1.305,0.881 -2.626,1.745 -3.931,2.643c-1.305,0.898 -2.525,1.898 -3.796,2.83c-2.575,1.847 -4.896,3.999 -7.302,6.015l-1.966,1.644l0.271,-2.525c0.881,-8.014 2.593,-15.826 4.948,-23.535c2.372,-7.693 5.507,-15.216 9.811,-22.163c4.253,-6.947 9.658,-13.335 16.198,-18.486c6.541,-5.135 14.216,-8.93 22.35,-10.828c8.116,-2.016 16.537,-2.033 24.653,-1.084c4.067,0.525 8.083,1.287 11.997,2.338c1.982,0.458 3.914,1.101 5.863,1.661c1.914,0.626 3.829,1.287 5.71,1.982c7.557,2.83 14.809,6.32 21.773,10.234c3.508,1.932 6.896,4.016 10.234,6.202l2.508,1.644c0.83,0.542 1.627,1.05 2.559,1.711c1.83,1.271 3.389,2.677 4.914,3.711" style="fill-rule:nonzero;"/><path id="path366" d="M561.363,317.316c0,-0 87.704,-0.424 142.213,46.817c0,-0 -13.742,-128.132 -142.213,-46.817" style="fill:#5e2eff;fill-rule:nonzero;"/><clipPath id="_clip3"><path d="M561.363,317.316c0,-0 87.704,-0.424 142.213,46.817c0,-0 -13.742,-128.132 -142.213,-46.817" clip-rule="nonzero"/></clipPath><g clip-path="url(#_clip3)"><path id="path378" d="M599.251,331.227c-0,13.403 10.878,24.281 24.298,24.281c13.419,0 24.298,-10.878 24.298,-24.281c-0,-13.42 -10.879,-24.298 -24.298,-24.298c-13.42,0 -24.298,10.878 -24.298,24.298" style="fill:#ff134c;fill-rule:nonzero;"/><path id="path380" d="M606.367,331.227c0,9.472 7.693,17.165 17.182,17.165c9.488,-0 17.181,-7.693 17.181,-17.165c0,-9.489 -7.693,-17.181 -17.181,-17.181c-9.489,-0 -17.182,7.692 -17.182,17.181" style="fill:#630021;fill-rule:nonzero;"/></g><path id="path368" d="M561.651,317.062l0,-0.051l0.305,-0.017l0.593,-0.034l1.203,-0.068l2.39,-0.101c1.592,-0.051 3.202,-0.068 4.795,-0.068c3.202,-0 6.388,0.068 9.59,0.237c6.371,0.305 12.742,0.881 19.096,1.695c12.692,1.694 25.298,4.236 37.583,8.031c12.267,3.762 24.06,9.065 35.244,15.284c5.642,3.05 11.047,6.456 16.402,9.946c5.32,3.541 10.42,7.405 15.385,11.437l-1.677,0.881c-2.542,-15.419 -8.371,-30.448 -16.877,-43.241c-4.287,-6.371 -9.438,-12.149 -15.521,-16.622c-6.032,-4.525 -12.979,-7.659 -20.282,-9.404c-7.32,-1.712 -14.996,-2.017 -22.621,-1.288c-7.624,0.745 -15.215,2.457 -22.654,4.761c-7.422,2.338 -14.725,5.236 -21.892,8.489c-1.796,0.83 -3.592,1.627 -5.354,2.525c-1.779,0.864 -3.576,1.677 -5.321,2.592l-5.185,2.661c-1.542,0.813 -3.372,1.491 -5.219,2.541l0.017,-0.186Zm4.338,-3.372c0.932,-0.661 1.728,-1.169 2.559,-1.711l2.507,-1.644c3.338,-2.186 6.744,-4.27 10.235,-6.202c6.964,-3.914 14.216,-7.404 21.773,-10.234c1.898,-0.695 3.796,-1.356 5.727,-1.982c1.932,-0.56 3.863,-1.203 5.846,-1.661c3.914,-1.051 7.93,-1.813 11.996,-2.338c8.117,-0.949 16.538,-0.932 24.654,1.084c8.134,1.898 15.826,5.693 22.35,10.828c6.54,5.151 11.945,11.539 16.198,18.486c4.304,6.947 7.439,14.47 9.828,22.163c2.338,7.709 4.05,15.521 4.931,23.535l0.271,2.525l-1.966,-1.644c-2.406,-2.016 -4.727,-4.168 -7.303,-6.015c-1.27,-0.932 -2.49,-1.932 -3.795,-2.83c-1.288,-0.898 -2.626,-1.762 -3.931,-2.643c-1.305,-0.898 -2.694,-1.66 -4.016,-2.508c-1.355,-0.83 -2.711,-1.626 -4.117,-2.355l-4.186,-2.236l-4.27,-2.017c-5.744,-2.643 -11.606,-4.981 -17.571,-7.015c-5.947,-2.067 -11.928,-3.982 -17.977,-5.71c-6.05,-1.745 -12.116,-3.423 -18.249,-4.863c-6.134,-1.406 -12.302,-2.762 -18.52,-3.863c-6.202,-1.169 -12.437,-2.169 -18.707,-3.033c-3.135,-0.441 -6.269,-0.864 -9.421,-1.22c-1.576,-0.187 -3.151,-0.356 -4.727,-0.526l-3.559,-0.355l-0.593,-0.051l-0.305,-0.017l-0.288,-0.051l-0.288,-0.186c1.542,-1.034 3.084,-2.44 4.914,-3.711" style="fill-rule:nonzero;"/><path id="path382" d="M348.883,681.278c-0,-0 88.533,50.731 151.125,50.731c61.61,-0 152.939,-50.731 152.939,-50.731c-0,-0 -63.626,62.541 -152.939,62.541c-90.55,-0 -151.125,-62.541 -151.125,-62.541" style="fill:#1e9682;fill-rule:nonzero;"/></svg>