<?xml version="1.0" encoding="UTF-8" standalone="no"?><!DOCTYPE svg PUBLIC "-//W3C//DTD SVG 1.1//EN" "http://www.w3.org/Graphics/SVG/1.1/DTD/svg11.dtd">
<svg width="100%" height="100%" viewBox="0 0 1000 1000" version="1.1" xmlns="http://www.w3.org/2000/svg"
     xml:space="preserve"
     style="fill-rule:evenodd;clip-rule:evenodd;stroke-linejoin:round;stroke-miterlimit:2;"><path id="path222" d="M56.237,523.164c13.949,0.983 27.916,5.558 40.594,11.099c7.153,2.711 15.035,6.049 23.205,9.828c3.508,26.45 9.848,52.477 18.797,77.588c-14.475,12.675 -33.883,22.045 -44.9,32.347c-8.187,-14.132 -17.153,-22.35 -23.001,-19.198c-7.56,4.067 -7.831,23.654 0.542,43.462c8.374,19.792 22.968,33.805 31.663,32.042c6.814,-1.372 7.373,-13.064 2.729,-28.703c7.509,1.186 16.238,0.22 24.17,-3.932c11.085,-0.83 23.933,-0.542 34.442,1c11.204,20.401 24.222,39.853 38.9,58.001c-11.238,19.655 -23.594,38.582 -31.459,59.051c-20.763,-15.978 -39.154,-21.96 -47.036,-11.827c-10.068,12.912 -2.508,44.581 20.832,68.083c23.357,23.502 55.68,31.347 69.664,21.705c10.78,-7.421 5.83,-24.62 -9.526,-44.394c11.119,-8.421 24.543,-14.437 36.052,-21.79c7.102,-3.169 15.221,-6.389 23.798,-9.472c11.593,9.048 23.746,17.452 36.425,25.128c8.627,5.253 17.407,10.133 26.323,14.657c0.322,19.401 -0.203,38.091 -8.56,54.019c-15.441,-4.151 -27.357,-3.457 -29.289,3.084c-2.509,8.472 10.831,22.756 30.442,30.872c19.611,8.1 39.561,7.473 44.358,-0.186c3.763,-5.998 -4.017,-14.843 -18.103,-22.688c3.424,-7.253 8.679,-13.692 13.899,-20.113c6.407,-7.914 14.594,-16.132 22.272,-22.249c25.391,8.235 51.46,13.709 77.783,16.352c7.492,19.859 12.289,40.616 12.323,61.915c-24.612,3.49 -40.748,12.437 -39.222,25.501c2,17.08 29.526,35.363 62.511,35.651c32.967,0.271 61.053,-17.825 63.816,-35.21c2.136,-13.505 -13.865,-22.689 -38.883,-26.095c0.864,-14.182 5.102,-27.772 9.797,-40.988c2.424,-6.659 5.39,-13.912 8.763,-21.35c25.543,-2.949 50.968,-8.608 75.901,-17.012c13.069,13.606 21.849,32.397 32.459,43.53c-13.78,7.845 -21.594,16.758 -18.238,22.926c4.323,7.963 23.883,8.997 43.409,1.067c19.526,-7.947 32.984,-22.468 30.798,-31.381c-1.695,-6.981 -13.526,-7.93 -29.001,-3.745c0.661,-7.54 -0.729,-16.232 -4.831,-23.942c-1.153,-10.302 -1.288,-21.994 -0.187,-31.669c1.933,-1 3.848,-2.034 5.763,-3.067c18.408,-10.031 35.781,-21.35 52.053,-33.787c20.323,10.149 40.171,21.604 60.867,30.347c-15.814,20.113 -21.17,38.311 -10.238,46.885c13.933,10.946 46.799,4.931 70.393,-18.062c23.594,-22.994 30.442,-55.646 19.831,-69.811c-8.22,-10.98 -26.357,-6.253 -46.713,8.726c-8.848,-10.302 -15.052,-23.028 -22.9,-34.906c-3.271,-6.506 -6.559,-13.894 -9.678,-21.672c15.967,-18.876 29.984,-39.124 41.866,-60.491c19.798,-1.101 38.917,-1.22 55.206,6.286c-4.39,14.996 -3.661,26.467 3.169,28.297c8.865,2.356 23.747,-10.742 32.205,-30.059c8.475,-19.317 7.967,-38.87 0.119,-43.361c-6.136,-3.507 -15.441,4.355 -23.73,18.266c-7.458,-3.067 -14.017,-7.879 -20.526,-12.589c-7.95,-5.744 -16.12,-13.048 -22.171,-19.995c8.95,-24.603 15.221,-50.206 18.594,-76.453c20.34,-9.252 41.494,-15.928 63.817,-16.436c2.864,24.434 11.508,40.124 24.797,38.294c17.357,-2.372 36.052,-30.042 36.595,-63.033c0.559,-32.974 -16.831,-60.949 -33.73,-63.355c-13.136,-1.864 -22.544,14.657 -26.561,39.938c-13.543,-0.593 -26.848,-5.338 -40.34,-7.642c-7.119,-2.152 -14.899,-4.914 -22.832,-8.116c-0.881,-11.726 -2.22,-23.333 -4.102,-34.77c-1.915,-14.352 -4.78,-28.399 -8.475,-42.141c12.865,-15.962 27.527,-27.924 43.917,-34.99c7.357,13.691 15.713,21.265 21.628,17.724c7.73,-4.626 8.814,-24.57 1.204,-44.429c-7.628,-19.842 -21.526,-33.584 -30.018,-31.296c-6.323,1.711 -7.441,12.861 -4.136,27.619c-7.441,1.695 -14.831,6.541 -22.577,8.049c-9.848,1.593 -21.052,2.254 -30.391,1.576c-9.95,-21.333 -22.035,-41.548 -35.9,-60.492c10,-21.333 20.865,-42.327 28.611,-63.999c19.747,16.402 37.137,22.13 44.85,11.438c9.847,-13.674 2.644,-46.123 -20.289,-70.082c-22.95,-23.96 -54.342,-32.449 -67.427,-22.808c-10.085,7.422 -4.848,25.451 10.102,46.208c-10.39,9.065 -22.424,16.046 -32.984,23.654c-6.763,3.677 -14.526,7.439 -22.747,11.031c-18.662,-16.029 -38.815,-30.347 -60.121,-42.751c-1.695,-21.265 -2.763,-41.463 3.848,-58.153c10.237,1.966 20.526,1.152 28.764,-3.745c1.949,-8.624 -11.747,-23.535 -31.392,-32.397c-12.203,-4.813 -44.696,-13.98 -41.679,1.423c1.966,8.201 8.271,16.148 16.712,22.434c-2.881,6.626 -7.186,12.624 -11.441,18.673c-6.136,8.743 -14.238,17.944 -21.797,24.332c-25.052,-9.692 -51.087,-16.842 -77.631,-21.18c-9.322,-20.656 -16.238,-42.141 -17.797,-64.88c25.086,-2.542 40.985,-10.438 38.815,-22.672c-2.83,-15.996 -31.238,-32.991 -64.68,-33.686c-33.442,-0.694 -62.02,14.861 -64.732,30.466c-2.102,12.217 15.018,20.995 41.341,24.756c-0.509,13.708 -5.594,26.976 -8.678,39.921c-2.153,6.846 -4.848,14.403 -7.967,22.181c-25.069,1.762 -50.154,6.201 -74.867,13.606c-2.119,0.644 -4.238,1.288 -6.357,1.965c-16.119,-13.318 -27.95,-28.229 -34.628,-44.614c14.204,-7.676 22.204,-16.114 18.78,-21.774c-4.474,-7.371 -24.679,-7.828 -44.968,0.17c-20.289,7.981 -34.628,22.011 -32.679,30.364c1.441,6.219 12.611,7.015 27.645,3.321c1.441,7.49 6.102,14.928 7.373,22.875c1.373,10.726 1.679,23.163 0.577,33.398c-21.577,10.929 -42.036,23.807 -61.138,38.379c-21.103,-10.54 -41.866,-21.723 -63.528,-29.924c16.916,-20.723 23.407,-38.684 13.254,-45.919c-12.932,-9.218 -44.628,-0.695 -68.629,22.773c-24.018,23.451 -33.29,55.001 -24.408,68.201c6.848,10.201 24.357,4.558 44.951,-11.2c8.746,10.488 14.95,22.926 22.136,35.024c3.475,7.235 7.085,15.572 10.543,24.434c-16.289,19.825 -30.611,41.242 -42.68,63.965c-20.797,0.746 -40.408,0.762 -56.527,-7.371c4.508,-15.792 4.152,-27.772 -2.238,-29.466c-8.288,-2.186 -22.611,11.776 -31.035,31.855c-8.424,20.079 -8.424,40.294 -1.136,44.988c5.696,3.66 14.577,-4.524 22.696,-19.114c7.153,3.288 13.577,8.523 20.103,13.759c8.22,6.575 16.933,15.132 23.357,23.163c-4.153,12.471 -7.645,25.214 -10.458,38.176c-3.204,14.149 -5.475,28.365 -6.899,42.615c-20.221,7.625 -41.273,12.607 -62.833,12.624c-3.356,-25.23 -11.645,-41.666 -23.645,-39.955c-15.704,2.254 -32.02,30.381 -32.117,63.762c-0.093,33.397 16.335,62.169 32.354,65.388c12.509,2.525 20.916,-13.809 23.883,-39.65" style="fill:#d5d8ca;fill-rule:nonzero;"/><path id="path224" d="M149.122,473.636c-0,-0 336.2,-180.78 690.57,8.167c0,0 -157.803,109.003 -339.692,109.003c-181.871,0 -350.878,-117.17 -350.878,-117.17" style="fill-rule:nonzero;"/><path id="path226" d="M409.895,499.984c0,44.141 -23.187,79.91 -51.782,79.91c-28.611,0 -51.798,-35.769 -51.798,-79.91c-0,-44.123 23.187,-79.893 51.798,-79.893c28.595,0 51.782,35.77 51.782,79.893" style="fill:#00ffdf;fill-rule:nonzero;"/><path id="path228" d="M390.471,499.984c-0,27.586 -14.493,49.953 -32.358,49.953c-17.882,-0 -32.374,-22.367 -32.374,-49.953c0,-27.568 14.492,-49.935 32.374,-49.935c17.865,0 32.358,22.367 32.358,49.935" style="fill:#0068ff;fill-rule:nonzero;"/><path id="path230" d="M374.199,499.984c-0,13.725 -7.204,24.841 -16.086,24.841c-8.898,-0 -16.102,-11.116 -16.102,-24.841c-0,-13.708 7.204,-24.823 16.102,-24.823c8.882,-0 16.086,11.115 16.086,24.823" style="fill:#002a66;fill-rule:nonzero;"/><path id="path232" d="M735.654,500.001c0,44.124 -22.577,79.893 -50.426,79.893c-27.865,0 -50.442,-35.769 -50.442,-79.893c-0,-44.14 22.577,-79.91 50.442,-79.91c27.849,0 50.426,35.77 50.426,79.91" style="fill:#00ffdf;fill-rule:nonzero;"/><path id="path234" d="M716.738,499.984c0,27.586 -14.102,49.953 -31.51,49.953c-17.407,-0 -31.526,-22.367 -31.526,-49.953c-0,-27.568 14.119,-49.935 31.526,-49.935c17.408,0 31.51,22.367 31.51,49.935" style="fill:#0068ff;fill-rule:nonzero;"/><path id="path236" d="M698.263,499.984c-0,11.421 -5.831,20.673 -13.035,20.673c-7.203,-0 -13.051,-9.252 -13.051,-20.673c-0,-11.403 5.848,-20.655 13.051,-20.655c7.204,0 13.035,9.252 13.035,20.655" style="fill:#002a66;fill-rule:nonzero;"/><path id="path238" d="M121.934,436.392c0,-0 165.295,121.712 388.83,121.712c223.517,-0 361.658,-122.542 361.658,-122.542c0,173.832 -143.938,311.472 -143.938,311.472c0,-0 -79.308,101.294 -228.484,101.294c-149.158,-0 -234.297,-101.294 -234.297,-101.294c-0,-0 -143.769,-112.765 -143.769,-310.642" style="fill:#f3f7e8;fill-rule:nonzero;"/><path id="path240" d="M531.51,634.015c-13.187,-0 -26.357,-0.559 -39.493,-1.491c-57.494,-4.169 -114.225,-16.826 -168.549,-35.94c-27.171,-9.556 -53.782,-20.689 -79.631,-33.38c-12.949,-6.32 -25.679,-13.047 -38.205,-20.164c-12.492,-7.133 -24.831,-14.606 -36.662,-22.824l0.271,-0.373c24.222,15.521 49.629,29.094 75.664,41.192c25.934,12.268 52.596,23.028 79.749,32.178c3.39,1.152 6.78,2.287 10.204,3.355c3.407,1.101 6.831,2.185 10.255,3.202c6.847,2.118 13.712,4.151 20.611,6.083c13.797,3.83 27.696,7.286 41.696,10.218c28.018,5.845 56.392,9.98 84.919,11.878c13.763,1.033 27.561,1.677 41.358,1.677l1.474,0c0.848,0 1.695,0.017 2.526,0.017c2.746,0 5.475,-0.068 8.204,-0.119c3.559,-0.084 7.135,-0.084 10.712,-0.288l10.712,-0.491l10.696,-0.763c28.509,-2.168 56.798,-6.811 84.647,-13.352c55.748,-13.132 109.106,-35.752 158.735,-64.897l0.238,0.39c-24.425,15.25 -49.952,28.755 -76.359,40.277l-9.967,4.134l-5,2.067l-5.034,1.932l-10.102,3.83l-10.221,3.524l-5.102,1.762l-5.153,1.61l-10.322,3.202c-6.933,1.898 -13.831,3.999 -20.849,5.626c-13.949,3.592 -28.102,6.405 -42.306,8.777l-10.662,1.678l-10.712,1.406c-3.576,0.508 -7.153,0.813 -10.746,1.203c-3.577,0.356 -7.153,0.78 -10.746,1l-10.781,0.813l-10.78,0.542c-3.61,0.221 -7.203,0.238 -10.797,0.339c-3.034,0.085 -6.068,0.17 -9.102,0.17c-0.576,-0 -1.135,-0 -1.712,-0.017c-1.22,0.017 -2.457,0.017 -3.678,0.017" style="fill:#999b92;fill-rule:nonzero;"/><path id="path242" d="M519.832,690.49c-11.289,0 -22.561,-0.372 -33.832,-1.101c-54.46,-3.626 -108.242,-15.555 -159.515,-34.143c-25.645,-9.302 -50.68,-20.249 -74.952,-32.703c-12.119,-6.252 -24.035,-12.877 -35.731,-19.909c-11.644,-7.066 -23.136,-14.437 -34.086,-22.604l0.221,-0.271c22.34,15.605 46.069,29.093 70.443,41.158c24.323,12.166 49.375,22.824 75.02,31.804c6.407,2.254 12.848,4.389 19.323,6.422c6.475,2.051 12.95,4.067 19.492,5.897c13.052,3.728 26.222,6.998 39.493,9.828c26.527,5.693 53.477,9.319 80.512,11.081c12.306,0.814 24.645,1.203 36.968,1.203l3.678,0c13.543,-0.118 27.086,-0.864 40.595,-2.016c13.509,-1.186 26.95,-3.033 40.323,-5.236c6.679,-1.254 13.357,-2.406 19.967,-3.88l4.984,-1.017l2.491,-0.525l2.475,-0.593l9.899,-2.355c13.136,-3.355 26.238,-7.015 39.086,-11.421c6.475,-2.05 12.797,-4.49 19.204,-6.812c3.187,-1.152 6.305,-2.49 9.475,-3.727c3.153,-1.288 6.339,-2.457 9.441,-3.83c6.238,-2.694 12.543,-5.253 18.679,-8.184l9.255,-4.287l9.135,-4.558c12.187,-6.083 24.086,-12.708 35.934,-19.469l0.17,0.305c-23.256,14.233 -47.46,26.942 -72.444,37.854l-2.339,1.05l-2.356,0.966l-4.746,1.949c-3.153,1.271 -6.271,2.643 -9.475,3.829c-6.39,2.389 -12.729,4.914 -19.204,7.049c-12.848,4.558 -25.967,8.354 -39.137,11.878c-41.883,10.946 -85.173,16.368 -128.446,16.368" style="fill:#999b92;fill-rule:nonzero;"/><path id="path244" d="M503.238,750.779c-2.814,-0 -5.644,-0.034 -8.458,-0.085c-51.833,-0.915 -103.36,-11.099 -152.023,-28.839c-24.34,-8.845 -47.985,-19.605 -70.749,-31.975c-11.356,-6.218 -22.492,-12.826 -33.357,-19.892c-10.831,-7.1 -21.459,-14.539 -31.459,-22.791l0.152,-0.169c10.086,8.099 20.798,15.402 31.714,22.35c10.915,6.913 22.119,13.386 33.543,19.435c22.798,12.166 46.443,22.722 70.766,31.364c24.34,8.574 49.239,15.623 74.596,20.35c25.357,4.762 51.087,7.524 76.851,7.879c3.237,0.068 6.458,0.102 9.695,0.102c9.661,0 19.323,-0.305 28.95,-1c12.865,-0.932 25.696,-2.219 38.426,-4.303c12.729,-2.034 25.408,-4.474 37.916,-7.642c6.289,-1.424 12.459,-3.305 18.696,-4.948l9.255,-2.813l4.627,-1.389l4.593,-1.559l9.17,-3.084l9.085,-3.355l4.543,-1.695l4.492,-1.813l8.966,-3.626c2.983,-1.254 5.916,-2.592 8.882,-3.897c2.932,-1.305 5.915,-2.559 8.814,-3.982c5.831,-2.796 11.695,-5.507 17.407,-8.523c23.086,-11.641 45.358,-24.891 66.783,-39.447l0.118,0.187c-21.221,14.826 -43.357,28.382 -66.341,40.344c-5.695,3.067 -11.56,5.812 -17.374,8.659c-2.898,1.457 -5.882,2.728 -8.831,4.067c-2.949,1.321 -5.898,2.677 -8.865,3.965l-8.983,3.711l-4.492,1.847l-4.525,1.728l-9.085,3.44l-9.187,3.168l-4.594,1.576l-4.644,1.457l-9.271,2.864c-6.255,1.711 -12.459,3.592 -18.764,5.049c-12.56,3.22 -25.272,5.694 -38.069,7.778c-12.78,2.118 -25.679,3.456 -38.595,4.422c-10.102,0.763 -20.238,1.085 -30.374,1.085" style="fill:#999b92;fill-rule:nonzero;"/><path id="path246" d="M121.968,442.306c0,-0 54.206,-321.588 388.796,-321.588c-0,-0 337.149,22.502 361.319,329.331l-50.442,33.11c-0,-0 -138.853,-63.068 -321.641,-63.068c-182.787,0 -339.522,48.089 -339.522,48.089l-38.51,-25.874" style="fill:#f3f7e8;fill-rule:nonzero;"/><path id="path248" d="M864.253,509.541c-0.068,0 -0.153,0 -0.238,-0.017c0.17,-0.779 0.356,-1.576 0.526,-2.355c0.135,0.101 0.271,0.203 0.406,0.305c0.509,0.39 0.611,1.101 0.238,1.61c-0.238,0.305 -0.577,0.457 -0.932,0.457" style="fill:#86887f;fill-rule:nonzero;"/><path id="path250" d="M809.166,478.872c-2.356,-1.22 -4.763,-2.474 -7.221,-3.728c3.068,1.169 5.797,2.237 8.17,3.185c-0.305,0.187 -0.627,0.373 -0.949,0.543" style="fill-rule:nonzero;"/><path id="path252" d="M864.015,509.524c-0.152,-0.034 -0.305,-0.102 -0.44,-0.203c-6.713,-5.033 -26.73,-16.064 -54.409,-30.449c0.322,-0.17 0.644,-0.356 0.949,-0.543c7.525,3.017 11.526,4.83 11.526,4.83l0.288,-0.187c21.221,11.2 36.527,19.774 42.612,24.197c-0.17,0.779 -0.356,1.576 -0.526,2.355" style="fill:#999b92;fill-rule:nonzero;"/><path id="path254" d="M134.257,396.285c-0.339,-0.102 -0.61,-0.373 -0.729,-0.729c-0.204,-0.61 0.135,-1.254 0.729,-1.457c0.051,-0.017 0.322,-0.102 0.813,-0.254c-0.288,0.83 -0.559,1.643 -0.813,2.44" style="fill:#86887f;fill-rule:nonzero;"/><path id="path256" d="M828.166,302.921c-0.474,-0.814 -0.966,-1.627 -1.44,-2.44c0.406,0.118 0.796,0.237 1.186,0.373c0.61,0.186 0.949,0.83 0.763,1.44c-0.085,0.271 -0.271,0.491 -0.509,0.627" style="fill:#a0a0a0;fill-rule:nonzero;"/><path id="path258" d="M298.907,176.956c-0.084,-0.152 -0.152,-0.305 -0.169,-0.491c-0.068,-0.627 0.407,-1.186 1.034,-1.254c0.78,-0.085 1.542,-0.153 2.322,-0.221c-1.068,0.661 -2.136,1.305 -3.187,1.966m320.454,-32.72c-1.39,-0.457 -2.763,-0.915 -4.153,-1.355c1.017,-0.085 2.034,-0.119 3.051,-0.153l0.017,0c0.628,0 1.136,0.509 1.153,1.136c-0,0.135 -0.017,0.254 -0.068,0.372" style="fill:#86887f;fill-rule:nonzero;"/><path id="path260" d="M821.641,483.159c-0,-0 -4.001,-1.813 -11.526,-4.83c-2.373,-0.948 -5.102,-2.016 -8.17,-3.185c-108.971,-56.256 -319.776,-157.058 -331.268,-162.548c-22.95,4.168 -45.205,8.608 -66.274,13.081c-145.853,30.941 -268.214,70.218 -269.434,70.608l-0.356,0.067c-0.119,0 -0.238,-0.034 -0.356,-0.067c0.254,-0.797 0.525,-1.61 0.813,-2.44c10.865,-3.457 129.073,-40.752 268.842,-70.421c22.729,-4.813 44.815,-9.184 66.274,-13.098c0.169,-0.085 0.339,-0.136 0.525,-0.136c0.051,-0 0.102,0.017 0.153,0.017c41.272,-7.523 80.088,-13.352 116.208,-17.47c-7.577,-7.116 -39.154,-35.685 -84.783,-62.525c-3.611,-2.118 -7.374,-4.27 -11.272,-6.422c-0.186,0.204 -0.305,0.322 -0.322,0.339c-0.22,0.254 -0.526,0.373 -0.848,0.373c-0.271,0 -0.559,-0.102 -0.779,-0.305c-0.441,-0.407 -0.475,-1.067 -0.102,-1.542c-42.561,-23.197 -100.902,-46.36 -164.278,-46.36c-8.153,0 -16.39,0.39 -24.696,1.203l-0.118,0c-0.407,0 -0.763,-0.22 -0.967,-0.542c1.051,-0.661 2.119,-1.305 3.187,-1.966c7.594,-0.677 15.119,-0.999 22.594,-0.999c64.071,-0 123.022,23.502 165.888,46.936c10.865,-11.353 73.41,-74.471 124.632,-78.046c1.39,0.44 2.763,0.898 4.153,1.355c-0.135,0.458 -0.559,0.78 -1.051,0.797c-49.561,1.135 -113.665,64.71 -125.649,77.046c3.746,2.067 7.373,4.134 10.848,6.185c49.578,29.178 82.647,60.39 86.546,64.134c14.645,-1.626 28.866,-2.982 42.595,-4.049c24.916,-1.915 48.29,-2.864 70.071,-2.864c49.849,0 91.393,4.999 124.005,14.996c0.474,0.813 0.966,1.626 1.44,2.44c-0.186,0.118 -0.39,0.169 -0.593,0.169c-0.119,0 -0.22,-0.017 -0.339,-0.051c-34.544,-10.776 -77.274,-15.148 -123.852,-15.148c-72.427,0 -154.176,10.573 -228.84,24.01c29.831,14.268 250.417,119.95 347.387,171.071l-0.288,0.187" style="fill:#999b92;fill-rule:nonzero;"/></svg>